<?xml version="1.0" standalone="no"?>
<!DOCTYPE svg PUBLIC "-//W3C//DTD SVG 1.1//EN" "http://www.w3.org/Graphics/SVG/1.1/DTD/svg11.dtd" >
<svg xmlns="http://www.w3.org/2000/svg">
<metadata>
Created by FontPrep 20130207 at Wed May 28 22:40:33 2014
 By Callum Flack
2002 Christian Schwartz published by FontShop International for the FontFont library.
</metadata>
<defs>
<font id="e05e176efb3c132090eee24550bf9166" >
  <font-face 
    font-family="Bau-Super"
    font-weight="400"
    font-stretch="normal"
    units-per-em="2048"
    panose-1="2 11 11 4 4 2 2 2 2 3"
    ascent="1638"
    descent="-410"
    x-height="1059"
    cap-height="1548"
    bbox="-147 -549 3760 2187"
    underline-thickness="40"
    underline-position="-231"
    unicode-range="U+0020-22C5"
  />
<missing-glyph 
d="M928 385v778h-463v-778h463zM80 1548h1233v-1548h-1233v1548z" />
    <glyph glyph-name=".notdef" 
d="M928 385v778h-463v-778h463zM80 1548h1233v-1548h-1233v1548z" />
    <glyph glyph-name=".null" horiz-adv-x="0" 
 />
    <glyph glyph-name="nonmarkingreturn" horiz-adv-x="376" 
 />
    <glyph glyph-name="space" unicode=" " horiz-adv-x="376" 
 />
    <glyph glyph-name="exclam" unicode="!" horiz-adv-x="874" 
d="M115 1548h645v-532l-146 -488h-354l-145 488v532zM158 420h559v-420h-559v420z" />
    <glyph glyph-name="quotedbl" unicode="&#x22;" horiz-adv-x="1478" 
d="M780 1548h631l-84 -733h-463zM68 1548h630l-84 -733h-462z" />
    <glyph glyph-name="numbersign" unicode="#" horiz-adv-x="1263" 
d="M55 950v326h144v184h366v-184h133v184h367v-184h143v-326h-143v-135h143v-328h-143v-186h-367v186h-133v-186h-366v186h-144v328h144v135h-144zM559 956v-147h146v147h-146z" />
    <glyph glyph-name="dollar" unicode="$" horiz-adv-x="1558" 
d="M688 1649h199v-162q240 -15 430 -110q53 -28 100 -60l-239 -316q-121 90 -291 117v-145q320 -38 463 -142q163 -116 163 -356q0 -354 -370 -464q-115 -34 -256 -40v-243h-199v245l-229 13q-324 115 -449 215l277 317q160 -146 401 -172v160q-311 39 -452 137
q-164 113 -164 354q0 242 155 362q156 120 461 130v160zM1020 418q0 33 -27 45t-106 22v-143q77 6 105 24t28 52zM555 1056q0 -28 26 -40t107 -21v129q-84 -4 -108 -22t-25 -46z" />
    <glyph glyph-name="percent" unicode="%" horiz-adv-x="2646" 
d="M178.5 681.5q-139.5 132.5 -139.5 340.5q0 209 150 342t393.5 133t392.5 -125.5t149 -339.5t-144 -348.5t-403 -134.5t-398.5 132.5zM1522 438q0 210 150 341.5t394 131.5t392.5 -127.5t148.5 -338.5t-144 -346.5t-404 -135.5t-398.5 132.5t-138.5 342.5zM1501 1460h438
l-796 -1460h-436zM2064 274q97 0 97 130.5t-26 165t-73 34.5t-70.5 -35t-23.5 -129t23.5 -130t72.5 -36zM581 862q48 0 72.5 37t24.5 129t-25.5 127t-73 35t-71 -35t-23.5 -129t24 -129t72 -35z" />
    <glyph glyph-name="ampersand" unicode="&#x26;" horiz-adv-x="1744" 
d="M739 -37q-513 0 -605.5 175.5t-92.5 281.5q0 191 94.5 301t284.5 184q-33 98 -33 210q0 222 153.5 342t387.5 120t354.5 -96t120.5 -249t-92.5 -235t-278.5 -157q76 -84 180 -164q57 108 74 196l385 -75q-44 -171 -119 -314q113 -44 166 -57l-131 -463q-186 26 -399 119
q-203 -119 -449 -119zM573 487q0 -163 197 -163q41 0 82 14q-133 106 -254 268q-25 -53 -25 -119zM950 1280q-94 0 -94 -109q0 -48 27 -118q80 37 107.5 72.5t27.5 82.5q0 72 -68 72z" />
    <glyph glyph-name="quotesingle" unicode="'" horiz-adv-x="765" 
d="M68 1548h630l-84 -733h-462z" />
    <glyph glyph-name="parenleft" unicode="(" horiz-adv-x="931" 
d="M57 633q0 341 156 597t395 433l305 -227q-105 -140 -179.5 -346t-74.5 -458t75 -462t179 -350l-305 -228q-551 419 -551 1041z" />
    <glyph glyph-name="parenright" unicode=")" horiz-adv-x="931" 
d="M272 633q0 456 -254 803l306 227q241 -178 395.5 -435.5t154.5 -600.5q0 -617 -550 -1035l-306 228q106 142 180 350t74 463z" />
    <glyph glyph-name="asterisk" unicode="*" horiz-adv-x="1040" 
d="M313 1548h416l-53 -248l207 123l131 -395l-250 -18l190 -168l-338 -242l-96 231l-96 -231l-338 242l190 168l-249 18l131 395l209 -123z" />
    <glyph glyph-name="plus" unicode="+" horiz-adv-x="1216" 
d="M825 160h-434v293h-297v426h297v292h434v-292h297v-426h-297v-293z" />
    <glyph glyph-name="comma" unicode="," horiz-adv-x="784" 
d="M102 0v471h580v-389q0 -197 -145.5 -328t-432.5 -135v236q106 12 172 53t72 92h-246z" />
    <glyph glyph-name="hyphen" unicode="-" horiz-adv-x="899" 
d="M84 766h731v-447h-731v447z" />
    <glyph glyph-name="period" unicode="." horiz-adv-x="784" 
d="M102 471h580v-471h-580v471z" />
    <glyph glyph-name="slash" unicode="/" horiz-adv-x="1163" 
d="M606 1665h537l-641 -1946h-537z" />
    <glyph glyph-name="zero" unicode="0" horiz-adv-x="1603" 
d="M55 628q0 294 206 479t542 185t540.5 -176.5t204.5 -473.5t-197 -488t-556 -191t-549.5 185.5t-190.5 479.5zM799 877q-160 0 -160 -242q0 -135 39 -193.5t123 -58.5t124 56.5t40 189.5t-40 190.5t-126 57.5z" />
    <glyph glyph-name="one" unicode="1" horiz-adv-x="958" 
d="M850 1255v-1255h-565v680q-91 -65 -228 -72v377q177 31 235 118t70 152h488z" />
    <glyph glyph-name="two" unicode="2" horiz-adv-x="1488" 
d="M842 815q0 70 -109 70q-72 0 -116 -40t-60 -87l-518 153q129 272 355 326.5t384 54.5q312 0 474.5 -117t162.5 -309t-113.5 -272.5t-188.5 -104.5t-148.5 -49.5t-83.5 -60.5h544v-379h-1394q11 267 155.5 432.5t363.5 239t255.5 97.5t36.5 46z" />
    <glyph glyph-name="three" unicode="3" horiz-adv-x="1525" 
d="M1442 854q0 -209 -242 -283q123 -29 206 -121t83 -225q0 -240 -193.5 -361.5t-502.5 -121.5q-505 0 -626.5 193.5t-148.5 297.5l506 127q23 -106 78 -160.5t160 -54.5q150 0 149 111q0 66 -61.5 92.5t-208.5 16.5v350q260 -18 260 94q0 86 -137 86q-100 0 -156.5 -45
t-89.5 -131l-463 115q70 219 257.5 338.5t492.5 119.5t471 -114.5t166 -323.5z" />
    <glyph glyph-name="four" unicode="4" horiz-adv-x="1632" 
d="M1597 358v-358h-194v-221h-567v221h-787v408q175 129 408 387.5t358 461.5h588v-899h194zM856 358v375q-147 -218 -338 -375h338z" />
    <glyph glyph-name="five" unicode="5" horiz-adv-x="1486" 
d="M1450 295q0 -255 -187.5 -404t-527.5 -149q-415 0 -548.5 148.5t-170.5 228.5l553 125q25 -51 62 -77t105 -26t107.5 40.5t39.5 104.5t-40 103t-112 39q-126 0 -180 -96l-451 49l136 874h1077v-381h-742l-34 -198q122 96 354 96q375 0 467 -175t92 -302z" />
    <glyph glyph-name="six" unicode="6" horiz-adv-x="1531" 
d="M924 946q387 0 476 -168t89 -294q0 -248 -188.5 -383.5t-499.5 -135.5q-367 0 -556.5 202.5t-189.5 545.5q0 168 58.5 312t227 308t529.5 164t555 -190l-342 -299q-66 71 -194 71q-259 0 -291 -231q118 98 326 98zM954 481q0 141 -151 142q-72 0 -118 -35t-46 -107
q-1 -141 157 -141t158 141z" />
    <glyph glyph-name="seven" unicode="7" horiz-adv-x="1378" 
d="M31 844v411h1323v-331q-487 -431 -510 -1145h-608q26 352 186 625.5t377 439.5h-768z" />
    <glyph glyph-name="eight" unicode="8" horiz-adv-x="1560" 
d="M241.5 84.5q-196.5 119.5 -196.5 331.5q0 139 79 227t202 125q-98 31 -157.5 107.5t-59.5 196.5q0 220 194 322.5t486 102.5q293 0 478 -104t185 -310q0 -103 -60.5 -195t-150.5 -120q123 -35 199 -122t76 -211t-54.5 -211t-201.5 -173t-485 -86q-337 0 -533.5 119.5z
M948 477q0 123 -167 123t-167 -123q0 -59 40 -96t126 -37q168 0 168 133zM784 895q148 0 148 117q0 49 -38 80.5t-114 31.5q-152 0 -151 -118q0 -55 35.5 -83t119.5 -28z" />
    <glyph glyph-name="nine" unicode="9" horiz-adv-x="1531" 
d="M936 393q-122 -117 -350 -117t-385.5 121.5t-157.5 364.5t185 386.5t487 143.5q395 0 578.5 -197.5t183.5 -549.5t-205.5 -577.5t-610.5 -225.5q-404 0 -616 186l301 316q109 -99 295 -99q258 0 295 248zM734 918q-73 0 -111.5 -42t-38.5 -115q0 -153 149 -153
q70 0 111 40t41 114t-39 115t-112 41z" />
    <glyph glyph-name="colon" unicode=":" horiz-adv-x="743" 
d="M102 578v440h539v-440h-539zM102 440h539v-440h-539v440z" />
    <glyph glyph-name="semicolon" unicode=";" horiz-adv-x="743" 
d="M102 0v440h539v-358q0 -192 -142 -325.5t-395 -137.5v229q212 18 230 152h-232zM102 578v440h539v-440h-539z" />
    <glyph glyph-name="less" unicode="&#x3c;" horiz-adv-x="1077" 
d="M74 397v408l930 369v-478l-347 -92l347 -108v-467z" />
    <glyph glyph-name="equal" unicode="=" horiz-adv-x="1196" 
d="M94 1083h1008v-395h-1008v395zM94 567h1008v-395h-1008v395z" />
    <glyph glyph-name="greater" unicode="&#x3e;" horiz-adv-x="1077" 
d="M1004 805v-408l-930 -368v477l346 92l-346 109v467z" />
    <glyph glyph-name="question" unicode="?" horiz-adv-x="1488" 
d="M735 1155q-153 0 -227 -170l-483 184q136 298 363.5 353t391.5 55q346 0 508 -121t162 -331t-106.5 -298.5t-188.5 -131t-125 -72.5t-43 -95h-538v50q0 177 86.5 242.5t150.5 101.5t116 71t52 86q0 76 -119 76zM432 420h559v-420h-559v420z" />
    <glyph glyph-name="at" unicode="@" horiz-adv-x="1986" 
d="M426 479q0 250 128 388.5t318 138.5q104 0 156.5 -38t65.5 -63l12 82h424l-84 -536q-12 -78 0 -111t61 -33q80 0 139.5 82.5t59.5 242.5q0 304 -179.5 457.5t-498.5 153.5t-529 -195.5t-210 -506.5t170 -495.5t479 -184.5q149 0 234.5 25t201.5 91l123 -180
q-175 -120 -326 -133.5t-245 -13.5q-205 0 -367 69.5t-274.5 189.5t-172 278.5t-59.5 350.5t80 363.5t215 294.5t311.5 190.5t365.5 67.5t354 -57.5t288 -165t194.5 -259t71.5 -325.5q0 -301 -152.5 -437t-342.5 -136q-246 0 -318 166q-92 -177 -327 -177q-154 0 -260.5 112
t-106.5 304zM932 381q106 0 106 213q0 57 -16 80.5t-57 23.5q-102 0 -103 -215q0 -47 14.5 -74.5t55.5 -27.5z" />
    <glyph glyph-name="A" unicode="A" horiz-adv-x="1982" 
d="M584 0h-564l631 1548h725l586 -1548h-653l-70 215h-577zM967 1055l-164 -451h309z" />
    <glyph glyph-name="B" unicode="B" horiz-adv-x="1816" 
d="M135 1548h1018q444 0 501.5 -165.5t57.5 -278.5q0 -220 -227 -305q135 -43 205.5 -126t70.5 -237q0 -217 -137 -326.5t-469 -109.5h-1020v1548zM737 426h310q47 0 77.5 17.5t30.5 72.5t-28.5 72.5t-88.5 17.5h-301v-180zM1044 979q84 0 84 71.5t-81 71.5h-310v-143h307z
" />
    <glyph glyph-name="C" unicode="C" horiz-adv-x="1826" 
d="M709 776q0 -334 274 -334q104 0 161.5 52.5t86.5 158.5l571 -192q-107 -253 -300 -375.5t-525 -122.5q-421 0 -668.5 221.5t-247.5 589.5q0 190 71 340t257.5 306.5t579.5 156.5q315 0 513.5 -114.5t305.5 -356.5l-574 -219q-29 111 -83.5 161t-168.5 50t-183.5 -78
t-69.5 -244z" />
    <glyph glyph-name="D" unicode="D" horiz-adv-x="1894" 
d="M135 1548h789q438 0 673.5 -195.5t235.5 -564.5t-235.5 -578.5t-684.5 -209.5h-778v1548zM905 449q147 0 221 74.5t74 252.5q0 261 -114.5 292.5t-184.5 31.5h-149v-651h153z" />
    <glyph glyph-name="E" unicode="E" horiz-adv-x="1689" 
d="M135 1548h1430v-450h-828v-113h639v-403h-639v-125h881v-457h-1483v1548z" />
    <glyph glyph-name="F" unicode="F" horiz-adv-x="1646" 
d="M135 1548h1458v-450h-841v-187h667v-415h-667v-496h-617v1548z" />
    <glyph glyph-name="G" unicode="G" horiz-adv-x="1925" 
d="M690 752q0 -182 84 -268.5t209 -86.5t176 34t80 89h-242v408h832v-928h-346l-47 127q-88 -84 -206 -124t-296 -40t-336 50t-276.5 149.5t-189.5 248t-71 346.5q0 386 263 603t682 217t565.5 -103.5t195.5 -154.5l-495 -334q-81 123 -264 123q-227 0 -272.5 -131
t-45.5 -225z" />
    <glyph glyph-name="H" unicode="H" horiz-adv-x="1996" 
d="M1245 1548h617v-1548h-617v524h-493v-524h-617v1548h617v-542h493v542z" />
    <glyph glyph-name="I" unicode="I" horiz-adv-x="903" 
d="M143 1548h617v-1548h-617v1548z" />
    <glyph glyph-name="J" unicode="J" horiz-adv-x="1576" 
d="M33 631v31h590v-64q0 -90 32.5 -119.5t94.5 -29.5t87 35.5t25 131.5v932h617v-876q0 -375 -171 -542t-528 -167q-358 0 -552.5 167t-194.5 501z" />
    <glyph glyph-name="K" unicode="K" horiz-adv-x="1966" 
d="M752 0h-617v1548h617v-514l479 514h637l-592 -620l670 -928h-744l-354 481l-96 -100v-381z" />
    <glyph glyph-name="L" unicode="L" horiz-adv-x="1581" 
d="M135 1548h617v-1081h768v-467h-1385v1548z" />
    <glyph glyph-name="M" unicode="M" horiz-adv-x="2383" 
d="M135 1548h731l316 -794l319 794h748v-1548h-617v741l-305 -741h-366l-302 741v-741h-524v1548z" />
    <glyph glyph-name="N" unicode="N" horiz-adv-x="1951" 
d="M135 1548h686l467 -714l-16 714h545v-1548h-648l-507 772l18 -772h-545v1548z" />
    <glyph glyph-name="O" unicode="O" horiz-adv-x="1949" 
d="M61 774q0 193 73 342.5t263.5 305t587.5 155.5t650 -209t253 -588q0 -380 -252.5 -598.5t-668.5 -218.5t-661 221.5t-245 589.5zM977 432q129 0 203.5 91t74.5 254t-77.5 251t-204.5 88t-203 -88t-76 -253t77 -254t206 -89z" />
    <glyph glyph-name="P" unicode="P" horiz-adv-x="1816" 
d="M752 0h-617v1548h957q481 0 575 -205.5t94 -350.5q0 -284 -171.5 -420t-477.5 -136h-360v-436zM1057 874q111 0 110 117q0 51 -27.5 81t-80.5 30h-307v-228h305z" />
    <glyph glyph-name="Q" unicode="Q" horiz-adv-x="1949" 
d="M965 -37q-414 0 -659 221.5t-245 589.5q0 193 73 342.5t263.5 305t587.5 155.5t650 -209t253 -578q0 -370 -229 -587l162 -250l-512 -270l-187 288q-78 -8 -157 -8zM977 432q129 0 203.5 91t74.5 254t-77.5 251t-204.5 88t-203 -88t-76 -253t77 -254t206 -89z" />
    <glyph glyph-name="R" unicode="R" horiz-adv-x="1884" 
d="M752 0h-617v1548h1051q478 0 545 -175t67 -283q0 -178 -73.5 -272.5t-204.5 -139.5q162 -26 213 -160q34 -90 41.5 -274t52.5 -221v-23h-610q-48 83 -58 299q-8 106 -32.5 132t-51 33t-63.5 7h-260v-471zM1100 887q113 0 112 110q0 53 -23.5 81t-82.5 28h-354v-219h348z
" />
    <glyph glyph-name="S" unicode="S" horiz-adv-x="1679" 
d="M840 1163q-104 0 -139 -12t-35 -35q0 -18 8 -28.5t41 -19.5t200 -23q359 -30 537 -154t178 -393t-208.5 -402t-563.5 -133q-540 0 -848 236l295 348q108 -87 228.5 -124.5t308.5 -37.5t188 57q0 36 -36 48t-200 28q-370 36 -544 150.5t-174 387.5q0 274 188.5 397.5
t542.5 123.5q468 0 721 -170l-254 -346q-143 102 -434 102z" />
    <glyph glyph-name="T" unicode="T" horiz-adv-x="1714" 
d="M47 1081v467h1620v-467h-483v-1081h-617v1081h-520z" />
    <glyph glyph-name="U" unicode="U" horiz-adv-x="1892" 
d="M942 -37q-411 0 -617 169.5t-206 535.5v880h616v-860q0 -129 43 -184t168 -55t168 59t43 180v860h617v-880q0 -549 -316.5 -627t-515.5 -78z" />
    <glyph glyph-name="V" unicode="V" horiz-adv-x="1916" 
d="M25 1548h669l293 -821l293 821h612l-604 -1548h-651z" />
    <glyph glyph-name="W" unicode="W" horiz-adv-x="2639" 
d="M25 1548h671l195 -784l207 784h497l201 -784l213 784h606l-440 -1548h-633l-199 737l-196 -737h-672z" />
    <glyph glyph-name="X" unicode="X" horiz-adv-x="1976" 
d="M623 784l-543 764h745l217 -315l191 315h627l-504 -729l583 -819h-745l-270 389l-260 -389h-627z" />
    <glyph glyph-name="Y" unicode="Y" horiz-adv-x="1839" 
d="M1237 0h-616v606l-625 942h692l273 -426l264 426h618l-606 -948v-600z" />
    <glyph glyph-name="Z" unicode="Z" horiz-adv-x="1689" 
d="M106 1098v450h1481v-483l-741 -608h768v-457h-1538v487l743 611h-713z" />
    <glyph glyph-name="bracketleft" unicode="[" horiz-adv-x="968" 
d="M115 1624h796v-395h-256v-1200h256v-396h-796v1991z" />
    <glyph glyph-name="backslash" unicode="\" horiz-adv-x="1163" 
d="M20 1665h537l641 -1946h-536z" />
    <glyph glyph-name="bracketright" unicode="]" horiz-adv-x="968" 
d="M57 -367v396h256v1200h-256v395h797v-1991h-797z" />
    <glyph glyph-name="asciicircum" unicode="^" horiz-adv-x="931" 
d="M84 930h764v-467h-764v467z" />
    <glyph glyph-name="underscore" unicode="_" horiz-adv-x="960" 
d="M-2 -23h965v-385h-965v385z" />
    <glyph glyph-name="grave" unicode="`" horiz-adv-x="1024" 
d="M18 1507h637l86 -366h-413z" />
    <glyph glyph-name="a" unicode="a" horiz-adv-x="1384" 
d="M41 276q0 176 171 258.5t519 108.5v4q0 43 -20.5 61.5t-85.5 18.5q-180 0 -303 -98l-240 278q213 180 604 180q308 0 429.5 -104t121.5 -350v-236q0 -69 55 -69q21 0 49 14h9l-58 -330q-90 -35 -219 -35q-260 0 -311 136q-105 -144 -361 -144t-308 109.5t-52 197.5z
M512 313q0 -53 78 -53t118 49t40 107q-104 0 -170 -28t-66 -75z" />
    <glyph glyph-name="b" unicode="b" horiz-adv-x="1400" 
d="M604 934q100 153 298 153q207 0 328.5 -132t121.5 -416q0 -283 -126 -425.5t-325 -142.5q-200 0 -299 152l2 -123h-524v1548h524v-614zM709 719q-127 0 -127 -187q0 -88 29 -146t95 -58t91.5 49t25.5 157t-28.5 146.5t-85.5 38.5z" />
    <glyph glyph-name="c" unicode="c" horiz-adv-x="1316" 
d="M817 573q-21 142 -103 142q-66 0 -98 -39t-32 -124q0 -143 30.5 -184.5t90.5 -41.5q90 0 112 123l483 -111q-53 -203 -213.5 -289t-396.5 -86q-287 0 -466 141t-179 419t183.5 421t467.5 143q473 0 584 -364z" />
    <glyph glyph-name="d" unicode="d" horiz-adv-x="1400" 
d="M49 540q0 285 127 416t318 131q118 0 171.5 -27.5t80 -55t51.5 -64.5v608h524v-1548h-524l2 125q-111 -154 -299 -154q-311 0 -381 208t-70 361zM819 532q0 187 -127 187q-57 0 -85.5 -38.5t-28.5 -146.5t25 -157t91 -49t95.5 58t29.5 146z" />
    <glyph glyph-name="e" unicode="e" horiz-adv-x="1335" 
d="M716.5 315q61.5 0 93.5 16.5t54 47.5l430 -119q-68 -141 -205 -219t-370 -78q-306 0 -490 141t-184 419t179.5 421t461.5 143q283 0 454.5 -151.5t145.5 -505.5h-733q16 -70 59 -92.5t104.5 -22.5zM685 776q-54 0 -85 -24.5t-43 -89.5h250q-10 61 -39 87.5t-83 26.5z" />
    <glyph glyph-name="f" unicode="f" horiz-adv-x="944" 
d="M170 1223q0 360 451 360q196 0 346 -61l-56 -363h-4q-67 58 -140 58t-73 -68v-90h219v-387h-219v-672h-524v672h-139v387h139v164z" />
    <glyph glyph-name="g" unicode="g" horiz-adv-x="1312" 
d="M612 1087q154 0 232 -20q147 -38 213 -127q41 86 105 117q65 31 130 24v-350h-8q-24 12 -56 12q-32 1 -54 -29t-48 -93q-55 -129 -188 -175t-290 -47q-157 0 -251 21q-8 -8 -8 -24t9 -27q9 -9 62 -19q53 -9 243 -10q189 0 297 -18q214 -36 267 -169q27 -69 27 -183
q-1 -320 -407 -377q-127 -17 -281 -17q-285 0 -428 59t-143 201q0 121 127 176q-68 31 -98 81t-29 128q0 162 180 264q-149 87 -148 262t149 257q148 83 396 83zM816 -139q52 13 52 43q0 14 -5 23t-37 16t-174 8q-142 0 -228 6q-20 -19 -20 -43t8 -36q20 -30 186 -30t218 13
zM618 641q41 0 67 24q26 25 26 73t-26 72t-67 24q-42 0 -66 -25t-24 -72t24 -71t66 -25z" />
    <glyph glyph-name="h" unicode="h" 
d="M795 592q0 98 -82 98q-109 0 -109 -131v-559h-524v1548h524v-624q53 82 132 122.5t236 40.5t252 -95t95 -281v-711h-524v592z" />
    <glyph glyph-name="i" unicode="i" horiz-adv-x="704" 
d="M90 1059h524v-1059h-524v1059zM90 1548h524v-401h-524v401z" />
    <glyph glyph-name="j" unicode="j" horiz-adv-x="704" 
d="M7 -55q83 0 83 88v1026h524v-1047q0 -231 -106 -315t-336 -84q-143 0 -258 45v309h18q33 -22 75 -22zM90 1548h524v-401h-524v401z" />
    <glyph glyph-name="k" unicode="k" horiz-adv-x="1456" 
d="M604 0h-524v1548h524v-800l297 311h520l-368 -385l389 -674h-592l-166 289l-80 -84v-205z" />
    <glyph glyph-name="l" unicode="l" horiz-adv-x="704" 
d="M90 1548h524v-1548h-524v1548z" />
    <glyph glyph-name="m" unicode="m" horiz-adv-x="2041" 
d="M946 1087q216 0 299 -182q70 106 160.5 144t236.5 38t236 -96t90 -280v-711h-524v600q0 90 -68 90q-51 0 -70.5 -31.5t-19.5 -91.5v-567h-524v600q0 90 -68 90q-51 0 -70.5 -31.5t-19.5 -91.5v-567h-524v1059h524l-2 -125q55 77 133 115t211 38z" />
    <glyph glyph-name="n" unicode="n" 
d="M795 592q0 98 -82 98q-109 0 -109 -131v-559h-524v1059h524l-2 -137q53 84 133 124.5t237 40.5t252 -95t95 -281v-711h-524v592z" />
    <glyph glyph-name="o" unicode="o" 
d="M231 102.5q-186 139.5 -186 418.5t188.5 422.5t465.5 143.5t463 -148.5t186 -419.5q0 -272 -184.5 -414t-466.5 -142q-280 0 -466 139.5zM697 315q67 0 94.5 48.5t27.5 163t-26.5 159.5t-93.5 45t-95.5 -46t-28.5 -161t27.5 -162t94.5 -47z" />
    <glyph glyph-name="p" unicode="p" horiz-adv-x="1400" 
d="M602 932q102 155 300 155q207 0 328.5 -132t121.5 -416q0 -283 -126 -425.5t-308 -142.5q-125 0 -197 33t-117 102v-473h-524v1426h524zM709 719q-127 0 -127 -187q0 -88 29 -146t95 -58t91.5 49t25.5 157t-28.5 146.5t-85.5 38.5z" />
    <glyph glyph-name="q" unicode="q" horiz-adv-x="1400" 
d="M500 -29q-204 0 -327.5 142t-123.5 426t128 416t312 132q125 0 194 -40.5t116 -114.5l-2 127h524v-1426h-524v473q-51 -72 -122 -103.5t-175 -31.5zM819 532q0 187 -127 187q-57 0 -85.5 -38.5t-28.5 -146.5t25 -157t91 -49t95.5 58t29.5 146z" />
    <glyph glyph-name="r" unicode="r" horiz-adv-x="1030" 
d="M872 1085q90 0 119 -20.5t43 -32.5l-137 -452h-8q-33 43 -119 43t-126 -47.5t-40 -118.5v-457h-524v1059h524l-2 -129q78 155 270 155z" />
    <glyph glyph-name="s" unicode="s" horiz-adv-x="1202" 
d="M160 385q152 -113 336 -113q108 0 130.5 11.5t22.5 25.5q0 25 -20.5 31t-127.5 16q-234 22 -339 104.5t-105 260.5q0 179 146 272.5t372 93.5q382 0 529 -102l-154 -260q-140 70 -334 70q-81 0 -81 -31q0 -20 20.5 -26.5t120.5 -18.5q256 -31 372.5 -109.5t116.5 -267.5
q0 -190 -153.5 -284.5t-440.5 -94.5q-371 0 -583 160z" />
    <glyph glyph-name="t" unicode="t" horiz-adv-x="960" 
d="M168 332v340h-137v387h137v164q202 89 327.5 162t166.5 102h30v-428h230v-387h-230v-238q0 -41 17.5 -55t68.5 -14t90 24h9v-379q-121 -39 -255 -39q-135 0 -232.5 18.5t-159.5 91.5t-62 251z" />
    <glyph glyph-name="u" unicode="u" 
d="M598 467q0 -98 82 -98q109 0 108 131v559h525v-1059h-525l3 137q-53 -84 -134 -125t-237 -41t-251 95.5t-95 281.5v711h524v-592z" />
    <glyph glyph-name="v" unicode="v" horiz-adv-x="1384" 
d="M12 1059h557l144 -459l153 459h506l-436 -1059h-500z" />
    <glyph glyph-name="w" unicode="w" horiz-adv-x="1929" 
d="M12 1059h553l92 -449l121 449h418l100 -449l119 449h502l-350 -1059h-492l-119 440l-116 -440h-492z" />
    <glyph glyph-name="x" unicode="x" horiz-adv-x="1435" 
d="M379 537l-348 522h622l109 -203l123 203h506l-357 -477l391 -582h-622l-135 238l-152 -238h-506z" />
    <glyph glyph-name="y" unicode="y" horiz-adv-x="1382" 
d="M361 -385q-157 0 -257 51v393h17q75 -55 184 -55q61 0 92 15.5t47 48.5l-432 991h557l156 -428l152 428h493l-448 -1094q-106 -254 -255 -302t-306 -48z" />
    <glyph glyph-name="z" unicode="z" horiz-adv-x="1183" 
d="M74 688v371h1052v-322l-415 -366h426v-371h-1090v334l402 354h-375z" />
    <glyph glyph-name="braceleft" unicode="{" horiz-adv-x="1017" 
d="M29 827q202 -8 202 109q0 67 -24.5 152.5t-24.5 157.5q0 71 79 217t685 163l19 -395q-129 -6 -177.5 -36t-48.5 -84t18.5 -115.5t18.5 -143.5t-55 -140.5t-172 -82.5q121 -25 174 -79t53 -130t-18.5 -166t-18.5 -139.5t47 -75t179 -33.5l-19 -395q-613 17 -688.5 165
t-75.5 218q0 95 24.5 187t24.5 126q0 70 -48 99.5t-154 25.5v395z" />
    <glyph glyph-name="bar" unicode="|" horiz-adv-x="737" 
d="M109 1665h520v-1946h-520v1946z" />
    <glyph glyph-name="braceright" unicode="}" horiz-adv-x="1017" 
d="M279 131q0 33 -18.5 122.5t-18.5 166.5q0 162 227 209q-117 25 -172 83t-55 140t18.5 143.5t18.5 115.5t-48.5 84t-177.5 36l19 395q606 -17 685 -163.5t79 -210.5t-8.5 -97t-25 -91t-16.5 -121t48.5 -91.5t154.5 -24.5v-395q-106 4 -154.5 -25.5t-48.5 -99.5
q0 -37 25 -131.5t25 -173.5q0 -180 -170.5 -280t-593.5 -111l-19 395q132 8 169.5 28.5t47 42t9.5 54.5z" />
    <glyph glyph-name="asciitilde" unicode="~" horiz-adv-x="1183" 
d="M801 449q-91 0 -170.5 30.5t-116 45t-74.5 14.5t-55.5 -22.5t-26.5 -57.5l-319 22q25 246 117 350.5t227 104.5q88 0 169 -31t117.5 -45t74.5 -14t55.5 22.5t25.5 57.5l320 -23q-25 -246 -117 -350t-227 -104z" />
    <glyph glyph-name="Zcaron" horiz-adv-x="1689" 
d="M106 1098v450h1481v-483l-741 -608h768v-457h-1538v487l743 611h-713zM1079 1632h-499l-226 387h353l127 -125l127 125h344z" />
    <glyph glyph-name="Zcaron" unicode="&#x17d;" horiz-adv-x="1689" 
d="M106 1098v450h1481v-483l-741 -608h768v-457h-1538v487l743 611h-713zM1079 1632h-499l-226 387h353l127 -125l127 125h344z" />
    <glyph glyph-name="zcaron" horiz-adv-x="1183" 
d="M74 688v371h1052v-322l-415 -366h426v-371h-1090v334l402 354h-375zM848 1141h-500l-225 387h352l127 -125l127 125h344z" />
    <glyph glyph-name="zcaron" unicode="&#x17e;" horiz-adv-x="1183" 
d="M74 688v371h1052v-322l-415 -366h426v-371h-1090v334l402 354h-375zM848 1141h-500l-225 387h352l127 -125l127 125h344z" />
    <glyph glyph-name="uni00A0" unicode="&#xa0;" horiz-adv-x="376" 
 />
    <glyph glyph-name="exclamdown" unicode="&#xa1;" horiz-adv-x="874" 
d="M760 0h-645v532l145 488h354l146 -488v-532zM717 1128h-559v420h559v-420z" />
    <glyph glyph-name="cent" unicode="&#xa2;" horiz-adv-x="1366" 
d="M209.5 919q164.5 143 417.5 164v252h192v-252q288 -34 383.5 -151t122.5 -199l-416 -149q-15 96 -96 129v-389q82 29 96 114l437 -110q-53 -162 -191.5 -252t-335.5 -109v-258h-192v258q-263 17 -422.5 156.5t-159.5 396.5q0 256 164.5 399zM633 713q-96 -37 -96 -194
t96 -193v387z" />
    <glyph glyph-name="sterling" unicode="&#xa3;" horiz-adv-x="1523" 
d="M719 974q0 -50 29 -114h399v-307h-330q-15 -76 -100 -158h749v-395h-1388v408q74 16 125 56t63 89h-203v307h121q-43 103 -43 195q0 200 166 321t529 121q362 0 490 -126t167 -214l-487 -199q-23 61 -59.5 96.5t-104.5 35.5t-95.5 -33t-27.5 -83z" />
    <glyph glyph-name="currency" unicode="&#xa4;" horiz-adv-x="1239" 
d="M612 238q-68 0 -131 12l-162 -168l-296 283l131 137q-33 82 -33 182t43 188l-121 127l297 283l158 -166q72 10 129 10t112 -12l160 168l297 -283l-119 -125q41 -88 41 -188t-37 -180l136 -141l-297 -283l-164 170q-76 -14 -144 -14zM514 684q0 -160 106 -160t105.5 118
t-24 159t-81.5 41t-82 -38t-24 -120z" />
    <glyph glyph-name="yen" unicode="&#xa5;" horiz-adv-x="1746" 
d="M1569 791v-261h-393v-106h393v-258h-393v-166h-586v166h-379v258h379v106h-379v261h250l-465 669h657l256 -436l254 436h588l-446 -669h264z" />
    <glyph glyph-name="brokenbar" unicode="&#xa6;" horiz-adv-x="737" 
d="M109 1665h520v-899h-520v899zM629 -281h-520v887h520v-887z" />
    <glyph glyph-name="section" unicode="&#xa7;" horiz-adv-x="1492" 
d="M164 1061q0 223 156.5 329.5t465.5 106.5q213 0 343.5 -46t195.5 -103l-242 -267q-124 82 -315 82q-76 0 -96.5 -12t-20.5 -36t27.5 -34t155.5 -23t255.5 -39t209 -71t119.5 -114.5t38 -157.5q0 -147 -54.5 -222t-174.5 -132q102 -94 102 -265q0 -217 -154.5 -321.5
t-451.5 -104.5t-417 61.5t-152 88.5l231 276q47 -41 134 -66.5t179 -25.5t117 13.5t25 37.5t-21.5 32t-150.5 24q-335 40 -483 120.5t-148 288.5q0 129 63.5 208t157.5 120q-94 102 -94 252zM963 545q0 61 -127 73l-265 25q-18 -4 -30.5 -21.5t-12.5 -43.5t23.5 -43
t97.5 -25l277 -27q37 18 37 62z" />
    <glyph glyph-name="dieresis" unicode="&#xa8;" horiz-adv-x="1024" 
d="M557 1532h453v-387h-453v387zM12 1532h453v-387h-453v387z" />
    <glyph glyph-name="copyright" unicode="&#xa9;" horiz-adv-x="1703" 
d="M851 -18q-167 0 -311.5 60t-252 165.5t-169 250t-61.5 311.5t61.5 311.5t169 252t253 170t313.5 62.5t313.5 -61.5t252 -169t167 -251t60.5 -310.5t-61.5 -312.5t-169 -252t-253 -166.5t-312.5 -60zM1281.5 328.5q172.5 174.5 172.5 445.5t-170.5 445t-432.5 174
q-261 0 -431 -175.5t-170 -447.5t172 -444t430 -172q257 0 429.5 174.5zM503 1121q138 132 365 132q226 0 315 -89t115 -134l-315 -190q-23 37 -44 53t-67 16t-77 -32.5t-31 -92.5q0 -139 117 -139q45 0 67.5 22.5t38.5 59.5l330 -190q-145 -234 -475 -234q-104 0 -195.5 36
t-186.5 132.5t-95 307t138 342.5z" />
    <glyph glyph-name="ordfeminine" unicode="&#xaa;" horiz-adv-x="1208" 
d="M45 803q0 300 584 317v4q1 38 -19 54t-73 16q-162 0 -254 -82l-205 234q181 151 534 151q242 0 352 -89t109 -296v-199q0 -55 45 -55q35 0 49 8h9l-50 -278q-72 -29 -188 -29q-224 0 -281 121q-103 -129 -323 -129q-116 0 -203 59q-86 59 -86 193zM461 850q0 -47 57 -47
t90 43t33 90q-88 0 -134 -24t-46 -62z" />
    <glyph glyph-name="guillemotleft" unicode="&#xab;" horiz-adv-x="1349" 
d="M633 494l184 426h488l-195 -426l195 -426h-488zM37 494l184 426h488l-195 -426l195 -426h-488z" />
    <glyph glyph-name="logicalnot" unicode="&#xac;" horiz-adv-x="1085" 
d="M539 532h-471v447h925v-713h-454v266z" />
    <glyph glyph-name="uni00AD" unicode="&#xad;" horiz-adv-x="899" 
d="M84 766h731v-447h-731v447z" />
    <glyph glyph-name="registered" unicode="&#xae;" horiz-adv-x="1124" 
d="M27 1032q0 224 153.5 380.5t381.5 156.5t382 -154t154 -380t-156 -378.5t-380 -152.5q-227 0 -381 152t-154 376zM956 1038q0 184 -105 295t-286 111t-289 -111.5t-108 -296.5t109 -296t286.5 -111t285 112.5t107.5 296.5zM829 1139q0 -101 -92 -125q68 -17 79 -81.5
t15 -96.5t13 -41v-7h-207q-7 26 -15 78t-19 62t-40 10h-37v-150h-211v512h308q109 0 157.5 -45t48.5 -116zM586 1075q25 0 36 8.5t11 30.5q0 39 -49 39h-58v-78h60z" />
    <glyph glyph-name="macron" unicode="&#xaf;" horiz-adv-x="1024" 
d="M184 1538h656v-369h-656v369z" />
    <glyph glyph-name="degree" unicode="&#xb0;" horiz-adv-x="958" 
d="M164 874.5q-123 110.5 -123 287.5q0 178 123 293.5t315.5 115.5t315.5 -113.5t123 -290.5t-125.5 -290t-315.5 -113t-313 110.5zM450.5 1312.5q-81.5 -0.5 -81.5 -144.5t110.5 -144t110.5 143q0 70 -29 108t-110.5 37.5z" />
    <glyph glyph-name="plusminus" unicode="&#xb1;" horiz-adv-x="1236" 
d="M825 508h-434v287h-297v426h297v286h434v-286h297v-426h-297v-287zM94 406h1028v-406h-1028v406z" />
    <glyph glyph-name="twosuperior" unicode="&#xb2;" horiz-adv-x="1048" 
d="M584 1147q0 45 -73 45t-112 -98l-348 118q45 127 173 201t340 74t331 -81t119 -224q0 -92 -40 -143.5t-87 -82.5q-54 -36 -143.5 -79t-94.5 -56h359v-278h-977q8 296 255.5 415t272.5 140.5t25 48.5z" />
    <glyph glyph-name="threesuperior" unicode="&#xb3;" horiz-adv-x="1062" 
d="M553 1487q432 0 432 -262q0 -74 -36 -118t-105 -73q82 -16 134 -70.5t52 -134.5q0 -152 -134 -228.5t-353 -76.5q-220 0 -347.5 87t-164.5 214l336 95q14 -51 45.5 -81t95.5 -30t85 12.5t21 54.5t-180 31v213q178 -19 178 45q0 41 -88 41t-123.5 -29.5t-52.5 -70.5
l-313 94q118 287 518 287z" />
    <glyph glyph-name="acute" unicode="&#xb4;" horiz-adv-x="1024" 
d="M283 1141l86 366h637l-310 -366h-413z" />
    <glyph glyph-name="mu" unicode="&#xb5;" horiz-adv-x="1398" 
d="M80 -367v1426h524v-592q0 -98 82 -98q109 0 109 131v559h524v-1059h-524l2 137q-71 -112 -197 -141l4 -363h-524z" />
    <glyph glyph-name="paragraph" unicode="&#xb6;" horiz-adv-x="1744" 
d="M672 573h-88q-262 0 -395.5 129.5t-133.5 341.5q0 361 210 432.5t362 71.5h983v-1548h-412v1174h-115v-1174h-411v573z" />
    <glyph glyph-name="periodcentered" unicode="&#xb7;" horiz-adv-x="784" 
d="M102 907h580v-471h-580v471z" />
    <glyph glyph-name="cedilla" unicode="&#xb8;" horiz-adv-x="1024" 
d="M885 -309q0 -240 -293 -240q-133 0 -219 51.5t-115 118.5l236 62q20 -39 76 -39t57 49q1 45 -47 45t-64 -23h-162v285h189v-98q27 16 84 16q123 0 190.5 -63.5t67.5 -163.5z" />
    <glyph glyph-name="onesuperior" unicode="&#xb9;" horiz-adv-x="755" 
d="M647 1460v-928h-434v537q-89 -49 -178 -49v272q189 34 225 168h387z" />
    <glyph glyph-name="ordmasculine" unicode="&#xba;" horiz-adv-x="1214" 
d="M208 663.5q-161 118.5 -161 352.5t162.5 357.5t398.5 123.5t397.5 -126t161.5 -355t-158.5 -350t-399.5 -121q-240 0 -401 118.5zM608 1190q-102 0 -102 -166q0 -98 25.5 -138t103.5 -40t78 135t-25.5 172t-79.5 37z" />
    <glyph glyph-name="guillemotright" unicode="&#xbb;" horiz-adv-x="1349" 
d="M1313 494l-185 -426h-487l195 426l-195 426h487zM717 494l-185 -426h-487l195 426l-195 426h487z" />
    <glyph glyph-name="onequarter" unicode="&#xbc;" horiz-adv-x="2439" 
d="M2400 408v-277h-153v-131h-439v131h-514v311q184 124 324.5 278t175.5 208h453v-520h153zM1264 1460h440l-764 -1460h-442zM647 1460v-928h-434v537q-89 -49 -178 -49v272q189 34 225 168h387zM1837 401v191q-78 -107 -207 -191h207z" />
    <glyph glyph-name="onehalf" unicode="&#xbd;" horiz-adv-x="2430" 
d="M1952 602q0 47 -73 47t-112 -98l-348 119q45 125 172 199.5t340 74.5t332 -81t119 -224q0 -147 -126 -227q-50 -32 -142 -77t-97 -56h359v-279h-977q8 297 258.5 417.5t272.5 140.5t22 44zM1264 1460h440l-764 -1460h-442zM647 1460v-928h-434v537q-89 -49 -178 -49v272
q189 34 225 168h387z" />
    <glyph glyph-name="threequarters" unicode="&#xbe;" horiz-adv-x="2686" 
d="M2648 408v-277h-154v-131h-440v131h-514v311q105 68 271.5 227.5t230.5 258.5h452v-520h154zM553 1487q432 0 432 -262q0 -74 -36 -118t-105 -73q82 -16 134 -70.5t52 -134.5q0 -152 -134 -228.5t-353 -76.5q-220 0 -347.5 87t-164.5 214l336 95q14 -51 45.5 -81
t95.5 -30t85 12.5t21 54.5t-180 31v213q178 -19 178 45q0 41 -88 41t-123.5 -29.5t-52.5 -70.5l-313 94q118 287 518 287zM1509 1460h443l-766 -1460h-441zM2083 401v191q-70 -102 -205 -191h205z" />
    <glyph glyph-name="questiondown" unicode="&#xbf;" horiz-adv-x="1488" 
d="M754 393q153 0 227 170l483 -184q-186 -408 -755 -408q-346 0 -508 121t-162 332t107 299t188.5 130t124.5 72t43 95h538v-49q0 -180 -87 -244.5t-151 -100.5t-115.5 -71t-51.5 -86q0 -76 119 -76zM1057 1128h-559v420h559v-420z" />
    <glyph glyph-name="Agrave" unicode="&#xc0;" horiz-adv-x="1982" 
d="M584 0h-564l631 1548h725l586 -1548h-653l-70 215h-577zM498 1999h637l86 -367h-414zM967 1055l-164 -451h309z" />
    <glyph glyph-name="Aacute" unicode="&#xc1;" horiz-adv-x="1982" 
d="M584 0h-564l631 1548h725l586 -1548h-653l-70 215h-577zM762 1632l86 367h637l-309 -367h-414zM967 1055l-164 -451h309z" />
    <glyph glyph-name="Acircumflex" unicode="&#xc2;" horiz-adv-x="1982" 
d="M584 0h-564l631 1548h725l586 -1548h-653l-70 215h-577zM739 2019h500l225 -387h-352l-127 125l-127 -125h-344zM967 1055l-164 -451h309z" />
    <glyph glyph-name="Atilde" unicode="&#xc3;" horiz-adv-x="1982" 
d="M584 0h-564l631 1548h725l586 -1548h-653l-70 215h-577zM1110 1950q69 0 84 63l291 -8q-18 -188 -105.5 -286.5t-210.5 -98.5q-87 0 -142.5 25.5t-82 37t-51.5 11.5q-70 0 -84 -64l-270 8q18 188 95 286.5t200 98.5q85 0 138.5 -25.5t80 -36.5t57.5 -11zM967 1055
l-164 -451h309z" />
    <glyph glyph-name="Adieresis" unicode="&#xc4;" horiz-adv-x="1982" 
d="M584 0h-564l631 1548h725l586 -1548h-653l-70 215h-577zM492 2023h452v-387h-452v387zM1036 2023h453v-387h-453v387zM967 1055l-164 -451h309z" />
    <glyph glyph-name="Aring" unicode="&#xc5;" horiz-adv-x="1982" 
d="M584 0h-564l631 1548h725l586 -1548h-653l-70 215h-577zM768.5 1687q-90.5 77 -90.5 207t90 211.5t227 81.5q136 0 229 -82t93 -207t-90 -206.5t-229 -81.5t-229.5 77zM967 1055l-164 -451h309zM997.5 1802q77.5 0 77.5 98t-77.5 98.5t-77.5 -98t77.5 -98.5z" />
    <glyph glyph-name="AE" unicode="&#xc6;" horiz-adv-x="2854" 
d="M2724 1548v-450h-828v-113h639v-403h-639v-125h881v-457h-1483v190h-565l-123 -190h-594l1032 1548h1680zM1294 580v487l-313 -487h313z" />
    <glyph glyph-name="Ccedilla" unicode="&#xc7;" horiz-adv-x="1826" 
d="M971 -356q57 0 57 47t-55 47q-39 0 -55 -23h-162v267q-322 54 -508.5 266t-186.5 526q0 190 71 340t257.5 306.5t579.5 156.5q315 0 513.5 -114.5t305.5 -356.5l-574 -219q-29 111 -83.5 161t-168.5 50t-183.5 -78t-69.5 -244q0 -334 274 -334q104 0 161.5 52.5
t86.5 158.5l571 -192q-107 -253 -300 -375.5t-525 -122.5h-33v-61q27 16 84 16q123 0 190.5 -63.5t67.5 -163.5q0 -240 -293 -240q-133 0 -219 51.5t-115 118.5l236 62q19 -39 76 -39z" />
    <glyph glyph-name="Egrave" unicode="&#xc8;" horiz-adv-x="1689" 
d="M135 1548h1430v-450h-828v-113h639v-403h-639v-125h881v-457h-1483v1548zM389 1999h637l86 -367h-414z" />
    <glyph glyph-name="Eacute" unicode="&#xc9;" horiz-adv-x="1689" 
d="M135 1548h1430v-450h-828v-113h639v-403h-639v-125h881v-457h-1483v1548zM635 1632l86 367h637l-309 -367h-414z" />
    <glyph glyph-name="Ecircumflex" unicode="&#xca;" horiz-adv-x="1689" 
d="M135 1548h1430v-450h-828v-113h639v-403h-639v-125h881v-457h-1483v1548zM618 2019h500l225 -387h-352l-127 125l-127 -125h-344z" />
    <glyph glyph-name="Edieresis" unicode="&#xcb;" horiz-adv-x="1689" 
d="M135 1548h1430v-450h-828v-113h639v-403h-639v-125h881v-457h-1483v1548zM362 2023h453v-387h-453v387zM907 2023h453v-387h-453v387z" />
    <glyph glyph-name="Igrave" unicode="&#xcc;" horiz-adv-x="903" 
d="M143 1548h617v-1548h-617v1548zM-43 1999h637l86 -367h-414z" />
    <glyph glyph-name="Iacute" unicode="&#xcd;" horiz-adv-x="903" 
d="M143 1548h617v-1548h-617v1548zM221 1632l86 367h637l-309 -367h-414z" />
    <glyph glyph-name="Icircumflex" unicode="&#xce;" horiz-adv-x="903" 
d="M143 1548h617v-1548h-617v1548zM201 2019h499l226 -387h-353l-127 125l-127 -125h-344z" />
    <glyph glyph-name="Idieresis" unicode="&#xcf;" horiz-adv-x="903" 
d="M143 1548h617v-1548h-617v1548zM-49 2023h452v-387h-452v387zM496 2023h452v-387h-452v387z" />
    <glyph glyph-name="Eth" unicode="&#xd0;" horiz-adv-x="1906" 
d="M27 563v426h133v559h776q438 0 673.5 -195.5t235.5 -565.5t-235.5 -578.5t-683.5 -208.5h-766v563h-133zM940 989v-426h-176v-114h154q147 0 220.5 74.5t73.5 252.5q0 261 -114.5 292.5t-184.5 31.5h-149v-111h176z" />
    <glyph glyph-name="Ntilde" unicode="&#xd1;" horiz-adv-x="1951" 
d="M135 1548h686l467 -714l-16 714h545v-1548h-648l-507 772l18 -772h-545v1548zM1094 1950q67 0 84 63l290 -8q-18 -188 -105 -286.5t-210 -98.5q-86 0 -142.5 25.5t-83 37t-50.5 11.5q-70 0 -84 -64l-271 8q18 188 95 286.5t200 98.5q84 0 138.5 -25.5t81 -36.5t57.5 -11z
" />
    <glyph glyph-name="Ograve" unicode="&#xd2;" horiz-adv-x="1949" 
d="M61 774q0 193 73 342.5t263.5 305t587.5 155.5t650 -209t253 -588q0 -380 -252.5 -598.5t-668.5 -218.5t-661 221.5t-245 589.5zM977 432q129 0 203.5 91t74.5 254t-77.5 251t-204.5 88t-203 -88t-76 -253t77 -254t206 -89zM461 1999h637l86 -367h-414z" />
    <glyph glyph-name="Oacute" unicode="&#xd3;" horiz-adv-x="1949" 
d="M61 774q0 193 73 342.5t263.5 305t587.5 155.5t650 -209t253 -588q0 -380 -252.5 -598.5t-668.5 -218.5t-661 221.5t-245 589.5zM977 432q129 0 203.5 91t74.5 254t-77.5 251t-204.5 88t-203 -88t-76 -253t77 -254t206 -89zM770 1632l86 367h637l-309 -367h-414z" />
    <glyph glyph-name="Ocircumflex" unicode="&#xd4;" horiz-adv-x="1949" 
d="M61 774q0 193 73 342.5t263.5 305t587.5 155.5t650 -209t253 -588q0 -380 -252.5 -598.5t-668.5 -218.5t-661 221.5t-245 589.5zM977 432q129 0 203.5 91t74.5 254t-77.5 251t-204.5 88t-203 -88t-76 -253t77 -254t206 -89zM725 2019h500l225 -387h-352l-127 125
l-127 -125h-344z" />
    <glyph glyph-name="Otilde" unicode="&#xd5;" horiz-adv-x="1949" 
d="M61 774q0 193 73 342.5t263.5 305t587.5 155.5t650 -209t253 -588q0 -380 -252.5 -598.5t-668.5 -218.5t-661 221.5t-245 589.5zM977 432q129 0 203.5 91t74.5 254t-77.5 251t-204.5 88t-203 -88t-76 -253t77 -254t206 -89zM1073 1950q69 0 84 63l291 -8
q-18 -188 -105 -286.5t-210 -98.5q-88 0 -143.5 25.5t-82 37t-51.5 11.5q-70 0 -84 -64l-270 8q18 188 95 286.5t200 98.5q85 0 138.5 -25.5t80 -36.5t57.5 -11z" />
    <glyph glyph-name="Odieresis" unicode="&#xd6;" horiz-adv-x="1949" 
d="M61 774q0 193 73 342.5t263.5 305t587.5 155.5t650 -209t253 -588q0 -380 -252.5 -598.5t-668.5 -218.5t-661 221.5t-245 589.5zM977 432q129 0 203.5 91t74.5 254t-77.5 251t-204.5 88t-203 -88t-76 -253t77 -254t206 -89zM1020 2023h453v-387h-453v387zM475 2023h453
v-387h-453v387z" />
    <glyph glyph-name="multiply" unicode="&#xd7;" horiz-adv-x="1193" 
d="M80 864l272 293l244 -233l246 233l272 -293l-227 -215l227 -215l-272 -293l-244 232l-246 -232l-272 293l227 215z" />
    <glyph glyph-name="Oslash" unicode="&#xd8;" horiz-adv-x="1949" 
d="M1888 786q0 -386 -252.5 -604.5t-670.5 -218.5q-293 0 -502 113l-76 -76h-364l233 233q-195 216 -195 541q0 193 73 342.5t263.5 305t577.5 155.5q292 0 508 -111l82 82h362l-235 -235q196 -204 196 -527zM682 776q0 -44 10 -104l418 420q-61 31 -137 30q-127 0 -209 -85
t-82 -261zM977 426q129 0 210 88t81 262q0 59 -8 101l-420 -422q63 -29 137 -29z" />
    <glyph glyph-name="Ugrave" unicode="&#xd9;" horiz-adv-x="1892" 
d="M942 -37q-411 0 -617 169.5t-206 535.5v880h616v-860q0 -129 43 -184t168 -55t168 59t43 180v860h617v-880q0 -549 -316.5 -627t-515.5 -78zM428 1999h637l86 -367h-414z" />
    <glyph glyph-name="Uacute" unicode="&#xda;" horiz-adv-x="1892" 
d="M942 -37q-411 0 -617 169.5t-206 535.5v880h616v-860q0 -129 43 -184t168 -55t168 59t43 180v860h617v-880q0 -549 -316.5 -627t-515.5 -78zM743 1632l86 367h637l-309 -367h-414z" />
    <glyph glyph-name="Ucircumflex" unicode="&#xdb;" horiz-adv-x="1892" 
d="M942 -37q-411 0 -617 169.5t-206 535.5v880h616v-860q0 -129 43 -184t168 -55t168 59t43 180v860h617v-880q0 -549 -316.5 -627t-515.5 -78zM696 2019h500l225 -387h-352l-127 125l-127 -125h-344z" />
    <glyph glyph-name="Udieresis" unicode="&#xdc;" horiz-adv-x="1892" 
d="M942 -37q-411 0 -617 169.5t-206 535.5v880h616v-860q0 -129 43 -184t168 -55t168 59t43 180v860h617v-880q0 -549 -316.5 -627t-515.5 -78zM446 2023h453v-387h-453v387zM991 2023h453v-387h-453v387z" />
    <glyph glyph-name="Yacute" unicode="&#xdd;" horiz-adv-x="1839" 
d="M1237 0h-616v606l-625 942h692l273 -426l264 426h618l-606 -948v-600zM731 1632l86 367h637l-309 -367h-414z" />
    <glyph glyph-name="Thorn" unicode="&#xde;" horiz-adv-x="1816" 
d="M1092 1364q482 0 575.5 -206t93.5 -350q0 -283 -170.5 -419.5t-478.5 -136.5h-360v-252h-617v1548h617v-184h340zM1057 690q111 0 110 117q0 51 -27.5 81t-80.5 30h-307v-228h305z" />
    <glyph glyph-name="germandbls" unicode="&#xdf;" horiz-adv-x="1402" 
d="M680 1042q92 8 92 100q0 93 -84 93t-84 -100v-1135h-524v1085q0 261 169 376.5t440 115.5t422 -96.5t151 -292.5q0 -111 -53.5 -178.5t-143.5 -91.5q127 -36 212 -152t85 -305q0 -242 -122 -363t-335 -121q-161 0 -227 33v352h4q25 -10 41 -10q49 0 81 41t32 125
q0 149 -39.5 195.5t-116.5 42.5v286z" />
    <glyph glyph-name="agrave" unicode="&#xe0;" horiz-adv-x="1384" 
d="M1237 397q0 -69 50 -69q26 0 54 14h9l-58 -330q-87 -34 -219 -35q-260 0 -311 136q-105 -144 -362 -144t-332 163q-27 56 -27 144q0 259 402 331q128 24 288 36v4q0 43 -20 61t-86 19q-177 0 -303 -98l-240 278q213 180 604 180q306 0 429 -104q122 -104 122 -350v-236z
M178 1507h637l86 -366h-414zM512 313q0 -53 78 -53t118 49t40 107q-104 0 -170 -28t-66 -75z" />
    <glyph glyph-name="aacute" unicode="&#xe1;" horiz-adv-x="1384" 
d="M1237 397q0 -69 50 -69q26 0 54 14h9l-58 -330q-87 -34 -219 -35q-260 0 -311 136q-105 -144 -362 -144t-332 163q-27 56 -27 144q0 259 402 331q128 24 288 36v4q0 43 -20 61t-86 19q-177 0 -303 -98l-240 278q213 180 604 180q306 0 429 -104q122 -104 122 -350v-236z
M434 1141l86 366h637l-309 -366h-414zM512 313q0 -53 78 -53t118 49t40 107q-104 0 -170 -28t-66 -75z" />
    <glyph glyph-name="acircumflex" unicode="&#xe2;" horiz-adv-x="1384" 
d="M1237 397q0 -69 50 -69q26 0 54 14h9l-58 -330q-87 -34 -219 -35q-260 0 -311 136q-105 -144 -362 -144t-332 163q-27 56 -27 144q0 259 402 331q128 24 288 36v4q0 43 -20 61t-86 19q-177 0 -303 -98l-240 278q213 180 604 180q306 0 429 -104q122 -104 122 -350v-236z
M432 1528h500l225 -387h-352l-127 125l-127 -125h-344zM512 313q0 -53 78 -53t118 49t40 107q-104 0 -170 -28t-66 -75z" />
    <glyph glyph-name="atilde" unicode="&#xe3;" horiz-adv-x="1384" 
d="M1237 397q0 -69 50 -69q26 0 54 14h9l-58 -330q-87 -34 -219 -35q-260 0 -311 136q-105 -144 -362 -144t-332 163q-27 56 -27 144q0 259 402 331q128 24 288 36v4q0 43 -20 61t-86 19q-177 0 -303 -98l-240 278q213 180 604 180q306 0 429 -104q122 -104 122 -350v-236z
M774 1458q70 0 84 64l291 -9q-18 -189 -105 -287t-210 -98q-85 0 -142 26t-84 36q-27 12 -51 12q-68 0 -84 -63l-270 8q18 189 95 287t200 98q87 0 161 -37q31 -13 58 -25t57 -12zM512 313q0 -53 78 -53t118 49t40 107q-104 0 -170 -28t-66 -75z" />
    <glyph glyph-name="adieresis" unicode="&#xe4;" horiz-adv-x="1384" 
d="M41 276q0 176 171 258.5t519 108.5v4q0 43 -20.5 61.5t-85.5 18.5q-180 0 -303 -98l-240 278q213 180 604 180q308 0 429.5 -104t121.5 -350v-236q0 -69 55 -69q21 0 49 14h9l-58 -330q-90 -35 -219 -35q-260 0 -311 136q-105 -144 -361 -144t-308 109.5t-52 197.5z
M178 1532h453v-387h-453v387zM723 1532h453v-387h-453v387zM512 313q0 -53 78 -53t118 49t40 107q-104 0 -170 -28t-66 -75z" />
    <glyph glyph-name="aring" unicode="&#xe5;" horiz-adv-x="1384" 
d="M1237 397q0 -69 50 -69q26 0 54 14h9l-58 -330q-87 -34 -219 -35q-260 0 -311 136q-105 -144 -362 -144t-332 163q-27 56 -27 144q0 259 402 331q128 24 288 36v4q0 43 -20 61t-86 19q-177 0 -303 -98l-240 278q213 180 604 180q306 0 429 -104q122 -104 122 -350v-236z
M454 1207q-91 79 -90 207q1 129 91 210q90 82 225 82t229 -83q95 -83 95 -206q0 -124 -91 -207q-91 -82 -229 -82q-139 0 -230 79zM512 313q0 -53 78 -53t118 49t40 107q-104 0 -170 -28t-66 -75zM684 1321q78 0 78 98t-78 99q-78 0 -78 -98t78 -99z" />
    <glyph glyph-name="ae" unicode="&#xe6;" horiz-adv-x="2023" 
d="M432 -31q-186 0 -289 70q-102 70 -102 229q0 267 402 339q128 24 288 36v4q0 43 -20 61t-86 19q-177 0 -303 -98l-240 278q213 180 604 180q225 0 336 -86q145 86 336 86q301 0 454 -137q190 -168 162 -520h-733q16 -70 59 -92t105 -23q102 0 147 64l430 -119
q-68 -141 -204 -219t-371 -78q-359 0 -516 187q-142 -181 -459 -181zM512 313q0 -53 78 -53t118 49t40 107q-104 0 -170 -28t-66 -75zM1495 662q-10 61 -39 88q-29 26 -83 26t-85 -24t-43 -90h250z" />
    <glyph glyph-name="ccedilla" unicode="&#xe7;" horiz-adv-x="1316" 
d="M817 573q-21 142 -103 142q-66 0 -98 -39t-32 -124q0 -143 30.5 -184.5t90.5 -41.5q90 0 112 123l483 -111q-99 -375 -612 -375v-61q27 16 84 16q123 0 190.5 -63.5t67.5 -163.5q0 -240 -293 -240q-133 0 -219 51.5t-115 118.5l236 62q20 -39 76 -39q57 0 57 47t-55 47
q-39 0 -55 -23h-162v267q-323 65 -389 242.5t-66 309.5t51 239.5t183.5 210.5t416.5 103q473 0 584 -364z" />
    <glyph glyph-name="egrave" unicode="&#xe8;" horiz-adv-x="1335" 
d="M717 315q102 0 147 64l430 -119q-68 -141 -204 -219t-371 -78q-307 0 -491 141q-183 141 -183 421q0 279 191 428q170 136 452 135q283 -1 436 -138q188 -166 162 -520h-733q16 -70 59 -92t105 -23zM166 1507h637l86 -366h-414zM807 662q-10 61 -39 88q-29 26 -83 26
t-85 -24t-43 -90h250z" />
    <glyph glyph-name="eacute" unicode="&#xe9;" horiz-adv-x="1335" 
d="M717 315q102 0 147 64l430 -119q-68 -141 -204 -219t-371 -78q-307 0 -491 141q-183 141 -183 421q0 279 191 428q170 136 452 135q283 -1 436 -138q188 -166 162 -520h-733q16 -70 59 -92t105 -23zM455 1141l86 366h637l-310 -366h-413zM807 662q-10 61 -39 88
q-29 26 -83 26t-85 -24t-43 -90h250z" />
    <glyph glyph-name="ecircumflex" unicode="&#xea;" horiz-adv-x="1335" 
d="M717 315q102 0 147 64l430 -119q-68 -141 -204 -219t-371 -78q-307 0 -491 141q-183 141 -183 421q0 279 191 428q170 136 452 135q283 -1 436 -138q188 -166 162 -520h-733q16 -70 59 -92t105 -23zM418 1528h500l225 -387h-352l-127 125l-127 -125h-344zM807 662
q-10 61 -39 88q-29 26 -83 26t-85 -24t-43 -90h250z" />
    <glyph glyph-name="edieresis" unicode="&#xeb;" horiz-adv-x="1335" 
d="M717 315q102 0 147 64l430 -119q-68 -141 -204 -219t-371 -78q-307 0 -491 141q-183 141 -183 421q0 279 191 428q170 136 452 135q283 -1 436 -138q188 -166 162 -520h-733q16 -70 59 -92t105 -23zM168 1532h453v-387h-453v387zM713 1532h452v-387h-452v387zM807 662
q-10 61 -39 88q-29 26 -83 26t-85 -24t-43 -90h250z" />
    <glyph glyph-name="igrave" unicode="&#xec;" horiz-adv-x="704" 
d="M90 1059h524v-1059h-524v1059zM-141 1507h637l86 -366h-414z" />
    <glyph glyph-name="iacute" unicode="&#xed;" horiz-adv-x="704" 
d="M90 1059h524v-1059h-524v1059zM123 1141l86 366h637l-309 -366h-414z" />
    <glyph glyph-name="icircumflex" unicode="&#xee;" horiz-adv-x="704" 
d="M90 1059h524v-1059h-524v1059zM102 1528h500l225 -387h-352l-127 125l-127 -125h-344z" />
    <glyph glyph-name="idieresis" unicode="&#xef;" horiz-adv-x="704" 
d="M90 1059h524v-1059h-524v1059zM-147 1532h452v-387h-452v387zM397 1532h453v-387h-453v387z" />
    <glyph glyph-name="eth" unicode="&#xf0;" horiz-adv-x="1394" 
d="M1350 616q0 -311 -164 -482t-478 -171t-488.5 145t-174.5 393q0 249 142.5 383t359.5 134q145 0 229 -53q-44 79 -133 168l-78 -80l-172 161l70 72q-66 46 -92 66l221 260q26 -13 127 -68l96 98l172 -161l-65 -68q213 -158 320.5 -350.5t107.5 -446.5zM695 315
q73 0 99.5 44t26.5 146.5t-25.5 148.5t-97.5 46t-97.5 -44t-25.5 -148.5t23.5 -148.5t96.5 -44z" />
    <glyph glyph-name="ntilde" unicode="&#xf1;" 
d="M795 592q0 98 -82 98q-109 0 -109 -131v-559h-524v1059h524l-2 -137q53 84 133 124.5t237 40.5t252 -95t95 -281v-711h-524v592zM803 1458q70 0 84 64l291 -9q-18 -188 -105.5 -286.5t-210.5 -98.5q-85 0 -165.5 37t-110.5 37q-69 0 -84 -63l-271 8q18 188 95 286.5
t200 98.5q80 0 136.5 -25.5t83 -37t57.5 -11.5z" />
    <glyph glyph-name="ograve" unicode="&#xf2;" 
d="M231 102.5q-186 139.5 -186 418.5t188.5 422.5t465.5 143.5t463 -148.5t186 -419.5q0 -272 -184.5 -414t-466.5 -142q-280 0 -466 139.5zM203 1507h637l86 -366h-414zM697 315q67 0 94.5 48.5t27.5 163t-26.5 159.5t-93.5 45t-95.5 -46t-28.5 -161t27.5 -162t94.5 -47z
" />
    <glyph glyph-name="oacute" unicode="&#xf3;" 
d="M231 102.5q-186 139.5 -186 418.5t188.5 422.5t465.5 143.5t463 -148.5t186 -419.5q0 -272 -184.5 -414t-466.5 -142q-280 0 -466 139.5zM489 1141l86 366h637l-309 -366h-414zM697 315q67 0 94.5 48.5t27.5 163t-26.5 159.5t-93.5 45t-95.5 -46t-28.5 -161t27.5 -162
t94.5 -47z" />
    <glyph glyph-name="ocircumflex" unicode="&#xf4;" 
d="M231 102.5q-186 139.5 -186 418.5t188.5 422.5t465.5 143.5t463 -148.5t186 -419.5q0 -272 -184.5 -414t-466.5 -142q-280 0 -466 139.5zM446 1528h500l225 -387h-352l-127 125l-127 -125h-344zM697 315q67 0 94.5 48.5t27.5 163t-26.5 159.5t-93.5 45t-95.5 -46
t-28.5 -161t27.5 -162t94.5 -47z" />
    <glyph glyph-name="otilde" unicode="&#xf5;" 
d="M697 -37q-279 0 -455 131q-197 149 -197 428t198 428q181 139 457 138t461 -149t187 -411q0 -150 -53 -256q-103 -208 -349 -276q-119 -32 -249 -33zM795 1458q67 0 84 64l290 -9q-18 -189 -105 -287t-210 -98q-82 0 -141 26t-85 36q-26 12 -50 12q-70 0 -84 -63l-271 8
q18 189 95 287t200 98q86 0 162 -37q32 -13 58 -25t57 -12zM699 731q-67 0 -95 -46t-29 -161t27 -162t95 -47q67 1 95 49t28 162t-27 160q-27 45 -94 45z" />
    <glyph glyph-name="odieresis" unicode="&#xf6;" 
d="M231 102.5q-186 139.5 -186 418.5t188.5 422.5t465.5 143.5t463 -148.5t186 -419.5q0 -272 -184.5 -414t-466.5 -142q-280 0 -466 139.5zM197 1532h452v-387h-452v387zM741 1532h453v-387h-453v387zM697 315q67 0 94.5 48.5t27.5 163t-26.5 159.5t-93.5 45t-95.5 -46
t-28.5 -161t27.5 -162t94.5 -47z" />
    <glyph glyph-name="divide" unicode="&#xf7;" horiz-adv-x="1296" 
d="M94 920h1108v-426h-1108v426zM389 401h518v-401h-518v401zM389 1413h518v-401h-518v401z" />
    <glyph glyph-name="oslash" unicode="&#xf8;" 
d="M1348 528q0 -281 -194 -431q-173 -134 -458 -134q-216 0 -372 80l-45 -43h-273l166 158q-127 142 -127 358q0 286 198 434q181 139 455 137q207 0 361 -81l55 53h272l-174 -166q136 -147 136 -365zM710 299q136 0 136 227v17l-234 -224q32 -20 98 -20zM549 528v-10
l223 215q-26 15 -88 15q-134 2 -135 -220z" />
    <glyph glyph-name="ugrave" unicode="&#xf9;" 
d="M598 467q0 -98 82 -98q109 0 108 131v559h525v-1059h-525l3 137q-53 -84 -134 -125t-237 -41t-251 95.5t-95 281.5v711h524v-592zM193 1507h636l86 -366h-413z" />
    <glyph glyph-name="uacute" unicode="&#xfa;" 
d="M598 467q0 -98 82 -98q109 0 108 131v559h525v-1059h-525l3 137q-53 -84 -134 -125t-237 -41t-251 95.5t-95 281.5v711h524v-592zM471 1141l86 366h637l-309 -366h-414z" />
    <glyph glyph-name="ucircumflex" unicode="&#xfb;" 
d="M598 467q0 -98 82 -98q109 0 108 131v559h525v-1059h-525l3 137q-53 -84 -134 -125t-237 -41t-251 95.5t-95 281.5v711h524v-592zM446 1528h500l225 -387h-352l-127 125l-127 -125h-344z" />
    <glyph glyph-name="udieresis" unicode="&#xfc;" 
d="M598 467q0 -98 82 -98q109 0 108 131v559h525v-1059h-525l3 137q-53 -84 -134 -125t-237 -41t-251 95.5t-95 281.5v711h524v-592zM195 1532h452v-387h-452v387zM739 1532h453v-387h-453v387z" />
    <glyph glyph-name="yacute" unicode="&#xfd;" horiz-adv-x="1382" 
d="M361 -385q-157 0 -257 51v393h17q75 -55 184 -55q61 0 92 15.5t47 48.5l-432 991h557l156 -428l152 428h493l-448 -1094q-106 -254 -255 -302t-306 -48zM500 1141l86 366h637l-310 -366h-413z" />
    <glyph glyph-name="thorn" unicode="&#xfe;" horiz-adv-x="1400" 
d="M604 936q102 151 298 151q207 0 328.5 -132t121.5 -416q0 -283 -126 -425.5t-308 -142.5q-125 0 -197 33t-117 102v-473h-524v1915h524v-612zM709 719q-127 0 -127 -187q0 -88 29 -146t95 -58t91.5 49t25.5 157t-28.5 146.5t-85.5 38.5z" />
    <glyph glyph-name="ydieresis" unicode="&#xff;" horiz-adv-x="1382" 
d="M361 -385q-157 0 -257 51v393h17q75 -55 184 -55q61 0 92 15.5t47 48.5l-432 991h557l156 -428l152 428h493l-448 -1094q-106 -254 -255 -302t-306 -48zM215 1532h453v-387h-453v387zM760 1532h452v-387h-452v387z" />
    <glyph glyph-name="OE" unicode="&#x152;" horiz-adv-x="2795" 
d="M2482 985v-403h-614q-19 -78 -39 -125h895v-457h-1446q-144 -37 -332 -37t-355 57.5t-348.5 221.5t-181.5 532q0 193 73 342.5t263.5 305t577.5 155.5q143 0 276 -29h1420v-450h-840q29 -84 35 -113h616zM977 432q129 0 203.5 91t74.5 254t-77.5 251t-204.5 88t-203 -88
t-76 -253t77 -254t206 -89z" />
    <glyph glyph-name="oe" unicode="&#x153;" horiz-adv-x="2117" 
d="M1482 -37q-253 0 -399 107q-147 -106 -406 -106t-445.5 139t-186.5 418t188.5 422.5t441.5 143.5q254 0 404 -112q141 113 373 112q300 0 472 -152t144 -505h-733q16 -70 59.5 -92.5t105 -22.5t93 16.5t54.5 47.5l430 -119q-68 -141 -205 -219t-390 -78zM697 315
q67 0 94.5 48.5t27.5 163t-26.5 159.5t-93.5 45t-95.5 -46t-28.5 -161t27.5 -162t94.5 -47zM1468 776q-54 0 -85 -24.5t-44 -89.5h250q-10 61 -38.5 87.5t-82.5 26.5z" />
    <glyph glyph-name="Scaron" unicode="&#x160;" horiz-adv-x="1679" 
d="M840 1163q-104 0 -139 -12t-35 -35q0 -18 8 -28.5t41 -19.5t200 -23q359 -30 537 -154t178 -393t-208.5 -402t-563.5 -133q-540 0 -848 236l295 348q108 -87 228.5 -124.5t308.5 -37.5t188 57q0 36 -36 48t-200 28q-370 36 -544 150.5t-174 387.5q0 274 188.5 397.5
t542.5 123.5q468 0 721 -170l-254 -346q-143 102 -434 102zM1042 1632h-499l-226 387h353l127 -125l127 125h344z" />
    <glyph glyph-name="scaron" unicode="&#x161;" horiz-adv-x="1202" 
d="M160 385q152 -113 336 -113q108 0 130.5 11.5t22.5 25.5q0 25 -20.5 31t-127.5 16q-234 22 -339 104.5t-105 260.5q0 179 146 272.5t372 93.5q382 0 529 -102l-154 -260q-140 70 -334 70q-81 0 -81 -31q0 -20 20.5 -26.5t120.5 -18.5q256 -31 372.5 -109.5t116.5 -267.5
q0 -190 -153.5 -284.5t-440.5 -94.5q-371 0 -583 160zM862 1141h-500l-225 387h352l127 -125l127 125h344z" />
    <glyph glyph-name="Ydieresis" unicode="&#x178;" horiz-adv-x="1839" 
d="M1237 0h-616v606l-625 942h692l273 -426l264 426h618l-606 -948v-600zM453 2023h452v-387h-452v387zM997 2023h453v-387h-453v387z" />
    <glyph glyph-name="florin" unicode="&#x192;" horiz-adv-x="1058" 
d="M117 -16q68 0 73 67l48 559h-150v387h182l19 226q16 195 140 277.5t319 82.5t337 -61l-92 -342h-4q-37 37 -103 37t-73 -68l-12 -152h170v-387h-203l-53 -633q-22 -284 -184 -322t-298 -38t-262 53l60 334h4q40 -20 82 -20z" />
    <glyph glyph-name="circumflex" unicode="&#x2c6;" horiz-adv-x="1024" 
d="M262 1528h500l225 -387h-352l-127 125l-127 -125h-344z" />
    <glyph glyph-name="uni02C9" unicode="&#x2c9;" horiz-adv-x="1024" 
d="M184 1538h656v-369h-656v369z" />
    <glyph glyph-name="tilde" unicode="&#x2dc;" horiz-adv-x="1024" 
d="M610 1458q70 0 84 64l291 -9q-18 -188 -105 -286.5t-210 -98.5q-84 0 -141.5 26t-84 37t-51.5 11q-69 0 -84 -63l-270 8q18 188 95 286.5t200 98.5q81 0 136.5 -25.5t82.5 -37t57 -11.5z" />
    <glyph glyph-name="Delta" unicode="&#x394;" horiz-adv-x="1982" 
d="M651 1548h725l586 -1548h-1942zM967 1055l-230 -633h434z" />
    <glyph glyph-name="Omega" unicode="&#x3a9;" horiz-adv-x="1998" 
d="M1960 0h-901v483q148 36 169 146t21 192q0 154 -67.5 224.5t-182 70.5t-182 -74.5t-67.5 -228.5t46.5 -226.5t147.5 -103.5v-483h-905v444l309 -8q-211 155 -211 462t234.5 493t628.5 186t628 -181t234 -493t-246 -469l344 10v-444z" />
    <glyph glyph-name="uni03BC" unicode="&#x3bc;" horiz-adv-x="1398" 
d="M80 -367v1426h524v-592q0 -100 82 -98q109 0 109 131v559h524v-1059h-524l2 137q-71 -112 -197 -141l4 -363h-524z" />
    <glyph glyph-name="endash" unicode="&#x2013;" horiz-adv-x="1226" 
d="M84 809h1059v-401h-1059v401z" />
    <glyph glyph-name="emdash" unicode="&#x2014;" horiz-adv-x="1830" 
d="M84 809h1663v-401h-1663v401z" />
    <glyph glyph-name="quoteleft" unicode="&#x2018;" horiz-adv-x="737" 
d="M647 1202v-426h-557v348q0 186 142 311.5t413 133.5v-228q-92 -10 -159.5 -50t-73.5 -89h235z" />
    <glyph glyph-name="quoteright" unicode="&#x2019;" horiz-adv-x="737" 
d="M90 1122v426h557v-348q0 -188 -144 -314t-411 -130v227q92 10 159.5 50t74.5 89h-236z" />
    <glyph glyph-name="quotesinglbase" unicode="&#x201a;" horiz-adv-x="737" 
d="M90 0v426h557v-348q0 -188 -144.5 -314.5t-410.5 -130.5v228q92 10 159.5 50t74.5 89h-236z" />
    <glyph glyph-name="quotedblleft" unicode="&#x201c;" horiz-adv-x="1437" 
d="M1348 1202v-426h-557v348q0 187 141.5 312t413.5 133v-228q-92 -10 -160 -50t-74 -89h236zM647 1202v-426h-557v348q0 186 142 311.5t413 133.5v-228q-92 -10 -159.5 -50t-73.5 -89h235z" />
    <glyph glyph-name="quotedblright" unicode="&#x201d;" horiz-adv-x="1437" 
d="M791 1122v426h557v-348q0 -186 -144 -313t-411 -131v227q92 10 159.5 50t73.5 89h-235zM90 1122v426h557v-348q0 -188 -144 -314t-411 -130v227q92 10 159.5 50t74.5 89h-236z" />
    <glyph glyph-name="quotedblbase" unicode="&#x201e;" horiz-adv-x="1437" 
d="M791 0v426h557v-348q0 -186 -144.5 -313.5t-410.5 -131.5v228q92 10 159.5 50t73.5 89h-235zM90 0v426h557v-348q0 -188 -144.5 -314.5t-410.5 -130.5v228q92 10 159.5 50t74.5 89h-236z" />
    <glyph glyph-name="dagger" unicode="&#x2020;" horiz-adv-x="1155" 
d="M43 825v432h283v291h503v-291h283v-432h-283v-825h-503v825h-283z" />
    <glyph glyph-name="daggerdbl" unicode="&#x2021;" horiz-adv-x="1155" 
d="M43 825v432h283v291h503v-291h283v-432h-283v-102h283v-432h-283v-291h-503v291h-283v432h283v102h-283z" />
    <glyph glyph-name="bullet" unicode="&#x2022;" horiz-adv-x="1024" 
d="M513 303q-103 0 -188 35t-145.5 96.5t-94.5 143t-34 176t33 179.5t94.5 147.5t146.5 99.5t189 37t189 -36t145.5 -98.5t93.5 -146.5t31 -180.5t-35 -179t-92.5 -143t-144.5 -95.5t-188 -35z" />
    <glyph glyph-name="ellipsis" unicode="&#x2026;" horiz-adv-x="2189" 
d="M1528 471h559v-471h-559v471zM102 471h560v-471h-560v471zM815 471h559v-471h-559v471z" />
    <glyph glyph-name="perthousand" unicode="&#x2030;" horiz-adv-x="3801" 
d="M180 682q-139 133 -139 341t150 341t393.5 133t392.5 -125.5t149 -338.5q0 -214 -143.5 -349t-403.5 -135t-399 133zM1524 437q0 209 149.5 341.5t394 132.5t393 -127.5t148.5 -339.5t-144 -346.5t-404 -134.5t-398.5 132.5t-138.5 341.5zM2675 437q0 209 149.5 341.5
t394 132.5t393 -127.5t148.5 -338.5t-144 -346.5t-404 -135.5t-398.5 132.5t-138.5 341.5zM1503 1460h439l-797 -1460h-436zM2066 274q97 0 97 130.5t-26 165t-73 34.5t-70.5 -35t-23.5 -129t23.5 -130t72.5 -36zM3217 274q97 0 97 130.5t-26 165t-73 34.5t-70.5 -35
t-23.5 -129t23.5 -130t72.5 -36zM583 862q48 0 72.5 37t24.5 129t-25.5 127t-72.5 35t-71 -35t-24 -129t24 -129t72 -35z" />
    <glyph glyph-name="guilsinglleft" unicode="&#x2039;" horiz-adv-x="753" 
d="M37 494l184 426h488l-195 -426l195 -426h-488z" />
    <glyph glyph-name="guilsinglright" unicode="&#x203a;" horiz-adv-x="753" 
d="M717 494l-185 -426h-487l195 426l-195 426h487z" />
    <glyph glyph-name="fraction" unicode="&#x2044;" horiz-adv-x="1093" 
d="M725 1460h438l-796 -1460h-437z" />
    <glyph glyph-name="Euro" unicode="&#x20ac;" horiz-adv-x="1681" 
d="M145 700v62h-114v207h141q63 256 260 392t486 136q290 1 462 -107t269 -327l-510 -205q-23 104 -69 156t-124 53q-78 0 -118 -23q-42 -23 -64 -75h227v-207h-262q-2 -16 -1 -32t1 -30h262v-206h-223q48 -96 158 -96t157 46q47 47 70 164l504 -178q-83 -236 -237 -342
q-177 -123 -493 -123q-315 0 -505 141t-250 388h-141v206h114z" />
    <glyph glyph-name="trademark" unicode="&#x2122;" horiz-adv-x="1896" 
d="M866 1548h363l106 -370l99 370h378v-680h-268v322l-106 -322h-221l-97 322v-322h-254v680zM256 1309h-215v239h731v-239h-209v-441h-307v441z" />
    <glyph glyph-name="uni2126" unicode="&#x2126;" horiz-adv-x="1998" 
d="M1960 0h-901v483q148 36 179 198q11 58 11 140q0 154 -67 225q-68 70 -183 70t-183 -75t-66 -229q0 -154 48 -228q48 -73 146 -101v-483h-905v444l309 -8q-209 154 -210 462t234 494q235 185 629 185t626 -180q233 -180 234 -493t-245 -470l344 10v-444z" />
    <glyph glyph-name="uni2206" unicode="&#x2206;" horiz-adv-x="1982" 
d="M651 1548h725l586 -1548h-1942zM967 1055l-230 -633h434z" />
    <glyph glyph-name="uni2215" unicode="&#x2215;" horiz-adv-x="1093" 
d="M725 1460h438l-796 -1460h-437z" />
    <glyph glyph-name="uni2219" unicode="&#x2219;" horiz-adv-x="784" 
d="M102 907h580v-471h-580v471z" />
    <glyph glyph-name="uni2224" unicode="&#x2224;" horiz-adv-x="784" 
d="M102 907h580v-471h-580v471z" />
    <glyph glyph-name="uni2227" unicode="&#x2227;" horiz-adv-x="784" 
d="M102 907h580v-471h-580v471z" />
    <glyph glyph-name="uni22C5" unicode="&#x22c5;" horiz-adv-x="784" 
d="M102 907h580v-471h-580v471z" />
    </font>
</defs>
</svg>
