<?xml version="1.0" standalone="no"?>
<!DOCTYPE svg PUBLIC "-//W3C//DTD SVG 1.1//EN" "http://www.w3.org/Graphics/SVG/1.1/DTD/svg11.dtd" >
<svg>
<metadata>
Created by FontForge 20090914 at Thu Feb  6 01:48:45 2014
 By www-data
2002 Christian Schwartz published by FontShop International for the FontFont library.
</metadata>
<defs>
<font id="Bau-Medium" horiz-adv-x="613" >
  <font-face 
    font-family="Bau-Medium"
    font-weight="400"
    font-stretch="normal"
    units-per-em="1000"
    panose-1="2 11 6 4 4 2 2 2 2 3"
    ascent="800"
    descent="-200"
    x-height="534"
    cap-height="753"
    bbox="-33 -231 1440 959"
    underline-thickness="20"
    underline-position="-113"
    unicode-range="U+0020-U+22C5"
  />
<missing-glyph 
d="M75 753h463v-753h-463v753zM440 98v557h-267v-557h267z" />
    <glyph glyph-name=".notdef" 
d="M75 753h463v-753h-463v753zM440 98v557h-267v-557h267z" />
    <glyph glyph-name="space" unicode=" " horiz-adv-x="247" 
 />
    <glyph glyph-name="exclam" unicode="!" horiz-adv-x="318" 
d="M85 146h148v-146h-148v146zM230 753v-220l-37 -291h-68l-37 291v220h142z" />
    <glyph glyph-name="quotedbl" unicode="&#x22;" horiz-adv-x="492" 
d="M283 754h144l-25 -316h-95zM65 754h145l-25 -316h-95z" />
    <glyph glyph-name="numbersign" unicode="#" horiz-adv-x="534" 
d="M218 498v-97h98v97h-98zM35 498v96h94v122h89v-122h98v122h89v-122h94v-96h-94v-97h94v-96h-94v-129h-89v129h-98v-129h-89v129h-94v96h94v97h-94z" />
    <glyph glyph-name="dollar" unicode="$" horiz-adv-x="653" 
d="M283 611c-45.333 -3.33301 -76.334 -13.8301 -93.001 -31.4971s-25 -40.5 -25 -68.5c0 -14.667 2.16699 -26.834 6.5 -36.501s11.333 -17.834 21 -24.501s21.834 -12.334 36.501 -17.001s32.667 -9 54 -13v191zM360.999 91.0029c47.333 2 80.665 11.5 99.998 28.5
s29 40.833 29 71.5c0 15.333 -2.66699 28.333 -8 39s-13.166 19.667 -23.499 27s-23.666 13.5 -39.999 18.5s-35.5 9.5 -57.5 13.5v-198zM178.998 3.00293c-83.333 64.667 -133.662 120.997 -150.995 168.997l104 45c13.333 -34.667 31.666 -62.334 54.999 -83.001
s55.333 -34 96 -40v208c-29.333 4.66699 -58 11 -86 19s-52.667 19.5 -74 34.5s-38.5 34.333 -51.5 58s-19.5 53.5 -19.5 89.5c0 60 19 108.167 57 144.5s96 56.5 174 60.5v88h78v-89c58 -5.33301 105.5 -20.5 142.5 -45.5s66.167 -59.5 87.5 -103.5l-96 -60
c-12.667 30 -29.334 54.333 -50.001 73s-48.667 31 -84 37v-202c35.333 -6 68.166 -13.667 98.499 -23s56.5 -22 78.5 -38s39.333 -36.333 52 -61s19 -55.667 19 -93c0 -33.333 -6 -62.166 -18 -86.499s-28.833 -44.666 -50.5 -60.999s-47.834 -28.666 -78.501 -36.999
s-64.334 -13.166 -101.001 -14.499v-125h-78v126z" />
    <glyph glyph-name="percent" unicode="%" horiz-adv-x="1034" 
d="M234 380c31.333 0 53.999 11.5 67.999 34.5s21 55.167 21 96.5c0 40 -7 71.5 -21 94.5s-37 34.5 -69 34.5c-31.333 0 -53.666 -11.167 -66.999 -33.5s-20 -54.5 -20 -96.5s6.83301 -74.167 20.5 -96.5s36.167 -33.5 67.5 -33.5zM798.999 76
c31.333 0 53.999 11.5 67.999 34.5s21 55.167 21 96.5c0 40 -7 71.5 -21 94.5s-37 34.5 -69 34.5c-31.333 0 -53.666 -11.167 -66.999 -33.5s-20 -54.5 -20 -96.5s6.83301 -74.167 20.5 -96.5s36.167 -33.5 67.5 -33.5zM637.998 716h104l-348 -716h-104zM797.998 -13
c-31.333 0 -59.0039 5.49805 -83.0039 16.498s-44.167 26.333 -60.5 46s-28.666 42.667 -36.999 69s-12.5 55.166 -12.5 86.499c0 30.667 4.33301 59.334 13 86.001s21.334 49.834 38.001 69.501s37 35 61 46s51.333 16.5 82 16.5s58.167 -5.33301 82.5 -16
s44.833 -25.5 61.5 -44.5s29.334 -41.667 38.001 -68s13 -55.166 13 -86.499s-4.33301 -60.5 -13 -87.5s-21.167 -50.333 -37.5 -70s-36.666 -35.167 -60.999 -46.5s-52.5 -17 -84.5 -17zM232.994 290.998c-31.333 0 -59.0039 5.49805 -83.0039 16.498
s-44.167 26.333 -60.5 46s-28.666 42.667 -36.999 69s-12.5 55.166 -12.5 86.499c0 30.667 4.33301 59.334 13 86.001s21.334 49.834 38.001 69.501s37 35 61 46s51.333 16.5 82 16.5s58.167 -5.33301 82.5 -16s44.833 -25.5 61.5 -44.5s29.334 -41.667 38.001 -68
s13 -55.166 13 -86.499s-4.33301 -60.5 -13 -87.5s-21.167 -50.333 -37.5 -70s-36.666 -35.167 -60.999 -46.5s-52.5 -17 -84.5 -17z" />
    <glyph glyph-name="ampersand" unicode="&#x26;" horiz-adv-x="746" 
d="M326 496c34 18.667 58.001 36.333 72.001 53s21 35 21 55c0 20.667 -4.83301 35.667 -14.5 45s-21.5 14 -35.5 14c-16.667 0 -31.334 -5.5 -44.001 -16.5s-19 -30.5 -19 -58.5c0 -27.333 6.66699 -58 20 -92zM408.001 136.999
c-27.333 30.667 -53.832 64.168 -79.499 100.501s-49.167 73.166 -70.5 110.499c-24 -16 -43.833 -34.667 -59.5 -56s-23.5 -49 -23.5 -83c0 -36.667 10.667 -64.667 32 -84s50 -29 86 -29c39.333 0 77.666 13.667 114.999 41zM369.002 411
c17.333 -28.667 36.667 -58.332 58 -88.999s43.333 -59.667 66 -87c15.333 26 29 55.333 41 88s22 69 30 109l110 -13c-9.33301 -48.667 -22.5 -95.667 -39.5 -141s-38.167 -87 -63.5 -125c18.667 -16.667 33.167 -27.167 43.5 -31.5s20.833 -6.5 31.5 -6.5
c8.66699 0 17.5 1.5 26.5 4.5s16.167 7.16699 21.5 12.5h3l25 -115c-8.66699 -5.33301 -19.334 -10.666 -32.001 -15.999s-29.334 -8 -50.001 -8c-27.333 0 -52.833 4.83301 -76.5 14.5s-49.5 26.5 -77.5 50.5c-28 -21.333 -58.333 -38.166 -91 -50.499
s-69 -18.5 -109 -18.5c-43.333 0 -80.5 5.5 -111.5 16.5s-56.5 26 -76.5 45s-34.667 41.333 -44 67s-14 53.5 -14 83.5c0 31.333 5 59.166 15 83.499s23 46 39 65s34.5 35.667 55.5 50s42.5 27.5 64.5 39.5c-20 50.667 -30 99 -30 145c0 28.667 5 54.167 15 76.5
s23.5 41.166 40.5 56.499s37 26.833 60 34.5s47.833 11.5 74.5 11.5c24 0 45.833 -4 65.5 -12s36.5 -19 50.5 -33s24.833 -30.5 32.5 -49.5s11.5 -39.5 11.5 -61.5c0 -22.667 -3.83301 -42.834 -11.5 -60.501s-18.667 -34.167 -33 -49.5s-31.666 -30 -51.999 -44
s-43.166 -28 -68.499 -42z" />
    <glyph glyph-name="quotesingle" unicode="'" horiz-adv-x="275" 
d="M65 754h145l-25 -316h-95z" />
    <glyph glyph-name="parenleft" unicode="(" horiz-adv-x="422" 
d="M309 -184c-32 28.667 -62.833 59.999 -92.5 93.999s-55.834 71.333 -78.501 112s-40.834 85.334 -54.501 134.001s-20.5 102 -20.5 160c0 56.667 6.66699 109.5 20 158.5s31.333 94.167 54 135.5s48.834 79.166 78.501 113.499s60.834 65.5 93.501 93.5l71 -67
c-23.333 -24.667 -45.833 -51.5 -67.5 -80.5s-40.834 -61 -57.501 -96s-29.834 -73.833 -39.501 -116.5s-14.5 -89.667 -14.5 -141s5 -98.166 15 -140.499s23.333 -81 40 -116s35.834 -67 57.501 -96s43.834 -55.833 66.501 -80.5z" />
    <glyph glyph-name="parenright" unicode=")" horiz-adv-x="422" 
d="M42 -117c22.667 24.667 44.832 51.501 66.499 80.501s40.834 61 57.501 96s30 73.667 40 116s15 89.166 15 140.499s-5 98.333 -15 141s-23.167 81.5 -39.5 116.5s-35.333 67 -57 96s-44.167 55.833 -67.5 80.5l71 67c32.667 -28 63.834 -59.167 93.501 -93.5
s55.834 -72.166 78.501 -113.499s40.667 -86.5 54 -135.5s20 -101.833 20 -158.5c0 -58 -6.83301 -111.333 -20.5 -160s-31.834 -93.334 -54.501 -134.001s-48.834 -78 -78.501 -112s-60.5 -65.333 -92.5 -94z" />
    <glyph glyph-name="asterisk" unicode="*" horiz-adv-x="450" 
d="M76 445l98 105l-129 25l32 98l115 -61l-19 141h104l-19 -141l115 61l32 -98l-129 -25l97 -105l-82 -59l-67 125l-65 -125z" />
    <glyph glyph-name="plus" unicode="+" horiz-adv-x="546" 
d="M329 88h-111v156h-153v109h153v156h111v-156h152v-109h-152v-156z" />
    <glyph glyph-name="comma" unicode="," horiz-adv-x="318" 
d="M86 -77c18.667 4 35.002 11.333 49.002 22s21 29 21 55h-71v146h148v-134c0 -26 -4.16699 -48.333 -12.5 -67s-19.333 -34.167 -33 -46.5s-29.334 -21.833 -47.001 -28.5s-35.834 -11 -54.501 -13v66z" />
    <glyph glyph-name="hyphen" unicode="-" horiz-adv-x="408" 
d="M65 336h268v-118h-268v118z" />
    <glyph glyph-name="period" unicode="." horiz-adv-x="318" 
d="M85 146h148v-146h-148v146z" />
    <glyph glyph-name="slash" unicode="/" horiz-adv-x="425" 
d="M293 813h120l-302 -961h-121z" />
    <glyph glyph-name="zero" unicode="0" horiz-adv-x="659" 
d="M327 505c-48.667 0 -86.833 -17.3311 -114.5 -51.998s-41.5 -86 -41.5 -154c0 -38.667 3.5 -71.334 10.5 -98.001s17.333 -48.334 31 -65.001s30.167 -28.667 49.5 -36s41.333 -11 66 -11c24 0 45.833 3.66699 65.5 11s36.5 19.333 50.5 36s24.833 38.5 32.5 65.5
s11.5 60.167 11.5 99.5c0 72 -14.667 124 -44 156s-68.333 48 -117 48zM50.001 298.002c0 49.333 7.3291 93.165 21.9961 131.498s34.5 70.5 59.5 96.5s54.5 45.833 88.5 59.5s70 20.5 108 20.5c38.667 0 75 -6.33301 109 -19s63.833 -31.667 89.5 -57
s45.834 -57.166 60.501 -95.499s22 -83.166 22 -134.499c0 -52 -6.83301 -97.5 -20.5 -136.5s-32.667 -71.667 -57 -98s-53.666 -46 -87.999 -59s-72.5 -19.5 -114.5 -19.5s-80.167 6.66699 -114.5 20s-63.666 33 -87.999 59s-43.166 58.333 -56.499 97s-20 83.667 -20 135z
" />
    <glyph glyph-name="one" unicode="1" horiz-adv-x="360" 
d="M272 595l-0.000976562 -595.002h-114v400c-13.333 -11.333 -30.666 -20.666 -51.999 -27.999s-42 -12 -62 -14v97c16 2.66699 31.833 7.33398 47.5 14.001s30 15.5 43 26.5s24.5 24.667 34.5 41s17.667 35.833 23 58.5h80z" />
    <glyph glyph-name="two" unicode="2" horiz-adv-x="585" 
d="M51 419c6 24 15.1709 47.1699 27.5039 69.5029s28.833 42.166 49.5 59.499s45.667 31.333 75 42s64.666 16 105.999 16c69.333 0 123.666 -16.167 162.999 -48.5s59 -78.166 59 -137.499c0 -28.667 -4.66699 -53.334 -14 -74.001s-22.333 -38.667 -39 -54
s-36.5 -28.5 -59.5 -39.5s-47.833 -21.5 -74.5 -31.5c-30.667 -11.333 -55.667 -22 -75 -32s-34.5 -19.667 -45.5 -29s-19 -18.333 -24 -27s-8.5 -17.334 -10.5 -26.001h348v-107h-494c1.33301 48.667 8.66602 89.5 21.999 122.5s30.666 60.833 51.999 83.5s46 41.5 74 56.5
s57.667 28.5 89 40.5c25.333 10 46.333 18.667 63 26s30 15.166 40 23.499s17.167 18 21.5 29s6.5 24.833 6.5 41.5c0 54.667 -36.667 82 -110 82c-40.667 0 -72.5 -10.5 -95.5 -31.5s-39.5 -50.167 -49.5 -87.5z" />
    <glyph glyph-name="three" unicode="3" horiz-adv-x="583" 
d="M140 89c5.33301 -18 11.832 -34.3311 19.499 -48.998s17.167 -27 28.5 -37s25.333 -17.833 42 -23.5s36.667 -8.5 60 -8.5c24.667 0 45.167 3.16699 61.5 9.5s29 15 38 26s15.333 23.667 19 38s5.5 29.5 5.5 45.5c0 34 -9.16699 60.333 -27.5 79s-48.833 28 -91.5 28h-55
v101h62c32.667 0 56.667 8.5 72 25.5s23 41.5 23 73.5c0 32.667 -8.16699 59 -24.5 79s-44.166 30 -83.499 30s-68.666 -10.333 -87.999 -31s-34 -47.334 -44 -80.001l-104 40c15.333 56 43.333 98.5 84 127.5s92.334 43.5 155.001 43.5c74 0 129.833 -19 167.5 -57
s56.5 -88.333 56.5 -151c0 -20 -2.83301 -37.833 -8.5 -53.5s-13 -29.5 -22 -41.5s-19 -22.167 -30 -30.5s-21.833 -14.5 -32.5 -18.5c32.667 -12 59.667 -32.5 81 -61.5s32 -64.5 32 -106.5c0 -68.667 -21 -122.334 -63 -161.001s-102 -58 -180 -58
c-36.667 0 -69.334 4.5 -98.001 13.5s-53.834 21.5 -75.501 37.5s-40 35.167 -55 57.5s-26.5 46.833 -34.5 73.5z" />
    <glyph glyph-name="four" unicode="4" horiz-adv-x="604" 
d="M365 432c-14 -29.333 -29.835 -58.667 -47.502 -88s-36.167 -58 -55.5 -86s-39.166 -55 -59.499 -81s-40.166 -50 -59.499 -72h216zM471.998 -122.001l-113.999 0.000976562v122h-326v115c28.667 32.667 58.167 68.167 88.5 106.5s59.666 78.166 87.999 119.499
s55 83.5 80 126.5s46.833 85.5 65.5 127.5h118v-490h100v-105h-100v-122z" />
    <glyph glyph-name="five" unicode="5" horiz-adv-x="587" 
d="M491 488l-289.998 0.000976562l-17 -178c15.333 15.333 33.333 27.166 54 35.499s46 12.5 76 12.5c32 0 61.667 -5.16699 89 -15.5s51.166 -26 71.499 -47s36.333 -47.167 48 -78.5s17.5 -67.666 17.5 -108.999c0 -37.333 -6 -70.833 -18 -100.5
s-28.833 -54.834 -50.5 -75.501s-47.834 -36.667 -78.501 -48s-64.667 -17 -102 -17s-70.5 4.5 -99.5 13.5s-54.333 21.333 -76 37s-39.667 33.667 -54 54s-25.166 41.833 -32.499 64.5l110 29c8 -26.667 23.667 -49.5 47 -68.5s57.666 -28.5 102.999 -28.5
c43.333 0 75.833 13 97.5 39s32.5 61 32.5 105c0 46 -9.33301 82 -28 108s-50 39 -94 39c-36.667 0 -64.5 -7 -83.5 -21s-33.5 -31.667 -43.5 -53h-98l39 410h380v-107z" />
    <glyph glyph-name="six" unicode="6" horiz-adv-x="614" 
d="M315 378c-46 0 -81.332 -12.668 -105.999 -38.001s-37 -61 -37 -107c0 -19.333 3.16699 -37.833 9.5 -55.5s15.666 -33 27.999 -46s27.333 -23.333 45 -31s37.5 -11.5 59.5 -11.5c42 0 74.833 13.833 98.5 41.5s35.5 62.834 35.5 105.501c0 46 -12 81.167 -36 105.5
s-56.333 36.5 -97 36.5zM50.001 306.999c0 60.667 6.33301 116.666 19 167.999s31.334 95.666 56.001 132.999s55 66.5 91 87.5s77 31.5 123 31.5c28.667 0 54.334 -3.33301 77.001 -10s42.834 -16 60.501 -28s33.167 -26.167 46.5 -42.5s24.666 -34.166 33.999 -53.499
l-92 -62c-12 30 -27.833 53.333 -47.5 70s-47.834 25 -84.501 25c-48.667 0 -87 -21.167 -115 -63.5s-45 -98.833 -51 -169.5c15.333 22 36.666 41.167 63.999 57.5s60.666 24.5 99.999 24.5c32 0 62.333 -5 91 -15s53.667 -25 75 -45s38.333 -44.5 51 -73.5
s19 -62.5 19 -100.5s-6.16699 -72.667 -18.5 -104s-29.833 -58.166 -52.5 -80.499s-49.5 -39.5 -80.5 -51.5s-64.833 -18 -101.5 -18c-42 0 -80.5 7.83301 -115.5 23.5s-63.5 38.5 -85.5 68.5c-21.333 28.667 -37.166 62.667 -47.499 102s-15.5 81.333 -15.5 126z" />
    <glyph glyph-name="seven" unicode="7" horiz-adv-x="551" 
d="M146 -120c0.666992 64 9.49805 126.168 26.498 186.501s38 116.666 63 168.999s52.333 100.166 82 143.499s57.834 80 84.501 110h-371v106h489v-90c-35.333 -43.333 -67.833 -88.666 -97.5 -135.999s-55.167 -97 -76.5 -149s-38.166 -106.333 -50.499 -163
s-18.833 -115.667 -19.5 -177h-130z" />
    <glyph glyph-name="eight" unicode="8" horiz-adv-x="620" 
d="M314 626c-44 0 -75.833 -9.66699 -95.5 -29s-29.5 -43 -29.5 -71c0 -66 40 -99 120 -99c43.333 0 74.333 8 93 24s28 41 28 75c0 32 -9.33301 56.667 -28 74s-48 26 -88 26zM317 330c-46 0 -82.667 -10 -110 -30s-41 -49.333 -41 -88
c0 -36.667 11.167 -66.334 33.5 -89.001s58.5 -34 108.5 -34c48 0 84.333 11.5 109 34.5s37 51.833 37 86.5c0 38.667 -11.5 68.334 -34.5 89.001s-57.167 31 -102.5 31zM319 727c72.667 0 128.168 -17.3291 166.501 -51.9961s57.5 -83.334 57.5 -146.001
c0 -19.333 -2.83301 -36.833 -8.5 -52.5s-13 -29.334 -22 -41.001s-19.167 -21.667 -30.5 -30s-22.333 -15.166 -33 -20.499c14.667 -6 29.5 -14 44.5 -24s28.333 -22.333 40 -37s21.167 -32 28.5 -52s11 -42.333 11 -67c0 -32.667 -5.5 -62.334 -16.5 -89.001
s-27.5 -49.5 -49.5 -68.5s-49.667 -33.833 -83 -44.5s-72.333 -16 -117 -16s-83.334 5.66699 -116.001 17s-59.667 26.833 -81 46.5s-37.166 42.667 -47.499 69s-15.5 54.5 -15.5 84.5c0 25.333 3.66699 47.666 11 66.999s17 36.166 29 50.499s25.333 26.333 40 36
s29 17.167 43 22.5c-12.667 6 -24.667 13.333 -36 22s-21.333 19 -30 31s-15.5 25.667 -20.5 41s-7.5 33 -7.5 53c0 31.333 5.66699 59.333 17 84s27.666 45.667 48.999 63s46.833 30.5 76.5 39.5s63.167 13.5 100.5 13.5z" />
    <glyph glyph-name="nine" unicode="9" horiz-adv-x="622" 
d="M299 227c50.667 0 87.334 12.333 110.001 37s34 58 34 100s-11 76.167 -33 102.5s-57.667 39.5 -107 39.5c-46 0 -80.167 -13.5 -102.5 -40.5s-33.5 -61.167 -33.5 -102.5c0 -47.333 11.167 -81.833 33.5 -103.5s55.166 -32.5 98.499 -32.5zM572 292
c0 -62 -5.66602 -119.166 -16.999 -171.499s-28.666 -97.166 -51.999 -134.499s-53.333 -66.5 -90 -87.5s-80.334 -31.5 -131.001 -31.5c-29.333 0 -56.333 4 -81 12s-46.667 18.833 -66 32.5s-36 29.5 -50 47.5s-25.333 37.333 -34 58l96 52
c7.33301 -16 15.166 -30.167 23.499 -42.5s17.833 -22.833 28.5 -31.5s23.167 -15.334 37.5 -20.001s31.166 -7 50.499 -7c50 0 88.333 21.333 115 64s43.667 102 51 178c-17.333 -24.667 -39.333 -44 -66 -58s-60 -21 -100 -21c-33.333 0 -64.666 5 -93.999 15
s-54.833 24.667 -76.5 44s-38.667 43 -51 71s-18.5 60.333 -18.5 97c0 37.333 6.16699 71.166 18.5 101.499s29.666 56.333 51.999 78s49.333 38.5 81 50.5s66.834 18 105.501 18c45.333 0 84.833 -7.5 118.5 -22.5s61.5 -36.167 83.5 -63.5s38.5 -60.333 49.5 -99
s16.5 -81.667 16.5 -129z" />
    <glyph glyph-name="colon" unicode=":" horiz-adv-x="334" 
d="M93 146h148v-146h-148v146zM93 441h148v-146h-148v146z" />
    <glyph glyph-name="semicolon" unicode=";" horiz-adv-x="334" 
d="M93 441h148v-146h-148v146zM94 -77c18.667 4 35.002 11.333 49.002 22s21 29 21 55h-71v146h148v-134c0 -26 -4.16699 -48.333 -12.5 -67s-19.333 -34.167 -33 -46.5s-29.334 -21.833 -47.001 -28.5s-35.834 -11 -54.501 -13v66z" />
    <glyph glyph-name="less" unicode="&#x3c;" horiz-adv-x="502" 
d="M53 243v96l387 175v-114l-255 -106l255 -115v-111z" />
    <glyph glyph-name="equal" unicode="=" horiz-adv-x="546" 
d="M65 249h416v-110h-416v110zM65 456h416v-110h-416v110z" />
    <glyph glyph-name="greater" unicode="&#x3e;" horiz-adv-x="502" 
d="M449 339v-96l-387 -175v114l255 106l-255 115v111z" />
    <glyph glyph-name="question" unicode="?" horiz-adv-x="564" 
d="M173 146h148v-146h-148v146zM27 603c16 49.333 46.332 88.8281 90.999 118.495s102 44.5 172 44.5c38 0 71.167 -4.66699 99.5 -14s52 -22.333 71 -39s33.333 -36.167 43 -58.5s14.5 -46.5 14.5 -72.5c0 -23.333 -2.66699 -43.666 -8 -60.999
s-12.833 -32.833 -22.5 -46.5s-21.334 -26 -35.001 -37s-28.834 -21.5 -45.501 -31.5c-19.333 -11.333 -35.5 -21.666 -48.5 -30.999s-23.5 -18.833 -31.5 -28.5s-13.833 -20.167 -17.5 -31.5s-5.5 -24.666 -5.5 -39.999v-33h-118v45c0 26 3.66699 49 11 69
s17 37.833 29 53.5s25.833 29.334 41.5 41.001s31.834 22.5 48.501 32.5c17.333 10.667 32.333 22.667 45 36s19 31.666 19 54.999c0 24.667 -7.66699 44.334 -23 59.001s-39.666 22 -72.999 22c-42 0 -75.167 -9.16699 -99.5 -27.5s-43.166 -44.166 -56.499 -77.499z" />
    <glyph glyph-name="at" unicode="@" horiz-adv-x="935" 
d="M427 119c34 0 61.5 12.5 82.5 37.5s34.167 61.5 39.5 109.5c4 36.667 -0.166992 64.834 -12.5 84.501s-33.166 29.5 -62.499 29.5c-18.667 0 -35.334 -4.66699 -50.001 -14s-27 -21.833 -37 -37.5s-17.667 -33.834 -23 -54.501s-8 -42.667 -8 -66
c0 -28 6 -49.833 18 -65.5s29.667 -23.5 53 -23.5zM438 -162c-60 0 -113.832 10.6738 -161.499 32.0068s-88.167 50.166 -121.5 86.499s-58.833 78.833 -76.5 127.5s-26.5 100 -26.5 154c0 62.667 11.667 120 35 172s55 96.667 95 134s86.333 66.333 139 87s108 31 166 31
c57.333 0 110.333 -9 159 -27s90.834 -43.333 126.501 -76s63.667 -71.5 84 -116.5s30.5 -94.833 30.5 -149.5c0 -49.333 -6 -90.833 -18 -124.5s-27.5 -60.834 -46.5 -81.501s-40.5 -35.334 -64.5 -44.001s-48 -13 -72 -13c-34.667 0 -63.167 6.83301 -85.5 20.5
s-37.833 34.834 -46.5 63.501c-19.333 -32.667 -42.333 -56.667 -69 -72s-56.334 -23 -89.001 -23c-24.667 0 -47 4.5 -67 13.5s-37 21.667 -51 38s-24.667 35.666 -32 57.999s-11 46.5 -11 72.5c0 43.333 5.83301 82.166 17.5 116.499s27.5 63.333 47.5 87
s43 41.834 69 54.501s53.667 19 83 19c35.333 0 62.333 -6.83301 81 -20.5s31.667 -29.834 39 -48.501l12 58h116l-45 -274c-8.66699 -53.333 5.33301 -80 42 -80c14 0 27.167 3.66699 39.5 11s23.333 18.5 33 33.5s17.334 33.833 23.001 56.5s8.5 49 8.5 79
c0 44.667 -7.16699 84.667 -21.5 120s-35 65.333 -62 90s-59.833 43.5 -98.5 56.5s-82.334 19.5 -131.001 19.5s-94 -8 -136 -24s-78.5 -38.833 -109.5 -68.5s-55.333 -65.334 -73 -107.001s-26.5 -88.5 -26.5 -140.5c0 -44 6.5 -85.333 19.5 -124
s32.167 -72.334 57.5 -101.001s56.5 -51.334 93.5 -68.001s79.167 -25 126.5 -25c26 0 48.667 1.33301 68 4s37 6.66699 53 12s31.167 11.833 45.5 19.5s29.5 16.5 45.5 26.5l46 -66c-19.333 -13.333 -38.333 -25 -57 -35s-38.167 -18.333 -58.5 -25
s-42.333 -11.5 -66 -14.5s-49.834 -4.5 -78.501 -4.5z" />
    <glyph glyph-name="A" unicode="A" horiz-adv-x="717" 
d="M357 591l-101 -299h199zM158 0h-130l261 753h148l252 -753h-139l-57 176h-276z" />
    <glyph glyph-name="B" unicode="B" horiz-adv-x="796" 
d="M460 444c34.667 0 62.333 7.16699 83 21.5s31 39.833 31 76.5c0 35.333 -11 59.333 -33 72s-49.333 19 -82 19h-229v-189h230zM479.999 120c16 0 31.1689 1.83301 45.502 5.5s26.666 9.5 36.999 17.5s18.666 18.167 24.999 30.5s9.5 27.5 9.5 45.5
c0 36 -10.5 62.5 -31.5 79.5s-48.5 25.5 -82.5 25.5h-253v-204h250zM595.001 386c44 -10.667 78.833 -29.499 104.5 -56.499s38.5 -65.833 38.5 -116.5c0 -38 -6 -70.333 -18 -97s-29 -48.667 -51 -66s-48.333 -30 -79 -38s-64.667 -12 -102 -12h-391v753h369
c32.667 0 64 -4 94 -12s56.5 -20.5 79.5 -37.5s41.333 -38.833 55 -65.5s20.5 -59 20.5 -97c0 -42.667 -10.5 -76.334 -31.5 -101.001s-50.5 -42.667 -88.5 -54z" />
    <glyph glyph-name="C" unicode="C" horiz-adv-x="782" 
d="M741 189c-10 -27.333 -23.501 -53.165 -40.501 -77.498s-38.333 -45.833 -64 -64.5s-55.834 -33.334 -90.501 -44.001s-74.667 -16 -120 -16c-60.667 0 -113.667 9.66699 -159 29s-83.166 46.333 -113.499 81s-53.166 75.834 -68.499 123.501s-23 100.167 -23 157.5
c0 55.333 8 106.666 24 153.999s39.667 88.333 71 123s69.833 61.834 115.5 81.501s98.167 29.5 157.5 29.5c78.667 0 143.667 -18.333 195 -55s88.333 -87.334 111 -152.001l-117 -65c-7.33301 20.667 -16.333 40 -27 58s-23.5 33.667 -38.5 47s-32.667 24 -53 32
s-43.833 12 -70.5 12c-39.333 0 -73 -6.5 -101 -19.5s-50.833 -31 -68.5 -54s-30.667 -50.833 -39 -83.5s-12.5 -68.334 -12.5 -107.001c0 -42 4 -79.5 12 -112.5s20.833 -61 38.5 -84s40.5 -40.5 68.5 -52.5s62.333 -18 103 -18c28 0 52.333 3.5 73 10.5
s38.667 16.667 54 29s28.333 27 39 44s20 35.833 28 56.5z" />
    <glyph glyph-name="D" unicode="D" horiz-adv-x="812" 
d="M234 121h173c64.667 0 115 21.167 151 63.5s54 107.166 54 194.499c0 78.667 -18 140.334 -54 185.001s-86.667 67 -152 67h-172v-510zM97 753l303 0.00195312c58.667 0 110 -9.66699 154 -29s80.5 -46 109.5 -80s50.667 -73.833 65 -119.5s21.5 -94.5 21.5 -146.5
c0 -50.667 -5.66699 -98.834 -17 -144.501s-30.5 -85.834 -57.5 -120.501s-63 -62.167 -108 -82.5s-101.5 -30.5 -169.5 -30.5h-301v753z" />
    <glyph glyph-name="E" unicode="E" horiz-adv-x="760" 
d="M234 124h463v-124h-600v753h581v-124h-444v-184h377v-121h-377v-200z" />
    <glyph glyph-name="F" unicode="F" horiz-adv-x="709" 
d="M234 0h-137v753h549v-124h-412v-185h349v-124h-349v-320z" />
    <glyph glyph-name="G" unicode="G" horiz-adv-x="842" 
d="M663 82c-25.333 -32 -56.665 -55.8311 -93.998 -71.498s-85.333 -23.5 -144 -23.5c-62 0 -115.667 9.66699 -161 29s-83 46.333 -113 81s-52.333 75.834 -67 123.501s-22 100.167 -22 157.5c0 56.667 8.5 108.667 25.5 156s41.667 88.166 74 122.499
s71.833 61.166 118.5 80.499s100 29 160 29c77.333 0 142.666 -15.333 195.999 -46s94 -78 122 -142l-120 -66c-17.333 45.333 -41.833 78.5 -73.5 99.5s-74.5 31.5 -128.5 31.5c-40 0 -74.167 -6.5 -102.5 -19.5s-51.833 -31 -70.5 -54s-32.334 -50.833 -41.001 -83.5
s-13 -68.334 -13 -107.001c0 -42 3.83301 -79.667 11.5 -113s20.5 -61.666 38.5 -84.999s41.5 -41.333 70.5 -54s64.5 -19 106.5 -19c33.333 0 62.333 4.16699 87 12.5s45 19.666 61 33.999s28 31 36 50s12 39.167 12 60.5v26h-164v115h292v-416h-67z" />
    <glyph glyph-name="H" unicode="H" horiz-adv-x="827" 
d="M593 753h137v-753h-137v324h-359v-324h-137v753h137v-305h359v305z" />
    <glyph glyph-name="I" unicode="I" horiz-adv-x="355" 
d="M246 753v-753h-137v753h137z" />
    <glyph glyph-name="J" unicode="J" horiz-adv-x="593" 
d="M172 264v-25c0 -46 7.66699 -79.167 23 -99.5s40 -30.5 74 -30.5c36 0 61.833 10.167 77.5 30.5s23.5 55.5 23.5 105.5v508h137v-497c0 -88 -17.5 -154.833 -52.5 -200.5s-94.167 -68.5 -177.5 -68.5c-79.333 0 -138.333 20.5 -177 61.5s-58 100.167 -58 177.5v38h130z
" />
    <glyph glyph-name="K" unicode="K" horiz-adv-x="744" 
d="M715 0h-165l-226 339l-90 -99v-240h-137v753h137v-351l294 351h161l-20 -23l-49.5 -58l-64.5 -75.5l-65 -75.5l-50 -58l-20 -23z" />
    <glyph glyph-name="L" unicode="L" horiz-adv-x="696" 
d="M651 124v-124h-554v753h137v-629h417z" />
    <glyph glyph-name="M" unicode="M" horiz-adv-x="949" 
d="M852 0h-131v569l-208 -569h-90l-203 569v-569h-123v753h190l188 -518l192 518h185v-753z" />
    <glyph glyph-name="N" unicode="N" horiz-adv-x="805" 
d="M584 753h124v-753h-137l-350 564v-564h-124v753h159l328 -520v520z" />
    <glyph glyph-name="O" unicode="O" horiz-adv-x="877" 
d="M438 643c-37.333 0 -70.166 -6.49902 -98.499 -19.499s-52.166 -31 -71.499 -54s-34 -50.833 -44 -83.5s-15 -68.334 -15 -107.001c0 -84 19.667 -149.5 59 -196.5s96.333 -70.5 171 -70.5c77.333 0 134.833 21.5 172.5 64.5s56.5 111.167 56.5 204.5
c0 39.333 -5 75 -15 107s-24.833 59.5 -44.5 82.5s-43.834 40.833 -72.501 53.5s-61.334 19 -98.001 19zM62 378.001c0 54 8.83105 104.497 26.498 151.497s42.834 88 75.501 123s72.167 62.667 118.5 83s98.166 30.5 155.499 30.5c56.667 0 108.334 -9.66699 155.001 -29
s86.334 -46.166 119.001 -80.499s58 -75 76 -122s27 -98.5 27 -154.5c0 -57.333 -8 -110.166 -24 -158.499s-39.833 -89.833 -71.5 -124.5s-70.667 -61.667 -117 -81s-99.833 -29 -160.5 -29c-58 0 -110.333 9.66699 -157 29s-86.5 46.333 -119.5 81
s-58.5 75.834 -76.5 123.501s-27 100.167 -27 157.5z" />
    <glyph glyph-name="P" unicode="P" horiz-adv-x="762" 
d="M469 434c15.333 0 29.667 1.66895 43 5.00195s25 8.83301 35 16.5s18 17.667 24 30s9 27.833 9 46.5c0 18 -3 33.167 -9 45.5s-14.167 22.166 -24.5 29.499s-22.333 12.666 -36 15.999s-28.5 5 -44.5 5h-232v-194h235zM475.001 753.002
c33.333 0 64.998 -4.5 94.998 -13.5s56.167 -22.5 78.5 -40.5s40 -40.5 53 -67.5s19.5 -58.833 19.5 -95.5c0 -38 -6.16699 -70.833 -18.5 -98.5s-29.666 -50.667 -51.999 -69s-48.666 -32 -78.999 -41s-63.5 -13.5 -99.5 -13.5h-238v-314h-137v753h378z" />
    <glyph glyph-name="Q" unicode="Q" horiz-adv-x="877" 
d="M458 215l87 91.001l14.5 -14.5l32 -32.5l32 -33l14.5 -15c20 42 30 98.667 30 170c0 39.333 -5 75 -15 107s-24.833 59.5 -44.5 82.5s-43.834 40.833 -72.501 53.5s-61.334 19 -98.001 19c-37.333 0 -70.166 -6.5 -98.499 -19.5s-52.166 -31 -71.499 -54
s-34 -50.833 -44 -83.5s-15 -68.334 -15 -107.001c0 -84 19.667 -149.5 59 -196.5s96.333 -70.5 171 -70.5c40.667 0 75.667 5.33301 105 16zM735 114.001l34.4971 -35.501l25.5 -26.5l10 -10l-87 -91l-80 81c-26.667 -14.667 -56.167 -25.834 -88.5 -33.501
s-68.166 -11.5 -107.499 -11.5c-58 0 -110.333 9.66699 -157 29s-86.5 46.333 -119.5 81s-58.5 75.834 -76.5 123.501s-27 100.167 -27 157.5c0 54 8.83301 104.5 26.5 151.5s42.834 88 75.501 123s72.167 62.667 118.5 83s98.166 30.5 155.499 30.5
c56.667 0 108.334 -9.66699 155.001 -29s86.334 -46.166 119.001 -80.499s58 -75 76 -122s27 -98.5 27 -154.5c0 -52.667 -6.66699 -101.5 -20 -146.5s-33.333 -84.833 -60 -119.5z" />
    <glyph glyph-name="R" unicode="R" horiz-adv-x="789" 
d="M444 428c44 0 76.667 7.66699 98 23s32 42 32 80c0 18 -3.16699 33.167 -9.5 45.5s-15 22.333 -26 30s-23.667 13.167 -38 16.5s-29.5 5 -45.5 5h-221v-200h210zM575 356c34 -13.333 60.666 -35 79.999 -65s30.333 -70.333 33 -121c2 -46.667 6 -82.5 12 -107.5
s14 -44.5 24 -58.5v-4h-148c-7.33301 12 -13.5 29.167 -18.5 51.5s-9.16699 56.166 -12.5 101.499c-2 26.667 -5.5 49.834 -10.5 69.501s-12.833 36 -23.5 49s-25.167 22.667 -43.5 29s-41.5 9.5 -69.5 9.5h-164v-310h-137v753h352c36 0 69.833 -4 101.5 -12
s59.334 -20.667 83.001 -38s42.5 -39.5 56.5 -66.5s21 -59.167 21 -96.5c0 -54 -12.333 -95.333 -37 -124s-57.667 -48.667 -99 -60z" />
    <glyph glyph-name="S" unicode="S" horiz-adv-x="738" 
d="M353 766c83.333 0 150.669 -14.668 202.002 -44.001s90 -70 116 -122l-114 -73c-18.667 35.333 -44.167 64.166 -76.5 86.499s-75.166 33.5 -128.499 33.5c-56 0 -96 -7.5 -120 -22.5s-36 -38.167 -36 -69.5c0 -18.667 4 -33.5 12 -44.5s20 -19.833 36 -26.5
s36.167 -12.167 60.5 -16.5s53.166 -9.16602 86.499 -14.499c44.667 -7.33301 85.5 -16.166 122.5 -26.499s68.833 -24.666 95.5 -42.999s47.167 -41.833 61.5 -70.5s21.5 -64.667 21.5 -108c0 -39.333 -7.5 -72.666 -22.5 -99.999s-36.333 -49.833 -64 -67.5
s-60.834 -30.5 -99.501 -38.5s-81.334 -12 -128.001 -12c-96 0 -172.333 18 -229 54s-94.334 84 -113.001 144l125 56c9.33301 -20.667 20 -39.167 32 -55.5s26.667 -30.166 44 -41.499s38 -20 62 -26s52.667 -9 86 -9c54 0 95 7.66699 123 23s42 39.666 42 72.999
c0 19.333 -4 35.166 -12 47.499s-20.5 22.666 -37.5 30.999s-38.833 15.333 -65.5 21s-58.667 11.5 -96 17.5s-73 13.333 -107 22s-63.667 21 -89 37s-45.5 37.167 -60.5 63.5s-22.5 60.5 -22.5 102.5c0 32.667 6.33301 62.5 19 89.5s31.334 50 56.001 69
s55.167 33.833 91.5 44.5s78.5 16 126.5 16z" />
    <glyph glyph-name="T" unicode="T" horiz-adv-x="750" 
d="M441 0h-137v629h-259v124h660v-124h-264v-629z" />
    <glyph glyph-name="U" unicode="U" horiz-adv-x="805" 
d="M407 -13c-105.333 0 -185.166 23.832 -239.499 71.499s-81.5 125.5 -81.5 233.5v461h137v-485c0 -30 4.16699 -55.333 12.5 -76s20.166 -37.334 35.499 -50.001s34.333 -21.667 57 -27s48.667 -8 78 -8c60 0 104.333 12.333 133 37s43 68.334 43 131.001v478h137v-467
c0 -51.333 -5.83301 -95.666 -17.5 -132.999s-30 -68.333 -55 -93s-57.167 -43 -96.5 -55s-87 -18 -143 -18z" />
    <glyph glyph-name="V" unicode="V" horiz-adv-x="713" 
d="M433 0h-134l-275 753h151l192 -552l181 552h141z" />
    <glyph glyph-name="W" unicode="W" horiz-adv-x="1065" 
d="M375 0h-149l-200 753h147l138 -548l149 548h145l147 -547l148 547h139l-216 -753h-143l-153 569z" />
    <glyph glyph-name="X" unicode="X" horiz-adv-x="687" 
d="M37 753h158l154 -253l147 253h142l-16 -27l-40 -68l-52.5 -88.5l-52.5 -88l-40 -68l-16 -27.5l237 -386h-158l-168 276l-161 -276h-142l232 389z" />
    <glyph glyph-name="Y" unicode="Y" horiz-adv-x="704" 
d="M18 753h159l183 -328l178 328h148l-258 -463v-290h-137v279z" />
    <glyph glyph-name="Z" unicode="Z" horiz-adv-x="726" 
d="M70 634v119h606v-117l-455 -517h448v-119h-615v124l451 510h-435z" />
    <glyph glyph-name="bracketleft" unicode="[" horiz-adv-x="435" 
d="M222 -65h157v-101h-281v965h281v-101h-157v-763z" />
    <glyph glyph-name="backslash" unicode="\" horiz-adv-x="425" 
d="M12 813h120l302 -961h-121z" />
    <glyph glyph-name="bracketright" unicode="]" horiz-adv-x="435" 
d="M213 698h-157v101h281v-965h-281v101h157v763z" />
    <glyph glyph-name="asciicircum" unicode="^" horiz-adv-x="408" 
d="M65 418h268v-118h-268v118z" />
    <glyph glyph-name="underscore" unicode="_" horiz-adv-x="401" 
d="M-1 -54h403v-98h-403v98z" />
    <glyph glyph-name="grave" unicode="`" horiz-adv-x="500" 
d="M75 747h160l67 -152h-81z" />
    <glyph glyph-name="a" unicode="a" horiz-adv-x="584" 
d="M382 246c-34 -2.66699 -65 -5.83301 -93 -9.5s-52 -9 -72 -16s-35.5 -16.167 -46.5 -27.5s-16.5 -26 -16.5 -44c0 -39.333 26 -59 78 -59c20 0 39 3 57 9s34 14.333 48 25s25 23.667 33 39s12 32.333 12 51v32zM382 359.001c0 32 -9.16992 53.667 -27.5029 65
s-42.5 17 -72.5 17c-33.333 0 -62 -6 -86 -18s-43 -33 -57 -63l-89 58c24 46 56.667 78.667 98 98s90.333 29 147 29c28.667 0 55.667 -3.5 81 -10.5s47.333 -18 66 -33s33.334 -34 44.001 -57s16 -50.833 16 -83.5v-231c0 -20.667 6.66699 -33 20 -37s28 -4 44 0h2l-17 -98
c-6 -1.33301 -14.833 -2.33301 -26.5 -3s-22.5 -1 -32.5 -1c-30.667 0 -54.167 7.16699 -70.5 21.5s-27.833 33.5 -34.5 57.5c-16 -24 -36.833 -43.167 -62.5 -57.5s-62.167 -21.5 -109.5 -21.5c-23.333 0 -45.666 2.66699 -66.999 8s-40.166 14 -56.499 26
s-29.5 27.5 -39.5 46.5s-15 42.5 -15 70.5c0 34 7.33301 62.5 22 85.5s36.5 41.833 65.5 56.5s65 26 108 34s92.833 14 149.5 18v23z" />
    <glyph glyph-name="b" unicode="b" horiz-adv-x="623" 
d="M192 272c0 -65.333 12.6689 -111.999 38.002 -139.999s60.666 -42 105.999 -42c46 0 78.667 15.833 98 47.5s29 76.167 29 133.5c0 55.333 -10.833 97.666 -32.5 126.999s-54.834 44 -99.501 44c-40 0 -73.167 -14 -99.5 -42s-39.5 -70.667 -39.5 -128zM353.002 -12.999
c-44 0 -78.667 8.33301 -104 25s-44 35.334 -56 56.001l2 -68h-120v758h120v-302c16.667 26 37.667 47.333 63 64s60 25 104 25c30 0 58.333 -5.83301 85 -17.5s50 -29 70 -52s35.833 -51.333 47.5 -85s17.5 -72.834 17.5 -117.501c0 -43.333 -4.83301 -82.5 -14.5 -117.5
s-24 -65 -43 -90s-42.833 -44.333 -71.5 -58s-62 -20.5 -100 -20.5z" />
    <glyph glyph-name="c" unicode="c" horiz-adv-x="552" 
d="M417 347c-11.333 32.667 -26.001 57.1699 -44.001 73.5029s-43 24.5 -75 24.5c-42 0 -75.167 -13.833 -99.5 -41.5s-36.5 -69.834 -36.5 -126.501c0 -57.333 11 -102.5 33 -135.5s56.333 -49.5 103 -49.5c34.667 0 62 8.16699 82 24.5s35.667 40.5 47 72.5l98 -61
c-19.333 -42 -47 -75.333 -83 -100s-85.667 -37 -149 -37c-36.667 0 -70.5 6.5 -101.5 19.5s-57.667 31.667 -80 56s-39.666 53.666 -51.999 87.999s-18.5 73.166 -18.5 116.499c0 41.333 6.33301 78.833 19 112.5s30.5 62.5 53.5 86.5s50.333 42.5 82 55.5
s66.834 19.5 105.501 19.5c54.667 0 100.667 -12.333 138 -37s63.666 -61 78.999 -109z" />
    <glyph glyph-name="d" unicode="d" horiz-adv-x="623" 
d="M431 272c0 30 -3.33203 55.665 -9.99902 76.998s-16.167 38.833 -28.5 52.5s-27 23.834 -44 30.501s-35.833 10 -56.5 10c-44 0 -77 -13.667 -99 -41s-33 -70.666 -33 -129.999c0 -56.667 10.167 -101 30.5 -133s52.5 -48 96.5 -48c45.333 0 80.666 14.5 105.999 43.5
s38 75.167 38 138.5zM269.001 -13.002c-36 0 -68.167 6.66797 -96.5 20.001s-52.333 32.333 -72 57s-34.5 54.667 -44.5 90s-15 75 -15 119c0 43.333 5.66699 81.833 17 115.5s27 62.167 47 85.5s44 41 72 53s58.667 18 92 18c41.333 0 74.333 -6.66699 99 -20
s44.667 -31.333 60 -54v287h120v-758h-120l2 76c-6 -10 -13.667 -20.333 -23 -31s-20.5 -20.334 -33.5 -29.001s-28.167 -15.667 -45.5 -21s-37 -8 -59 -8z" />
    <glyph glyph-name="e" unicode="e" horiz-adv-x="573" 
d="M403 333c-3.33301 36 -14.332 64 -32.999 84s-46 30 -82 30c-35.333 0 -63.333 -9 -84 -27s-34.334 -47 -41.001 -87h240zM160.001 241c3.33301 -49.333 15.335 -86.335 36.002 -111.002s54 -37 100 -37c35.333 0 63.166 7.5 83.499 22.5s35.833 38.167 46.5 69.5
l102 -37c-6.66699 -22.667 -15.834 -43.5 -27.501 -62.5s-27 -35.5 -46 -49.5s-41.833 -25 -68.5 -33s-58 -12 -94 -12s-69.333 5.83301 -100 17.5s-57.167 29.167 -79.5 52.5s-39.833 52.5 -52.5 87.5s-19 75.833 -19 122.5c0 42 6.16699 79.833 18.5 113.5
s29.333 62.5 51 86.5s47.667 42.333 78 55s63.5 19 99.5 19c35.333 0 67.833 -5.66699 97.5 -17s55.167 -29.166 76.5 -53.499s38 -55.666 50 -93.999s18 -84.833 18 -139.5h-370z" />
    <glyph glyph-name="f" unicode="f" horiz-adv-x="370" 
d="M31 432v102h83v66c0 52 13.167 91.833 39.5 119.5s62.833 41.5 109.5 41.5c21.333 0 39.833 -2.5 55.5 -7.5s28.167 -11.5 37.5 -19.5l-19 -94h-3c-6.66699 6 -14.667 10.5 -24 13.5s-18.333 4.5 -27 4.5c-14 0 -25.667 -3.66699 -35 -11s-14 -20 -14 -38v-75h102v-102
h-102v-432h-120v432h-83z" />
    <glyph glyph-name="g" unicode="g" horiz-adv-x="572" 
d="M139 -46c0 -8.66699 2.33301 -16.001 7 -22.001s12.667 -11 24 -15s26.5 -6.83301 45.5 -8.5s43.167 -2.5 72.5 -2.5c28.667 0 52.334 1.33301 71.001 4s33.5 6.16699 44.5 10.5s18.667 9.66602 23 15.999s6.5 13.5 6.5 21.5c0 6.66699 -1.33301 13.334 -4 20.001
s-7.33398 11.334 -14.001 14.001c-10.667 4 -27.167 6.33301 -49.5 7s-52.5 1 -90.5 1c-49.333 0 -84.333 -2.83301 -105 -8.5s-31 -18.167 -31 -37.5zM276 449.999c-34 0 -59.001 -9.16797 -75.001 -27.501s-24 -41.166 -24 -68.499c0 -28 8.16699 -49.5 24.5 -64.5
s40.5 -22.5 72.5 -22.5c32.667 0 56.834 8.33301 72.501 25s23.5 38 23.5 64c0 25.333 -7.5 47.333 -22.5 66s-38.833 28 -71.5 28zM441.999 469.998c11.333 25.333 25.0049 43.332 41.0049 53.999s33.667 16 53 16c8 0 15.333 -1.5 22 -4.5s11.667 -6.16699 15 -9.5
l-23 -102h-2c-3.33301 4 -7.33301 7.33301 -12 10s-10 4 -16 4c-11.333 0 -21.666 -4.66699 -30.999 -14s-14 -19.666 -14 -30.999c0 -7.33301 0.5 -14.166 1.5 -20.499s1.5 -13.166 1.5 -20.499c0 -58.667 -19 -103 -57 -133s-88.333 -45 -151 -45
c-10.667 0 -19.167 0.166992 -25.5 0.5s-11.833 0.833008 -16.5 1.5s-9.33398 1.16699 -14.001 1.5s-10.667 0.5 -18 0.5c-14.667 0 -28.334 -2.83301 -41.001 -8.5s-19 -14.167 -19 -25.5c0 -8 2.33301 -14.333 7 -19s13 -8.16699 25 -10.5s28.5 -4 49.5 -5
s48.167 -1.5 81.5 -1.5c46.667 0 85 -1.16699 115 -3.5s54.333 -8.83301 73 -19.5c19.333 -11.333 34.166 -26.333 44.499 -45s15.5 -42.667 15.5 -72c0 -55.333 -21.333 -95.666 -64 -120.999s-109.667 -38 -201 -38c-82 0 -144.5 9.16699 -187.5 27.5
s-64.5 49.166 -64.5 92.499c0 25.333 8.66699 44.833 26 58.5s39.666 24.5 66.999 32.5c-57.333 10.667 -86 43.667 -86 99c0 24.667 8.33301 45.167 25 61.5s40 28.833 70 37.5c-20 15.333 -35.5 34.166 -46.5 56.499s-16.5 48.166 -16.5 77.499s5.16699 55.833 15.5 79.5
s24.666 43.667 42.999 60s40.166 29 65.499 38s53 13.5 83 13.5c36 0 68.667 -6.83301 98 -20.5s52 -31.167 68 -52.5z" />
    <glyph glyph-name="h" unicode="h" 
d="M195 758l0.000976562 -306.999c6.66699 11.333 14.5 22.666 23.5 33.999s20.167 21.5 33.5 30.5s28.833 16.167 46.5 21.5s38.167 8 61.5 8c19.333 0 39.666 -3.5 60.999 -10.5s41 -18.167 59 -33.5s33 -35.333 45 -60s18 -54.667 18 -90v-351h-120v323
c0 36 -7.5 64.667 -22.5 86s-39.833 32 -74.5 32c-37.333 0 -68.5 -13 -93.5 -39s-37.5 -66.333 -37.5 -121v-281h-120v758h120z" />
    <glyph glyph-name="i" unicode="i" horiz-adv-x="278" 
d="M203 758v-134h-128v134h128zM199 534v-534h-120v534h120z" />
    <glyph glyph-name="j" unicode="j" horiz-adv-x="278" 
d="M203 758v-134h-128v134h128zM199 -40c0 -50.667 -12.334 -87.999 -37.001 -111.999s-56 -36 -94 -36c-23.333 0 -42.166 2.33301 -56.499 7s-26.833 9.66699 -37.5 15l11 99h2c14.667 -10 31.667 -15 51 -15c11.333 0 21 3.66699 29 11s12 17.666 12 30.999v574h120v-574
z" />
    <glyph glyph-name="k" unicode="k" horiz-adv-x="590" 
d="M195 0h-120v758h120v-467l213 242h136l-183 -211l203 -322h-141l-148 237l-80 -86v-151z" />
    <glyph glyph-name="l" unicode="l" horiz-adv-x="284" 
d="M202 758v-758h-120v758h120z" />
    <glyph glyph-name="m" unicode="m" horiz-adv-x="949" 
d="M512 445c20.667 34.667 45.8301 60.002 75.4971 76.002s66.834 24 111.501 24c19.333 0 39.5 -3.5 60.5 -10.5s40.333 -18.167 58 -33.5s32.334 -35.333 44.001 -60s17.5 -54.667 17.5 -90v-351h-120v323c0 36 -7 64.667 -21 86s-38.333 32 -73 32
c-38 0 -68.833 -12.833 -92.5 -38.5s-35.5 -66.167 -35.5 -121.5v-281h-120v323c0 36 -7 64.667 -21 86s-38.333 32 -73 32c-38 0 -68.833 -12.833 -92.5 -38.5s-35.5 -66.167 -35.5 -121.5v-281h-120v534h120l-2 -86c6 11.333 13.667 22.666 23 33.999
s20.5 21.666 33.5 30.999s28.333 17 46 23s38.167 9 61.5 9c29.333 0 58.333 -7.83301 87 -23.5s51.334 -41.167 68.001 -76.5z" />
    <glyph glyph-name="n" unicode="n" 
d="M195 534l-1.99902 -85.999c6 12 13.667 23.667 23 35s20.833 21.666 34.5 30.999s29.5 16.833 47.5 22.5s38.667 8.5 62 8.5c19.333 0 39.666 -3.5 60.999 -10.5s41 -18.167 59 -33.5s33 -35.333 45 -60s18 -54.667 18 -90v-351h-120v323c0 36 -7.5 64.667 -22.5 86
s-39.833 32 -74.5 32c-37.333 0 -68.5 -13 -93.5 -39s-37.5 -66.333 -37.5 -121v-281h-120v534h120z" />
    <glyph glyph-name="o" unicode="o" horiz-adv-x="593" 
d="M298 452c-48 0 -83.0029 -16.332 -105.003 -48.999s-33 -75.334 -33 -128.001c0 -27.333 2.33301 -52.666 7 -75.999s12.334 -43.5 23.001 -60.5s24.5 -30.5 41.5 -40.5s38.167 -15 63.5 -15c26.667 0 48.834 4.5 66.501 13.5s31.834 21.667 42.501 38
s18.167 35.666 22.5 57.999s6.5 47.166 6.5 74.499c0 26 -2.5 50.167 -7.5 72.5s-13 41.833 -24 58.5s-25 29.834 -42 39.501s-37.5 14.5 -61.5 14.5zM296.997 547.001c38.667 0 73.667 -6.49805 105 -19.498s58.166 -31.5 80.499 -55.5s39.5 -53.333 51.5 -88
s18 -73.334 18 -116.001c-0.666992 -91.333 -23.334 -161 -68.001 -209s-107 -72 -187 -72c-38.667 0 -73.667 6.66699 -105 20s-58.166 32.166 -80.499 56.499s-39.666 53.5 -51.999 87.5s-18.5 72 -18.5 114c0 44 6.33301 83.5 19 118.5s30.334 64.667 53.001 89
s49.667 42.833 81 55.5s65.666 19 102.999 19z" />
    <glyph glyph-name="p" unicode="p" horiz-adv-x="623" 
d="M192 272c0 -32.667 3.33301 -60.3311 10 -82.998s16.167 -41 28.5 -55s27.333 -24.167 45 -30.5s37.834 -9.5 60.501 -9.5c46 0 78.667 15.167 98 45.5s29 74.166 29 131.499c0 55.333 -10.833 97.666 -32.5 126.999s-54.834 44 -99.501 44c-40 0 -73.167 -14 -99.5 -42
s-39.5 -70.667 -39.5 -128zM352 -8.99707c-43.333 0 -77.5 7.83496 -102.5 23.502s-43.167 32.5 -54.5 50.5v-247h-120v716h120l-2 -84c15.333 27.333 36.333 50 63 68s62 27 106 27c30 0 58.333 -5.83301 85 -17.5s50 -29 70 -52s35.833 -51.333 47.5 -85
s17.5 -72.834 17.5 -117.501c0 -43.333 -4.66699 -82.333 -14 -117s-23.5 -64.334 -42.5 -89.001s-43 -43.5 -72 -56.5s-62.833 -19.5 -101.5 -19.5z" />
    <glyph glyph-name="q" unicode="q" horiz-adv-x="623" 
d="M431 272c0 30 -3.33203 55.666 -9.99902 76.999s-16.167 38.833 -28.5 52.5s-27 23.834 -44 30.501s-35.833 10 -56.5 10c-44 0 -77 -13.667 -99 -41s-33 -70.666 -33 -129.999c0 -56.667 10.167 -100.334 30.5 -131.001s52.5 -46 96.5 -46
c45.333 0 80.666 13.833 105.999 41.5s38 73.167 38 136.5zM272.001 -9.00098c-74.667 0 -131.832 24.668 -171.499 74.001s-59.5 118.666 -59.5 207.999c0 43.333 5.66699 81.833 17 115.5s27 62.167 47 85.5s44 41 72 53s58.667 18 92 18
c41.333 0 74.5 -6.83301 99.5 -20.5s45.5 -32.167 61.5 -55.5l-2 65h120v-716h-120v256c-6 -10 -13.5 -19.833 -22.5 -29.5s-19.833 -18.5 -32.5 -26.5s-27.334 -14.5 -44.001 -19.5s-35.667 -7.5 -57 -7.5z" />
    <glyph glyph-name="r" unicode="r" horiz-adv-x="410" 
d="M195 534l-1.99902 -92.9971c9.33301 30 23 54.333 41 73s43 28 75 28c20 0 37 -3.33301 51 -10s25 -14.334 33 -23.001l-44 -118h-4c-5.33301 8 -12.333 15 -21 21s-21.334 9 -38.001 9c-15.333 0 -28.666 -4.16699 -39.999 -12.5s-20.833 -19.333 -28.5 -33
s-13.334 -29.334 -17.001 -47.001s-5.5 -35.834 -5.5 -54.501v-274h-120v534h120z" />
    <glyph glyph-name="s" unicode="s" horiz-adv-x="539" 
d="M256 545c54.667 0 100.333 -9.49902 137 -28.499s66.667 -46.167 90 -81.5l-86 -65c-30.667 50 -75.667 75 -135 75c-34 0 -58.333 -4.66699 -73 -14s-22 -22.666 -22 -39.999c0 -10.667 2.33301 -19.334 7 -26.001s12 -12.167 22 -16.5s22.667 -8 38 -11
s33.666 -5.83301 54.999 -8.5c26 -3.33301 51.333 -8.16602 76 -14.499s46.667 -15.833 66 -28.5s34.833 -29.334 46.5 -50.001s17.5 -47 17.5 -79c0 -24 -3.83301 -46.333 -11.5 -67s-20 -38.334 -37 -53.001s-39.167 -26.167 -66.5 -34.5s-60.666 -12.5 -99.999 -12.5
c-62.667 0 -114.5 12.167 -155.5 36.5s-71.833 58.833 -92.5 103.5l92 54c15.333 -26.667 34.5 -48.667 57.5 -66s55.167 -26 96.5 -26c28.667 0 52.667 4.5 72 13.5s29 24.5 29 46.5c0 10.667 -2.33301 19.5 -7 26.5s-12 12.833 -22 17.5s-22.833 8.5 -38.5 11.5
l-56.5 10.5c-26.667 4.66699 -52.167 10 -76.5 16s-45.833 15 -64.5 27s-33.5 28.167 -44.5 48.5s-16.5 46.5 -16.5 78.5c0 27.333 5.33301 51 16 71s25.167 36.333 43.5 49s39.833 22 64.5 28s51 9 79 9z" />
    <glyph glyph-name="t" unicode="t" horiz-adv-x="395" 
d="M239 132c0 -26.667 14.334 -40 43.001 -40c16.667 0 30.667 1.83301 42 5.5s20.666 8.5 27.999 14.5h3l-7 -109c-10 -4.66699 -22 -8.5 -36 -11.5s-31.667 -4.5 -53 -4.5c-44 0 -78.333 12 -103 36s-37 61.333 -37 112v297h-92v102h92v76c20.667 14 40.167 29 58.5 45
s37.833 35.667 58.5 59h3v-180h112v-102h-112v-300z" />
    <glyph glyph-name="u" unicode="u" 
d="M418 0l1.99902 85.998c-6 -11.333 -13.667 -22.666 -23 -33.999s-20.833 -21.666 -34.5 -30.999s-29.5 -17 -47.5 -23s-38.667 -9 -62 -9c-19.333 0 -39.666 3.5 -60.999 10.5s-41 18.167 -59 33.5s-33 35.333 -45 60s-18 54.667 -18 90v351h120v-323
c0 -36 7.5 -64.667 22.5 -86s39.833 -32 74.5 -32c37.333 0 68.5 12.833 93.5 38.5s37.5 66.167 37.5 121.5v281h120v-534h-120z" />
    <glyph glyph-name="v" unicode="v" horiz-adv-x="547" 
d="M155 534l124 -401l122 401h117l-172 -534h-139l-178 534h126z" />
    <glyph glyph-name="w" unicode="w" horiz-adv-x="843" 
d="M586 163l107 371h121l-167 -534h-123l-108 397l-112 -397h-123l-152 534h125l96 -371l107 371h123z" />
    <glyph glyph-name="x" unicode="x" horiz-adv-x="554" 
d="M156 0h-130l181 277l-166 257h141l96 -153l97 153h130l-162 -249l185 -285h-141l-115 182z" />
    <glyph glyph-name="y" unicode="y" horiz-adv-x="532" 
d="M29 534l127.999 -0.000976562l118 -366l111 366h117l-191 -592c-7.33301 -21.333 -17 -41.666 -29 -60.999s-26.667 -35.666 -44 -48.999c-13.333 -10.667 -29.333 -18.334 -48 -23.001s-37.667 -7 -57 -7c-41.333 0 -74.666 7.33301 -99.999 22l31 101h2
c12 -10.667 29.333 -16 52 -16c16 0 30.667 3.5 44 10.5s24 21.167 32 42.5l18 45z" />
    <glyph glyph-name="z" unicode="z" horiz-adv-x="522" 
d="M68 432v102h408v-89l-286 -344h293v-101h-441v98l279 334h-253z" />
    <glyph glyph-name="braceleft" unicode="{" horiz-adv-x="451" 
d="M391 -167c-85.333 5.33301 -148.001 22.8252 -188.001 52.4922s-60 74.834 -60 135.501c0 26 2.83301 51.5 8.5 76.5s8.5 50.167 8.5 75.5c0 14 -2 27.167 -6 39.5s-11 23 -21 32s-23.667 15.667 -41 20s-39.666 6.16602 -66.999 5.49902v103
c27.333 -1.33301 49.833 0.333984 67.5 5.00098s31.5 11.334 41.5 20.001s16.833 19 20.5 31s5.5 25 5.5 39c0 25.333 -2.83301 49.333 -8.5 72s-8.5 46.334 -8.5 71.001c0 60.667 20 105.834 60 135.501s102.667 47.167 188 52.5l8 -103
c-24 -3.33301 -44.333 -7.16602 -61 -11.499s-30 -10.333 -40 -18s-17.167 -17 -21.5 -28s-6.5 -24.833 -6.5 -41.5c0 -11.333 0.666992 -22.333 2 -33s3 -21.5 5 -32.5s3.66699 -22.667 5 -35s2 -25.833 2 -40.5c0 -32 -8.16699 -60.167 -24.5 -84.5
s-43.166 -41.166 -80.499 -50.499c37.333 -9.33301 64.166 -26.166 80.499 -50.499s24.5 -52.5 24.5 -84.5c0 -28.667 -2.33301 -55 -7 -79s-7 -48 -7 -72c0 -16.667 2.16699 -30.667 6.5 -42s11.5 -20.666 21.5 -27.999s23.333 -13.333 40 -18s37 -8.66699 61 -12z" />
    <glyph glyph-name="bar" unicode="|" horiz-adv-x="277" 
d="M81 813h115v-961h-115v961z" />
    <glyph glyph-name="braceright" unicode="}" horiz-adv-x="451" 
d="M52 -65c24 3.33301 44.332 7.34082 60.999 12.0078s30 10.667 40 18s17.167 16.666 21.5 27.999s6.5 25.333 6.5 42c0 24 -2.33301 48 -7 72s-7 50.333 -7 79c0 32 8.16699 60.167 24.5 84.5s43.166 41.166 80.499 50.499c-37.333 9.33301 -64.166 26.166 -80.499 50.499
s-24.5 52.5 -24.5 84.5c0 14.667 0.666992 28.167 2 40.5s3 24 5 35s3.66699 21.833 5 32.5s2 21.667 2 33c0 16.667 -2.16699 30.5 -6.5 41.5s-11.5 20.333 -21.5 28s-23.333 13.667 -40 18s-37 8.16602 -61 11.499l8 103c85.333 -5.33301 148 -22.833 188 -52.5
s60 -74.834 60 -135.501c0 -24.667 -2.83301 -48.334 -8.5 -71.001s-8.5 -46.667 -8.5 -72c0 -14 1.83301 -27 5.5 -39s10.5 -22.333 20.5 -31s23.833 -15.334 41.5 -20.001s40.167 -6.33398 67.5 -5.00098v-103c-27.333 0.666992 -49.666 -1.16602 -66.999 -5.49902
s-31 -11 -41 -20s-17 -19.667 -21 -32s-6 -25.5 -6 -39.5c0 -25.333 2.83301 -50.5 8.5 -75.5s8.5 -50.5 8.5 -76.5c0 -60.667 -20 -105.834 -60 -135.501s-102.667 -47.167 -188 -52.5z" />
    <glyph glyph-name="asciitilde" unicode="~" horiz-adv-x="516" 
d="M337 224c-18.667 0 -35.0029 3.16699 -49.0029 9.5s-26.667 13.166 -38 20.499l-31.5 20.5c-9.66699 6.33301 -19.5 9.5 -29.5 9.5c-15.333 0 -26.666 -5 -33.999 -15s-12.333 -23.667 -15 -41l-101 9c7.33301 51.333 23.833 90.833 49.5 118.5s56.834 41.5 93.501 41.5
c18 0 33.833 -3.16699 47.5 -9.5s26.167 -13.166 37.5 -20.499l31.5 -20.5c9.66699 -6.33301 20.167 -9.5 31.5 -9.5c15.333 0 26.333 4.66699 33 14s11.334 22.333 14.001 39l100 -8c-6 -47.333 -21.5 -85.5 -46.5 -114.5s-56.167 -43.5 -93.5 -43.5z" />
    <glyph glyph-name="Zcaron" horiz-adv-x="726" 
d="M442 803h-124l-101 156h78l86 -78l87 78h75zM70 634v119h606v-117l-455 -517h448v-119h-615v124l451 510h-435z" />
    <glyph glyph-name="Zcaron" unicode="&#x17d;" horiz-adv-x="726" 
d="M442 803h-124l-101 156h78l86 -78l87 78h75zM70 634v119h606v-117l-455 -517h448v-119h-615v124l451 510h-435z" />
    <glyph glyph-name="zcaron" horiz-adv-x="522" 
d="M336 595h-124l-101 156h78l86 -78l87 78h75zM68 432v102h408v-89l-286 -344h293v-101h-441v98l279 334h-253z" />
    <glyph glyph-name="zcaron" unicode="&#x17e;" horiz-adv-x="522" 
d="M336 595h-124l-101 156h78l86 -78l87 78h75zM68 432v102h408v-89l-286 -344h293v-101h-441v98l279 334h-253z" />
    <glyph glyph-name="uni00A0" unicode="&#xa0;" horiz-adv-x="247" 
 />
    <glyph glyph-name="exclamdown" unicode="&#xa1;" horiz-adv-x="318" 
d="M233 607h-148v146h148v-146zM88 0v220l37 291h68l37 -291v-220h-142z" />
    <glyph glyph-name="cent" unicode="&#xa2;" horiz-adv-x="564" 
d="M258 442c-32 -7.33301 -56.501 -24.666 -73.501 -51.999s-25.5 -65 -25.5 -113c0 -48.667 7.83301 -88.834 23.5 -120.501s40.834 -52.167 75.501 -61.5v347zM335.999 94c23.333 5.33301 42.332 15.8301 56.999 31.4971s26.667 36.834 36 63.501l96 -61
c-17.333 -37.333 -40.666 -67.833 -69.999 -91.5s-69 -38.167 -119 -43.5v-126h-78v126c-32 4 -61.333 13.333 -88 28s-49.5 34 -68.5 58s-33.833 52.167 -44.5 84.5s-16 68.166 -16 107.499c0 37.333 5.16699 71.5 15.5 102.5s25 58.333 44 82s41.833 42.834 68.5 57.501
s56.334 24.334 89.001 29.001v120h78v-119c45.333 -5.33301 83.5 -20 114.5 -44s53.5 -57.333 67.5 -100l-99 -52c-16.667 52.667 -44.334 84.334 -83.001 95.001v-348z" />
    <glyph glyph-name="sterling" unicode="&#xa3;" horiz-adv-x="627" 
d="M228 115c-10 10.667 -20.498 19.499 -31.498 26.499s-23.167 10.5 -36.5 10.5c-16 0 -28.167 -3.66699 -36.5 -11s-12.5 -16.666 -12.5 -27.999c0 -12.667 4.16699 -23.167 12.5 -31.5s21.5 -12.5 39.5 -12.5c13.333 0 26.166 3.66699 38.499 11s21.166 19 26.499 35z
M57.002 319.999l0.000976562 83.0029h72c-8.66699 18.667 -15.667 38 -21 58s-8 41.333 -8 64c0 32 5.66699 60.667 17 86s27.166 46.5 47.499 63.5s45.166 30 74.499 39s62 13.5 98 13.5c34.667 0 65.167 -4 91.5 -12s49.166 -19 68.499 -33s35.666 -30.667 48.999 -50
s24.666 -40.666 33.999 -63.999l-105 -49c-13.333 35.333 -30.666 61.666 -51.999 78.999s-50.666 26 -87.999 26c-76 0 -114 -33.667 -114 -101c0 -19.333 2.83301 -38.833 8.5 -58.5s12.834 -40.167 21.501 -61.5h193v-83h-157c11.333 -26.667 20.833 -54.167 28.5 -82.5
s11.5 -58.166 11.5 -89.499c0 -6.66699 -0.333008 -11.334 -1 -14.001c14.667 -11.333 29.334 -20.5 44.001 -27.5s30 -10.5 46 -10.5c25.333 0 44 7.33301 56 22s20.667 40 26 76l102 -14c-3.33301 -28.667 -8.83301 -54.667 -16.5 -78s-18 -43.166 -31 -59.499
s-29.167 -29 -48.5 -38s-42.333 -13.5 -69 -13.5c-32 0 -59.5 5.83301 -82.5 17.5s-43.167 25.167 -60.5 40.5c-16 -19.333 -35.833 -34.5 -59.5 -45.5s-48.167 -16.5 -73.5 -16.5c-20 0 -38.333 2.66699 -55 8s-31.334 13.166 -44.001 23.499s-22.5 23.166 -29.5 38.499
s-10.5 33 -10.5 53s3.5 37.5 10.5 52.5s16.5 27.833 28.5 38.5s25.667 18.667 41 24s31.666 8 48.999 8c26.667 0 52.334 -8.66699 77.001 -26c-4.66699 19.333 -11.667 38.166 -21 56.499s-19.666 37.166 -30.999 56.499h-117z" />
    <glyph glyph-name="currency" unicode="&#xa4;" horiz-adv-x="587" 
d="M293 225c64.667 0 97 39.332 97 117.999c0 36.667 -8.33301 65.334 -25 86.001s-40.667 31 -72 31c-30 0 -53.333 -9.83301 -70 -29.5s-25 -48.167 -25 -85.5c0 -38 8.16699 -67.5 24.5 -88.5s39.833 -31.5 70.5 -31.5zM392 159.999
c-14 -7.33301 -29.335 -13.167 -46.002 -17.5s-34.667 -6.5 -54 -6.5c-18 0 -35.167 2.16699 -51.5 6.5s-31.166 10.166 -44.499 17.499l-78 -82l-78 74l76 81c-18 30 -27 66 -27 108c0 41.333 9.33301 78.666 28 111.999l-77 82l78 75l79 -84c28 14.667 60 22 96 22
c36.667 0 69.334 -7.66699 98.001 -23l78 85l79 -75l-78 -82c18.667 -32 28 -68.667 28 -110c0 -21.333 -2.33301 -41.166 -7 -59.499s-11 -35.166 -19 -50.499l76 -81l-79 -74z" />
    <glyph glyph-name="yen" unicode="&#xa5;" horiz-adv-x="633" 
d="M377 269v-52h188v-81h-188v-136h-120v136h-183v81h183v52l-11 21h-172v81h129l-184 345h134l167 -336l169 336h125l-183 -345h134v-81h-177z" />
    <glyph glyph-name="brokenbar" unicode="&#xa6;" horiz-adv-x="277" 
d="M196 -148h-115v422h115v-422zM81 813h115v-425h-115v425z" />
    <glyph glyph-name="section" unicode="&#xa7;" horiz-adv-x="604" 
d="M451 284c0 30.667 -16.5 53.166 -49.5 67.499s-85.167 21.5 -156.5 21.5c-29.333 0 -52 -7.16699 -68 -21.5s-24 -31.166 -24 -50.499c0 -30 15.667 -52.667 47 -68s82.333 -23 153 -23c34 0 58.833 7.33301 74.5 22s23.5 32 23.5 52zM300 -133.001
c-53.333 0 -99.501 10.001 -138.501 30.001s-69.167 54 -90.5 102l92 46c11.333 -28 27.666 -48.5 48.999 -61.5s49.333 -19.5 84 -19.5s60.167 5.66699 76.5 17s24.5 27.333 24.5 48c0 12 -2 22 -6 30s-11.167 15 -21.5 21s-24.333 11.5 -42 16.5
s-40.167 10.167 -67.5 15.5c-32 6 -61.167 13.5 -87.5 22.5s-49.166 20.333 -68.499 34s-34.333 30.167 -45 49.5s-16 42 -16 68c0 38 10.167 68.5 30.5 91.5s51.5 40.167 93.5 51.5c-22 13.333 -39.5 30.666 -52.5 51.999s-19.5 49 -19.5 83
c0 27.333 5.5 51.166 16.5 71.499s26 37.333 45 51s40.667 23.834 65 30.501s50.166 10 77.499 10c52 0 96.167 -9.33301 132.5 -28s66.166 -48 89.499 -88l-90 -57c-13.333 25.333 -30 44.333 -50 57s-46 19 -78 19s-56.167 -6 -72.5 -18s-24.5 -28 -24.5 -48
c0 -12 2 -22.5 6 -31.5s11.333 -17 22 -24s24.834 -13.167 42.501 -18.5s40.167 -10.666 67.5 -15.999c33.333 -6.66699 63.5 -14.334 90.5 -23.001s49.833 -19.834 68.5 -33.501s33 -30.334 43 -50.001s15 -43.5 15 -71.5c0 -36 -8.66699 -65.333 -26 -88s-47 -42 -89 -58
c18.667 -11.333 33.834 -26.5 45.501 -45.5s17.5 -42.167 17.5 -69.5c0 -30 -5.33301 -55.667 -16 -77s-25.5 -38.666 -44.5 -51.999s-41.167 -23.166 -66.5 -29.499s-52.666 -9.5 -81.999 -9.5z" />
    <glyph glyph-name="dieresis" unicode="&#xa8;" horiz-adv-x="500" 
d="M100 711h116v-116h-116v116zM284 711h116v-116h-116v116z" />
    <glyph glyph-name="copyright" unicode="&#xa9;" horiz-adv-x="888" 
d="M442 135c-34 0 -64.835 6.16406 -92.502 18.4971s-51.334 29.333 -71.001 51s-34.834 47.334 -45.501 77.001s-16 61.834 -16 96.501s5.66699 66.834 17 96.501s27.166 55.334 47.499 77.001s44.333 38.667 72 51s57.834 18.5 90.501 18.5
c51.333 0 93.333 -11.167 126 -33.5s57.334 -54.5 74.001 -96.5l-90 -46c-9.33301 26.667 -22.333 46.167 -39 58.5s-39 18.5 -67 18.5c-34.667 0 -62.834 -12 -84.501 -36s-32.5 -59.667 -32.5 -107c0 -46.667 10.833 -82.334 32.5 -107.001s49.834 -37 84.501 -37
c28 0 51.333 7 70 21s32.334 33.667 41.001 59l92 -46c-17.333 -42 -42.666 -74.833 -75.999 -98.5s-77.666 -35.5 -132.999 -35.5zM442.998 53.9971c44.667 0 86.4971 7.99902 125.497 23.999s73 38.167 102 66.5s51.667 62.333 68 102s24.5 83.5 24.5 131.5
c0 47.333 -8 90.833 -24 130.5s-38.167 73.667 -66.5 102s-61.833 50.5 -100.5 66.5s-81 24 -127 24s-88.667 -8 -128 -24s-73.333 -38.333 -102 -67s-51 -63 -67 -103s-24 -83.667 -24 -131c0 -48 8.33301 -91.667 25 -131s39.334 -73.166 68.001 -101.499
s62.334 -50.333 101.001 -66s80.334 -23.5 125.001 -23.5zM442.995 -9.00391c-54 0 -104.501 9.83398 -151.501 29.501s-88 46.667 -123 81s-62.5 75 -82.5 122s-30 97.833 -30 152.5c0 54 10 104.5 30 151.5s47.5 88 82.5 123s76.167 62.667 123.5 83s98.333 30.5 153 30.5
s105.667 -10 153 -30s88.333 -47.5 123 -82.5s61.834 -75.833 81.501 -122.5s29.5 -97 29.5 -151c0 -54.667 -10 -105.667 -30 -153s-47.5 -88.333 -82.5 -123s-76.167 -61.834 -123.5 -81.501s-98.333 -29.5 -153 -29.5z" />
    <glyph glyph-name="ordfeminine" unicode="&#xaa;" horiz-adv-x="486" 
d="M137 402c0 -15.333 4.83398 -26.667 14.501 -34s23.167 -11 40.5 -11c16 0 31.167 2.33301 45.5 7s27.166 11.167 38.499 19.5s20.333 18.5 27 30.5s10 25.333 10 40v21c-27.333 -2 -51.833 -4.5 -73.5 -7.5s-40 -7 -55 -12s-26.667 -11.667 -35 -20
s-12.5 -19.5 -12.5 -33.5zM313.001 571.999c0 24.667 -7.00195 42.002 -21.002 52.002s-33.667 15 -59 15c-27.333 0 -49.5 -5.16699 -66.5 -15.5s-31.167 -27.5 -42.5 -51.5l-81 48c20.667 39.333 47.5 67 80.5 83s72.833 24 119.5 24c24 0 46.5 -2.83301 67.5 -8.5
s39.333 -14.834 55 -27.501s28 -28.667 37 -48s13.5 -42.333 13.5 -69v-193c0 -15.333 5.16699 -24.333 15.5 -27s21.166 -2.33398 32.499 0.999023h6l-14 -81c-6.66699 -1.33301 -14.5 -2.5 -23.5 -3.5s-17.167 -1.5 -24.5 -1.5c-25.333 0 -45 6 -59 18s-24 27.667 -30 47
c-13.333 -18.667 -30.666 -34.167 -51.999 -46.5s-51 -18.5 -89 -18.5c-18 0 -35.833 2.33301 -53.5 7s-33.167 12 -46.5 22s-24.166 23 -32.499 39s-12.5 35.667 -12.5 59c0 28 6.16699 51.333 18.5 70s30.333 34 54 46s52.834 21.333 87.501 28s74.667 12 120 16v16z" />
    <glyph glyph-name="guillemotleft" unicode="&#xab;" horiz-adv-x="541" 
d="M46 241l121 202h119l-120 -202l120 -202h-119zM249 241l121 202h119l-120 -202l120 -202h-119z" />
    <glyph glyph-name="logicalnot" unicode="&#xac;" horiz-adv-x="469" 
d="M293 304h-239v99h347v-249h-108v150z" />
    <glyph glyph-name="uni00AD" unicode="&#xad;" horiz-adv-x="408" 
d="M65 336h268v-118h-268v118z" />
    <glyph glyph-name="registered" unicode="&#xae;" horiz-adv-x="570" 
d="M299 540c26 0 39 10.333 39 31c0 19.333 -12.333 29 -37 29h-54v-60h52zM186 647h120.998c29.333 0 51.833 -6.66699 67.5 -20s23.5 -31 23.5 -53c0 -19.333 -5.5 -33.666 -16.5 -42.999s-23.5 -15.666 -37.5 -18.999c7.33301 -1.33301 14 -4.16602 20 -8.49902
s10.667 -10.833 14 -19.5c3.33301 -7.33301 6 -16.5 8 -27.5s4.66699 -22.167 8 -33.5c2.66699 -10.667 5.33398 -17 8.00098 -19v-3h-64c-1.33301 3.33301 -3 9.16602 -5 17.499s-4.66699 22.166 -8 41.499c-2 13.333 -6.66699 22.166 -14 26.499s-15.666 6.5 -24.999 6.5
h-39v-92h-61v246zM284.998 326c27.333 0 52.666 4.66699 75.999 14s43.5 22.5 60.5 39.5s30.167 37.5 39.5 61.5s14 50.333 14 79s-4.66699 54.834 -14 78.501s-22.166 44 -38.499 61s-36.166 30.167 -59.499 39.5s-49 14 -77 14s-53.833 -4.66699 -77.5 -14
s-43.834 -22.5 -60.501 -39.5s-29.667 -37.5 -39 -61.5s-14 -50.333 -14 -79s4.83301 -54.834 14.5 -78.501s23 -44 40 -61s37 -30.167 60 -39.5s48.167 -14 75.5 -14zM284.998 276c-34 0 -65.834 6.16797 -95.501 18.501s-55.667 29.333 -78 51
s-39.833 47.334 -52.5 77.001s-19 61.834 -19 96.501c0 34 6.33301 65.833 19 95.5s30 55.5 52 77.5s48 39.333 78 52s62.333 19 97 19s66.834 -6.33301 96.501 -19s55.5 -29.834 77.5 -51.501s39.167 -47.334 51.5 -77.001s18.5 -61.5 18.5 -95.5
c0 -34.667 -6.33301 -66.834 -19 -96.501s-30 -55.5 -52 -77.5s-48 -39.167 -78 -51.5s-62 -18.5 -96 -18.5z" />
    <glyph glyph-name="macron" unicode="&#xaf;" horiz-adv-x="500" 
d="M121 688h258v-99h-258v99z" />
    <glyph glyph-name="degree" unicode="&#xb0;" horiz-adv-x="417" 
d="M209 462c24 0 43.667 8.33203 59 24.999s23 40 23 70c0 28.667 -7.66699 51.834 -23 69.501s-35 26.5 -59 26.5s-43.5 -8.16699 -58.5 -24.5s-22.5 -39.5 -22.5 -69.5s7.5 -53.667 22.5 -71s34.5 -26 58.5 -26zM208 386.999c-24.667 0 -47.333 4.33203 -68 12.999
s-38.334 20.5 -53.001 35.5s-26.167 32.667 -34.5 53s-12.5 42.5 -12.5 66.5s4.16699 46.5 12.5 67.5s19.833 39.333 34.5 55s32.334 27.834 53.001 36.501s43.667 13 69 13c24.667 0 47.5 -4.33301 68.5 -13s38.833 -20.667 53.5 -36s26 -33.333 34 -54s12 -43 12 -67
s-4.16699 -46.5 -12.5 -67.5s-19.833 -39 -34.5 -54s-32.5 -26.833 -53.5 -35.5s-43.833 -13 -68.5 -13z" />
    <glyph glyph-name="plusminus" unicode="&#xb1;" horiz-adv-x="551" 
d="M65 109h416v-109h-416v109zM329 195h-111v146h-153v109h153v146h111v-146h152v-109h-152v-146z" />
    <glyph glyph-name="twosuperior" unicode="&#xb2;" horiz-adv-x="418" 
d="M37 588c4 16.667 10.502 33.002 19.502 49.002s20.667 30.5 35 43.5s32 23.5 53 31.5s46.167 12 75.5 12c53.333 0 93.5 -12.333 120.5 -37s40.5 -56.667 40.5 -96c0 -18 -3 -33.5 -9 -46.5s-14.333 -24.333 -25 -34s-22.834 -18.334 -36.501 -26.001
s-28.5 -14.834 -44.5 -21.501c-32 -14 -56.833 -26.5 -74.5 -37.5s-27.834 -23.167 -30.501 -36.5h214v-84h-340c0.666992 26.667 4 50.167 10 70.5s14.667 38.666 26 54.999s26 30.833 44 43.5s39.333 24.667 64 36c20 8.66699 36.333 16.334 49 23.001s22.667 13 30 19
s12.5 12 15.5 18s4.5 13 4.5 21c0 14.667 -4.83301 26.167 -14.5 34.5s-24.5 12.5 -44.5 12.5c-28 0 -48.5 -6.5 -61.5 -19.5s-23.167 -31.5 -30.5 -55.5z" />
    <glyph glyph-name="threesuperior" unicode="&#xb3;" horiz-adv-x="428" 
d="M121 446c8 -25.333 18.8311 -43 32.498 -53s33.5 -15 59.5 -15c24.667 0 42.334 4.33301 53.001 13s16 20.667 16 36s-4.16699 27 -12.5 35s-26.166 12 -53.499 12h-44v79h51c17.333 0 30.666 3.66699 39.999 11s14 19 14 35c0 15.333 -4.83301 27 -14.5 35
s-26.167 12 -49.5 12c-24.667 0 -43.667 -5.16699 -57 -15.5s-23.666 -26.833 -30.999 -49.5l-81 29c10.667 38 31.167 66.667 61.5 86s66.5 29 108.5 29c54 0 94.833 -11 122.5 -33s41.5 -50.333 41.5 -85c0 -26 -7 -46 -21 -60s-30.667 -23.667 -50 -29
c24.667 -4 44 -14.333 58 -31s21 -38.334 21 -65.001c0 -36.667 -14.833 -66.667 -44.5 -90s-72.167 -35 -127.5 -35c-46 0 -85.167 10.333 -117.5 31s-52.5 48.334 -60.5 83.001z" />
    <glyph glyph-name="acute" unicode="&#xb4;" horiz-adv-x="500" 
d="M263 747h161l-147 -152h-81z" />
    <glyph glyph-name="mu" unicode="&#xb5;" horiz-adv-x="618" 
d="M195 534v-323.002c0 -36 7.5 -64.667 22.5 -86s39.833 -32 74.5 -32c37.333 0 68.5 12.833 93.5 38.5s37.5 66.167 37.5 121.5v281h120v-534h-120l2 86c-6 -11.333 -13.5 -22.666 -22.5 -33.999s-20 -21.666 -33 -30.999s-28 -17 -45 -23s-36.833 -9 -59.5 -9
c-13.333 0 -26.333 1.66699 -39 5s-23 8.33301 -31 15v-191h-120v716h120z" />
    <glyph glyph-name="paragraph" unicode="&#xb6;" horiz-adv-x="728" 
d="M332 325l-39 0.00195312c-37.333 0 -71.333 4.33301 -102 13s-57 21.667 -79 39s-39.167 39.166 -51.5 65.499s-18.5 57.166 -18.5 92.499c0 36.667 6.5 68.667 19.5 96s30.667 50 53 68s48.833 31.5 79.5 40.5s63.667 13.5 99 13.5h411v-109h-65v-644h-112v644h-83v-644
h-112v325z" />
    <glyph glyph-name="periodcentered" unicode="&#xb7;" horiz-adv-x="318" 
d="M85 401h148v-146h-148v146z" />
    <glyph glyph-name="cedilla" unicode="&#xb8;" horiz-adv-x="497" 
d="M293 -231c-56.667 0 -96.666 19.333 -119.999 58l56 30c5.33301 -9.33301 12.833 -17.166 22.5 -23.499s22.167 -9.5 37.5 -9.5c14 0 25.5 3.16699 34.5 9.5s13.5 16.166 13.5 29.499c0 28 -13 42 -39 42c-11.333 0 -20 -1.66699 -26 -5s-11 -8 -15 -14h-54v114h63v-56
c5.33301 3.33301 11.833 6.33301 19.5 9s16.5 4 26.5 4c14 0 27.167 -2.16699 39.5 -6.5s23.166 -10.5 32.499 -18.5s16.833 -18 22.5 -30s8.5 -25.667 8.5 -41c0 -31.333 -11.833 -54.5 -35.5 -69.5s-52.5 -22.5 -86.5 -22.5z" />
    <glyph glyph-name="onesuperior" unicode="&#xb9;" horiz-adv-x="270" 
d="M207 716l0.000976562 -413.002h-100v271c-7.33301 -5.33301 -18.5 -10.166 -33.5 -14.499s-30.167 -7.16602 -45.5 -8.49902v75c55.333 11.333 88.666 41.333 99.999 90h79z" />
    <glyph glyph-name="ordmasculine" unicode="&#xba;" horiz-adv-x="505" 
d="M147 501c0 -21.333 1.66602 -41.167 4.99902 -59.5s9 -34.333 17 -48s18.667 -24.5 32 -32.5s30 -12 50 -12c20.667 0 38 3.66699 52 11s25 17.5 33 30.5s13.667 28.5 17 46.5s5 37.667 5 59c0 20 -2 38.833 -6 56.5s-10.167 33.167 -18.5 46.5
s-19.166 23.833 -32.499 31.5s-29.333 11.5 -48 11.5c-38 0 -65.167 -13 -81.5 -39s-24.5 -60 -24.5 -102zM463.999 496.999c-0.666992 -76 -19.6689 -133.668 -57.002 -173.001s-89 -59 -155 -59c-32 0 -60.833 5.33301 -86.5 16s-47.667 26 -66 46
s-32.666 44.167 -42.999 72.5s-15.5 60.166 -15.5 95.499c0 36.667 5.16699 69.334 15.5 98.001s25 53 44 73s41.333 35.167 67 45.5s53.834 15.5 84.501 15.5c32 0 61 -5.33301 87 -16s48.333 -26 67 -46s33 -44.167 43 -72.5s15 -60.166 15 -95.499z" />
    <glyph glyph-name="guillemotright" unicode="&#xbb;" horiz-adv-x="542" 
d="M173 241l-121 202h119l122 -202l-122 -202h-119zM376 241l-121 202h119l122 -202l-122 -202h-119z" />
    <glyph glyph-name="onequarter" unicode="&#xbc;" horiz-adv-x="859" 
d="M679 300c-5.33301 -10 -12.5 -21.334 -21.5 -34.001s-19 -25.5 -30 -38.5l-33.5 -38c-11.333 -12.333 -22 -23.166 -32 -32.499h113zM207 715.999l0.000976562 -413.002h-100v271c-7.33301 -5.33301 -18.5 -10.166 -33.5 -14.499s-30.167 -7.16602 -45.5 -8.49902v75
c55.333 11.333 88.666 41.333 99.999 90h79zM526.001 715.997h101l-338 -716h-102zM773.001 -0.00292969l-97.998 0.000976562v83h-206v74c17.333 17.333 36.166 37.166 56.499 59.499s39.833 45 58.5 68s35.667 45.667 51 68s26.666 42.5 33.999 60.5h104v-256h63v-74h-63
v-83z" />
    <glyph glyph-name="onehalf" unicode="&#xbd;" horiz-adv-x="911" 
d="M207 716l0.000976562 -413.002h-100v271c-7.33301 -5.33301 -18.5 -10.166 -33.5 -14.499s-30.167 -7.16602 -45.5 -8.49902v75c55.333 11.333 88.666 41.333 99.999 90h79zM526.001 715.998h101l-338 -716h-102zM536.001 282.998c4 16.667 10.502 33.002 19.502 49.002
s20.667 30.5 35 43.5s32 23.5 53 31.5s46.167 12 75.5 12c53.333 0 93.5 -12.333 120.5 -37s40.5 -56.667 40.5 -96c0 -18 -3 -33.5 -9 -46.5s-14.333 -24.333 -25 -34s-22.834 -18.334 -36.501 -26.001s-28.5 -14.834 -44.5 -21.501c-32 -14 -56.833 -26.5 -74.5 -37.5
s-27.834 -23.167 -30.501 -36.5h214v-84h-340c0.666992 26.667 4 50.167 10 70.5s14.667 38.666 26 54.999s26 30.833 44 43.5s39.333 24.667 64 36c20 8.66699 36.333 16.334 49 23.001s22.667 13 30 19s12.5 12 15.5 18s4.5 13 4.5 21
c0 14.667 -4.83301 26.167 -14.5 34.5s-24.5 12.5 -44.5 12.5c-28 0 -48.5 -6.5 -61.5 -19.5s-23.167 -31.5 -30.5 -55.5z" />
    <glyph glyph-name="threequarters" unicode="&#xbe;" horiz-adv-x="967" 
d="M787 300c-5.33301 -10 -12.5 -21.334 -21.5 -34.001s-19 -25.5 -30 -38.5l-33.5 -38c-11.333 -12.333 -22 -23.166 -32 -32.499h113zM634 715.999h101l-338 -716h-102zM121 445.999c8 -25.333 18.832 -43 32.499 -53s33.5 -15 59.5 -15
c24.667 0 42.334 4.33301 53.001 13s16 20.667 16 36s-4.16699 27 -12.5 35s-26.166 12 -53.499 12h-44v79h51c17.333 0 30.666 3.66699 39.999 11s14 19 14 35c0 15.333 -5 27 -15 35s-26.333 12 -49 12c-25.333 0 -44.5 -5.16699 -57.5 -15.5s-23.167 -26.833 -30.5 -49.5
l-81 29c10.667 38 31.167 66.667 61.5 86s66.5 29 108.5 29c54 0 94.833 -11 122.5 -33s41.5 -50.333 41.5 -85c0 -26 -7 -46 -21 -60s-30.667 -23.667 -50 -29c24.667 -4 44 -14.333 58 -31s21 -38.334 21 -65.001c0 -36.667 -14.833 -66.667 -44.5 -90
s-72.167 -35 -127.5 -35c-46 0 -85.167 10.333 -117.5 31s-52.5 48.334 -60.5 83.001zM880.999 -0.000976562l-97.998 0.000976562v83h-206v74c17.333 17.333 36.166 37.166 56.499 59.499s39.833 45 58.5 68s35.667 45.667 51 68s26.666 42.5 33.999 60.5h104v-256h63v-74
h-63v-83z" />
    <glyph glyph-name="questiondown" unicode="&#xbf;" horiz-adv-x="564" 
d="M391 607h-148v146h148v-146zM537 150c-16 -49.333 -46.332 -88.8281 -90.999 -118.495s-102 -44.5 -172 -44.5c-38 0 -71.167 4.66699 -99.5 14s-52 22.333 -71 39s-33.333 36.167 -43 58.5s-14.5 46.5 -14.5 72.5c0 23.333 2.66699 43.666 8 60.999
s12.833 32.833 22.5 46.5s21.334 26 35.001 37s28.834 21.5 45.501 31.5c18.667 11.333 34.667 21.666 48 30.999s24 18.833 32 28.5s13.833 20.167 17.5 31.5s5.5 24.666 5.5 39.999v33h118v-45c0 -26 -3.66699 -49 -11 -69s-17 -37.833 -29 -53.5
s-25.833 -29.334 -41.5 -41.001s-31.834 -22.5 -48.501 -32.5c-17.333 -10.667 -32.333 -22.667 -45 -36s-19 -31.666 -19 -54.999c0 -24.667 7.66699 -44.334 23 -59.001s39.666 -22 72.999 -22c42 0 75.167 9.16699 99.5 27.5s43.166 44.166 56.499 77.499z" />
    <glyph glyph-name="Agrave" unicode="&#xc0;" horiz-adv-x="717" 
d="M183 955h160l67 -152h-81zM357 591l-101 -299h199zM158 0h-130l261 753h148l252 -753h-139l-57 176h-276z" />
    <glyph glyph-name="Aacute" unicode="&#xc1;" horiz-adv-x="717" 
d="M376 955h161l-147 -152h-81zM357 591l-101 -299h199zM158 0h-130l261 753h148l252 -753h-139l-57 176h-276z" />
    <glyph glyph-name="Acircumflex" unicode="&#xc2;" horiz-adv-x="717" 
d="M301 959h124l101 -156h-78l-86 78l-87 -78h-75zM357 591l-101 -299h199zM158 0h-130l261 753h148l252 -753h-139l-57 176h-276z" />
    <glyph glyph-name="Atilde" unicode="&#xc3;" horiz-adv-x="717" 
d="M357 591l-101 -299h199zM424 803c-14.667 0 -27.665 2.33301 -38.998 7s-21.5 10 -30.5 16s-17.5 11.333 -25.5 16s-16.333 7 -25 7c-11.333 0 -20 -3.83301 -26 -11.5s-10.333 -18.167 -13 -31.5l-79 7c5.33301 41.333 18.166 73 38.499 95s46.166 33 77.499 33
c14.667 0 27.5 -2.33301 38.5 -7s21 -10 30 -16s17.5 -11.333 25.5 -16s16.667 -7 26 -7c12 0 20 3.5 24 10.5s7 17.167 9 30.5l84 -7c-5.33301 -38 -17.833 -68.5 -37.5 -91.5s-45.5 -34.5 -77.5 -34.5zM158.002 0h-130l261 753h148l252 -753h-139l-57 176h-276z" />
    <glyph glyph-name="Adieresis" unicode="&#xc4;" horiz-adv-x="717" 
d="M210 919h116v-116h-116v116zM394 919h116v-116h-116v116zM357 591l-101 -299h199zM158 0h-130l261 753h148l252 -753h-139l-57 176h-276z" />
    <glyph glyph-name="Aring" unicode="&#xc5;" horiz-adv-x="717" 
d="M359 766c16 0 28.833 5 38.5 15s14.5 25.333 14.5 46c0 19.333 -4.83301 34.333 -14.5 45s-22.5 16 -38.5 16s-28.833 -5 -38.5 -15s-14.5 -25 -14.5 -45s4.83301 -35.333 14.5 -46s22.5 -16 38.5 -16zM357 591l-101 -299h199zM158 0h-130.001l253 731
c-29.333 22 -44 53.333 -44 94c0 34.667 11 63.5 33 86.5s51.667 34.5 89 34.5c18 0 34.5 -3.16699 49.5 -9.5s27.833 -14.833 38.5 -25.5s18.834 -23.167 24.501 -37.5s8.5 -29.833 8.5 -46.5c-1.33301 -38 -14 -68 -38 -90l247 -737h-139l-57 176h-276z" />
    <glyph glyph-name="AE" unicode="&#xc6;" horiz-adv-x="1233" 
d="M583 637l-233 -355h233v355zM1151 629h-431v-184h364v-121h-364v-200h450v-124h-587v166h-309l-109 -166h-145l494 753h637v-124z" />
    <glyph glyph-name="Ccedilla" unicode="&#xc7;" horiz-adv-x="782" 
d="M353 -8c-48 8 -90.167 23.002 -126.5 45.002s-66.666 49.667 -90.999 83s-42.666 71.833 -54.999 115.5s-18.5 91.167 -18.5 142.5c0 55.333 8 106.666 24 153.999s39.667 88.333 71 123s69.833 61.834 115.5 81.501s98.167 29.5 157.5 29.5
c78.667 0 143.667 -18.333 195 -55s88.333 -87.334 111 -152.001l-117 -65c-7.33301 20.667 -16.333 40 -27 58s-23.5 33.667 -38.5 47s-32.667 24 -53 32s-43.833 12 -70.5 12c-39.333 0 -73 -6.5 -101 -19.5s-50.833 -31 -68.5 -54s-30.667 -50.833 -39 -83.5
s-12.5 -68.334 -12.5 -107.001c0 -42 4 -79.5 12 -112.5s20.833 -61 38.5 -84s40.5 -40.5 68.5 -52.5s62.333 -18 103 -18c28 0 52.333 3.5 73 10.5s38.667 16.667 54 29s28.333 27 39 44s20 35.833 28 56.5l116 -63c-10 -27.333 -23.5 -53.166 -40.5 -77.499
s-38.333 -45.833 -64 -64.5s-55.834 -33.334 -90.501 -44.001s-74.667 -16 -120 -16h-10v-43c5.33301 3.33301 11.833 6.33301 19.5 9s16.5 4 26.5 4c14 0 27.167 -2.16699 39.5 -6.5s23.166 -10.5 32.499 -18.5s16.833 -18 22.5 -30s8.5 -25.667 8.5 -41
c0 -31.333 -11.833 -54.5 -35.5 -69.5s-52.5 -22.5 -86.5 -22.5c-56.667 0 -96.667 19.333 -120 58l56 30c5.33301 -9.33301 12.833 -17.166 22.5 -23.499s22.167 -9.5 37.5 -9.5c14 0 25.5 3.16699 34.5 9.5s13.5 16.166 13.5 29.499c0 28 -13 42 -39 42
c-11.333 0 -20 -1.66699 -26 -5s-11 -8 -15 -14h-54v106z" />
    <glyph glyph-name="Egrave" unicode="&#xc8;" horiz-adv-x="760" 
d="M223 955h160l67 -152h-81zM234 124h463v-124h-600v753h581v-124h-444v-184h377v-121h-377v-200z" />
    <glyph glyph-name="Eacute" unicode="&#xc9;" horiz-adv-x="760" 
d="M393 955h161l-147 -152h-81zM234 124h463v-124h-600v753h581v-124h-444v-184h377v-121h-377v-200z" />
    <glyph glyph-name="Ecircumflex" unicode="&#xca;" horiz-adv-x="760" 
d="M336 959h124l101 -156h-78l-86 78l-87 -78h-75zM234 124h463v-124h-600v753h581v-124h-444v-184h377v-121h-377v-200z" />
    <glyph glyph-name="Edieresis" unicode="&#xcb;" horiz-adv-x="760" 
d="M240 919h116v-116h-116v116zM424 919h116v-116h-116v116zM234 124h463v-124h-600v753h581v-124h-444v-184h377v-121h-377v-200z" />
    <glyph glyph-name="Igrave" unicode="&#xcc;" horiz-adv-x="355" 
d="M2 955h160l67 -152h-81zM246 753v-753h-137v753h137z" />
    <glyph glyph-name="Iacute" unicode="&#xcd;" horiz-adv-x="355" 
d="M194 955h161l-147 -152h-81zM246 753v-753h-137v753h137z" />
    <glyph glyph-name="Icircumflex" unicode="&#xce;" horiz-adv-x="355" 
d="M115 959h124l101 -156h-78l-86 78l-87 -78h-75zM246 753v-753h-137v753h137z" />
    <glyph glyph-name="Idieresis" unicode="&#xcf;" horiz-adv-x="355" 
d="M27 919h116v-116h-116v116zM211 919h116v-116h-116v116zM246 753v-753h-137v753h137z" />
    <glyph glyph-name="Eth" unicode="&#xd0;" horiz-adv-x="812" 
d="M376 430v-115h-142v-194h173c64.667 0 115 21.167 151 63.5s54 107.166 54 194.499c0 78.667 -18 140.334 -54 185.001s-86.667 67 -152 67h-172v-201h142zM18 315v115.002h79v323h303c58.667 0 110 -9.66699 154 -29s80.5 -46 109.5 -80s50.667 -73.833 65 -119.5
s21.5 -94.5 21.5 -146.5c0 -50.667 -5.66699 -98.834 -17 -144.501s-30.5 -85.834 -57.5 -120.501s-63 -62.167 -108 -82.5s-101.5 -30.5 -169.5 -30.5h-301v315h-79z" />
    <glyph glyph-name="Ntilde" unicode="&#xd1;" horiz-adv-x="805" 
d="M479 803c-14.667 0 -27.665 2.33301 -38.998 7s-21.5 10 -30.5 16s-17.5 11.333 -25.5 16s-16.333 7 -25 7c-11.333 0 -20 -3.83301 -26 -11.5s-10.333 -18.167 -13 -31.5l-79 7c5.33301 41.333 18.166 73 38.499 95s46.166 33 77.499 33c14.667 0 27.5 -2.33301 38.5 -7
s21 -10 30 -16s17.5 -11.333 25.5 -16s16.667 -7 26 -7c12 0 20 3.5 24 10.5s7 17.167 9 30.5l84 -7c-5.33301 -38 -17.833 -68.5 -37.5 -91.5s-45.5 -34.5 -77.5 -34.5zM584.002 753h124v-753h-137l-350 564v-564h-124v753h159l328 -520v520z" />
    <glyph glyph-name="Ograve" unicode="&#xd2;" horiz-adv-x="877" 
d="M263 955h160l67 -152h-81zM438 643c-37.333 0 -70.166 -6.49902 -98.499 -19.499s-52.166 -31 -71.499 -54s-34 -50.833 -44 -83.5s-15 -68.334 -15 -107.001c0 -84 19.667 -149.5 59 -196.5s96.333 -70.5 171 -70.5c77.333 0 134.833 21.5 172.5 64.5
s56.5 111.167 56.5 204.5c0 39.333 -5 75 -15 107s-24.833 59.5 -44.5 82.5s-43.834 40.833 -72.501 53.5s-61.334 19 -98.001 19zM62 378.001c0 54 8.83105 104.497 26.498 151.497s42.834 88 75.501 123s72.167 62.667 118.5 83s98.166 30.5 155.499 30.5
c56.667 0 108.334 -9.66699 155.001 -29s86.334 -46.166 119.001 -80.499s58 -75 76 -122s27 -98.5 27 -154.5c0 -57.333 -8 -110.166 -24 -158.499s-39.833 -89.833 -71.5 -124.5s-70.667 -61.667 -117 -81s-99.833 -29 -160.5 -29c-58 0 -110.333 9.66699 -157 29
s-86.5 46.333 -119.5 81s-58.5 75.834 -76.5 123.501s-27 100.167 -27 157.5z" />
    <glyph glyph-name="Oacute" unicode="&#xd3;" horiz-adv-x="877" 
d="M452 955h161l-147 -152h-81zM438 643c-37.333 0 -70.166 -6.49902 -98.499 -19.499s-52.166 -31 -71.499 -54s-34 -50.833 -44 -83.5s-15 -68.334 -15 -107.001c0 -84 19.667 -149.5 59 -196.5s96.333 -70.5 171 -70.5c77.333 0 134.833 21.5 172.5 64.5
s56.5 111.167 56.5 204.5c0 39.333 -5 75 -15 107s-24.833 59.5 -44.5 82.5s-43.834 40.833 -72.501 53.5s-61.334 19 -98.001 19zM62 378.001c0 54 8.83105 104.497 26.498 151.497s42.834 88 75.501 123s72.167 62.667 118.5 83s98.166 30.5 155.499 30.5
c56.667 0 108.334 -9.66699 155.001 -29s86.334 -46.166 119.001 -80.499s58 -75 76 -122s27 -98.5 27 -154.5c0 -57.333 -8 -110.166 -24 -158.499s-39.833 -89.833 -71.5 -124.5s-70.667 -61.667 -117 -81s-99.833 -29 -160.5 -29c-58 0 -110.333 9.66699 -157 29
s-86.5 46.333 -119.5 81s-58.5 75.834 -76.5 123.501s-27 100.167 -27 157.5z" />
    <glyph glyph-name="Ocircumflex" unicode="&#xd4;" horiz-adv-x="877" 
d="M376 959h124l101 -156h-78l-86 78l-87 -78h-75zM438 643c-37.333 0 -70.166 -6.49902 -98.499 -19.499s-52.166 -31 -71.499 -54s-34 -50.833 -44 -83.5s-15 -68.334 -15 -107.001c0 -84 19.667 -149.5 59 -196.5s96.333 -70.5 171 -70.5
c77.333 0 134.833 21.5 172.5 64.5s56.5 111.167 56.5 204.5c0 39.333 -5 75 -15 107s-24.833 59.5 -44.5 82.5s-43.834 40.833 -72.501 53.5s-61.334 19 -98.001 19zM62 378.001c0 54 8.83105 104.497 26.498 151.497s42.834 88 75.501 123s72.167 62.667 118.5 83
s98.166 30.5 155.499 30.5c56.667 0 108.334 -9.66699 155.001 -29s86.334 -46.166 119.001 -80.499s58 -75 76 -122s27 -98.5 27 -154.5c0 -57.333 -8 -110.166 -24 -158.499s-39.833 -89.833 -71.5 -124.5s-70.667 -61.667 -117 -81s-99.833 -29 -160.5 -29
c-58 0 -110.333 9.66699 -157 29s-86.5 46.333 -119.5 81s-58.5 75.834 -76.5 123.501s-27 100.167 -27 157.5z" />
    <glyph glyph-name="Otilde" unicode="&#xd5;" horiz-adv-x="877" 
d="M502 803c-14.667 0 -27.665 2.33301 -38.998 7s-21.5 10 -30.5 16s-17.5 11.333 -25.5 16s-16.333 7 -25 7c-11.333 0 -20 -3.83301 -26 -11.5s-10.333 -18.167 -13 -31.5l-79 7c5.33301 41.333 18.166 73 38.499 95s46.166 33 77.499 33c14.667 0 27.5 -2.33301 38.5 -7
s21 -10 30 -16s17.5 -11.333 25.5 -16s16.667 -7 26 -7c12 0 20 3.5 24 10.5s7 17.167 9 30.5l84 -7c-5.33301 -38 -17.833 -68.5 -37.5 -91.5s-45.5 -34.5 -77.5 -34.5zM438.002 643c-37.333 0 -70.166 -6.49902 -98.499 -19.499s-52.166 -31 -71.499 -54
s-34 -50.833 -44 -83.5s-15 -68.334 -15 -107.001c0 -84 19.667 -149.5 59 -196.5s96.333 -70.5 171 -70.5c77.333 0 134.833 21.5 172.5 64.5s56.5 111.167 56.5 204.5c0 39.333 -5 75 -15 107s-24.833 59.5 -44.5 82.5s-43.834 40.833 -72.501 53.5s-61.334 19 -98.001 19
zM62.002 378.001c0 54 8.83105 104.497 26.498 151.497s42.834 88 75.501 123s72.167 62.667 118.5 83s98.166 30.5 155.499 30.5c56.667 0 108.334 -9.66699 155.001 -29s86.334 -46.166 119.001 -80.499s58 -75 76 -122s27 -98.5 27 -154.5
c0 -57.333 -8 -110.166 -24 -158.499s-39.833 -89.833 -71.5 -124.5s-70.667 -61.667 -117 -81s-99.833 -29 -160.5 -29c-58 0 -110.333 9.66699 -157 29s-86.5 46.333 -119.5 81s-58.5 75.834 -76.5 123.501s-27 100.167 -27 157.5z" />
    <glyph glyph-name="Odieresis" unicode="&#xd6;" horiz-adv-x="877" 
d="M285 919h116v-116h-116v116zM469 919h116v-116h-116v116zM438 643c-37.333 0 -70.166 -6.49902 -98.499 -19.499s-52.166 -31 -71.499 -54s-34 -50.833 -44 -83.5s-15 -68.334 -15 -107.001c0 -84 19.667 -149.5 59 -196.5s96.333 -70.5 171 -70.5
c77.333 0 134.833 21.5 172.5 64.5s56.5 111.167 56.5 204.5c0 39.333 -5 75 -15 107s-24.833 59.5 -44.5 82.5s-43.834 40.833 -72.501 53.5s-61.334 19 -98.001 19zM62 378.001c0 54 8.83105 104.497 26.498 151.497s42.834 88 75.501 123s72.167 62.667 118.5 83
s98.166 30.5 155.499 30.5c56.667 0 108.334 -9.66699 155.001 -29s86.334 -46.166 119.001 -80.499s58 -75 76 -122s27 -98.5 27 -154.5c0 -57.333 -8 -110.166 -24 -158.499s-39.833 -89.833 -71.5 -124.5s-70.667 -61.667 -117 -81s-99.833 -29 -160.5 -29
c-58 0 -110.333 9.66699 -157 29s-86.5 46.333 -119.5 81s-58.5 75.834 -76.5 123.501s-27 100.167 -27 157.5z" />
    <glyph glyph-name="multiply" unicode="&#xd7;" horiz-adv-x="522" 
d="M261 227l-11.999 -13.5c-8 -9 -17.833 -19.5 -29.5 -31.5l-35.5 -37.5l-29.5 -32c-7.66699 -8.33301 -11.834 -12.833 -12.501 -13.5l-72 66l124 133l-124 132l71 65l12.5 -13l29.5 -31.5l35.5 -37.5l29.5 -31l12 -13l120 128l72 -66l-124 -133l124 -131l-72 -66z" />
    <glyph glyph-name="Oslash" unicode="&#xd8;" horiz-adv-x="877" 
d="M575 603c-37.333 28 -83.001 42.002 -137.001 42.002c-37.333 0 -70.166 -6.5 -98.499 -19.5s-52.333 -31.333 -72 -55s-34.5 -51.834 -44.5 -84.501s-15 -68.334 -15 -107.001c0 -54 8.66699 -101.333 26 -142zM301.999 150.002c38 -26.667 83.667 -40 137 -40
c77.333 0 135 21.833 173 65.5s57 112.167 57 205.5c0 50 -8.66699 95 -26 135zM135.999 132.002c-23.333 32.667 -41.499 69.833 -54.499 111.5s-19.5 86.5 -19.5 134.5c0 54 8.83301 104.5 26.5 151.5s42.834 88 75.501 123s72.167 62.667 118.5 83
s98.166 30.5 155.499 30.5c44 0 85 -5.83301 123 -17.5s72 -28.5 102 -50.5l51 55h150c-0.666992 -0.666992 -4.83398 -5.16699 -12.501 -13.5l-30.5 -32.5l-36.5 -39l-30.5 -32.5l-13 -13.5c24 -32.667 42.333 -69.334 55 -110.001s19 -84.667 19 -132
c0 -57.333 -8 -110.166 -24 -158.499s-39.833 -89.833 -71.5 -124.5s-70.667 -61.667 -117 -81s-99.833 -29 -160.5 -29c-45.333 0 -87 6 -125 18s-72.333 28.667 -103 50l-51 -55h-150z" />
    <glyph glyph-name="Ugrave" unicode="&#xd9;" horiz-adv-x="805" 
d="M242 955h160l67 -152h-81zM407 -13c-105.333 0 -185.166 23.832 -239.499 71.499s-81.5 125.5 -81.5 233.5v461h137v-485c0 -30 4.16699 -55.333 12.5 -76s20.166 -37.334 35.499 -50.001s34.333 -21.667 57 -27s48.667 -8 78 -8c60 0 104.333 12.333 133 37
s43 68.334 43 131.001v478h137v-467c0 -51.333 -5.83301 -95.666 -17.5 -132.999s-30 -68.333 -55 -93s-57.167 -43 -96.5 -55s-87 -18 -143 -18z" />
    <glyph glyph-name="Uacute" unicode="&#xda;" horiz-adv-x="805" 
d="M416 955h161l-147 -152h-81zM407 -13c-105.333 0 -185.166 23.832 -239.499 71.499s-81.5 125.5 -81.5 233.5v461h137v-485c0 -30 4.16699 -55.333 12.5 -76s20.166 -37.334 35.499 -50.001s34.333 -21.667 57 -27s48.667 -8 78 -8c60 0 104.333 12.333 133 37
s43 68.334 43 131.001v478h137v-467c0 -51.333 -5.83301 -95.666 -17.5 -132.999s-30 -68.333 -55 -93s-57.167 -43 -96.5 -55s-87 -18 -143 -18z" />
    <glyph glyph-name="Ucircumflex" unicode="&#xdb;" horiz-adv-x="805" 
d="M342 959h124l101 -156h-78l-86 78l-87 -78h-75zM407 -13c-105.333 0 -185.166 23.832 -239.499 71.499s-81.5 125.5 -81.5 233.5v461h137v-485c0 -30 4.16699 -55.333 12.5 -76s20.166 -37.334 35.499 -50.001s34.333 -21.667 57 -27s48.667 -8 78 -8
c60 0 104.333 12.333 133 37s43 68.334 43 131.001v478h137v-467c0 -51.333 -5.83301 -95.666 -17.5 -132.999s-30 -68.333 -55 -93s-57.167 -43 -96.5 -55s-87 -18 -143 -18z" />
    <glyph glyph-name="Udieresis" unicode="&#xdc;" horiz-adv-x="805" 
d="M252 919h116v-116h-116v116zM436 919h116v-116h-116v116zM407 -13c-105.333 0 -185.166 23.832 -239.499 71.499s-81.5 125.5 -81.5 233.5v461h137v-485c0 -30 4.16699 -55.333 12.5 -76s20.166 -37.334 35.499 -50.001s34.333 -21.667 57 -27s48.667 -8 78 -8
c60 0 104.333 12.333 133 37s43 68.334 43 131.001v478h137v-467c0 -51.333 -5.83301 -95.666 -17.5 -132.999s-30 -68.333 -55 -93s-57.167 -43 -96.5 -55s-87 -18 -143 -18z" />
    <glyph glyph-name="Yacute" unicode="&#xdd;" horiz-adv-x="704" 
d="M370 955h161l-147 -152h-81zM18 753h159l183 -328l178 328h148l-258 -463v-290h-137v279z" />
    <glyph glyph-name="Thorn" unicode="&#xde;" horiz-adv-x="762" 
d="M469 294c15.333 0 29.667 1.66895 43 5.00195s25 8.83301 35 16.5s18 17.667 24 30s9 27.833 9 46.5c0 18 -3 33.167 -9 45.5s-14.167 22.166 -24.5 29.499s-22.333 12.666 -36 15.999s-28.5 5 -44.5 5h-232v-194h235zM475.001 613.002
c33.333 0 64.998 -4.5 94.998 -13.5s56.167 -22.5 78.5 -40.5s40 -40.5 53 -67.5s19.5 -58.833 19.5 -95.5c0 -38 -6.16699 -70.833 -18.5 -98.5s-29.666 -50.667 -51.999 -69s-48.666 -32 -78.999 -41s-63.5 -13.5 -99.5 -13.5h-238v-174h-137v753h137v-140h241z" />
    <glyph glyph-name="germandbls" unicode="&#xdf;" horiz-adv-x="592" 
d="M345 -10c-19.333 0 -37.8359 1.83301 -55.5029 5.5s-30.834 7.83398 -39.501 12.501l13 101h2c6.66699 -4.66699 15.667 -8.33398 27 -11.001s23 -4 35 -4c14.667 0 28.334 2 41.001 6s23.334 11.167 32.001 21.5s15.5 24 20.5 41s7.5 38.5 7.5 64.5
c0 54 -12.667 93.833 -38 119.5s-65 37.5 -119 35.5v93c22 0 41 2.83301 57 8.5s29.333 13 40 22s18.5 19.5 23.5 31.5s7.5 24 7.5 36c0 26 -8 47.667 -24 65s-40.333 26 -73 26c-34.667 0 -61.167 -7.33301 -79.5 -22s-27.5 -39.667 -27.5 -75v-567h-120v553
c0 37.333 6.16699 69.5 18.5 96.5s28.833 49 49.5 66s44.834 29.5 72.501 37.5s56.834 12 87.501 12c31.333 0 60 -4.5 86 -13.5s48.167 -21.667 66.5 -38s32.666 -36 42.999 -59s15.5 -48.5 15.5 -76.5c0 -32.667 -8.16699 -61.334 -24.5 -86.001
s-38.833 -42.667 -67.5 -54c38.667 -12.667 69.834 -37.5 93.501 -74.5s35.5 -84.5 35.5 -142.5c0 -79.333 -18.333 -137.666 -55 -174.999s-87 -56 -151 -56z" />
    <glyph glyph-name="agrave" unicode="&#xe0;" horiz-adv-x="584" 
d="M116 747h160l67 -152h-81zM382 246c-34 -2.66699 -65 -5.83301 -93 -9.5s-52 -9 -72 -16s-35.5 -16.167 -46.5 -27.5s-16.5 -26 -16.5 -44c0 -39.333 26 -59 78 -59c20 0 39 3 57 9s34 14.333 48 25s25 23.667 33 39s12 32.333 12 51v32zM382 359.001
c0 32 -9.16992 53.667 -27.5029 65s-42.5 17 -72.5 17c-33.333 0 -62 -6 -86 -18s-43 -33 -57 -63l-89 58c24 46 56.667 78.667 98 98s90.333 29 147 29c28.667 0 55.667 -3.5 81 -10.5s47.333 -18 66 -33s33.334 -34 44.001 -57s16 -50.833 16 -83.5v-231
c0 -20.667 6.66699 -33 20 -37s28 -4 44 0h2l-17 -98c-6 -1.33301 -14.833 -2.33301 -26.5 -3s-22.5 -1 -32.5 -1c-30.667 0 -54.167 7.16699 -70.5 21.5s-27.833 33.5 -34.5 57.5c-16 -24 -36.833 -43.167 -62.5 -57.5s-62.167 -21.5 -109.5 -21.5
c-23.333 0 -45.666 2.66699 -66.999 8s-40.166 14 -56.499 26s-29.5 27.5 -39.5 46.5s-15 42.5 -15 70.5c0 34 7.33301 62.5 22 85.5s36.5 41.833 65.5 56.5s65 26 108 34s92.833 14 149.5 18v23z" />
    <glyph glyph-name="aacute" unicode="&#xe1;" horiz-adv-x="584" 
d="M304 747h161l-147 -152h-81zM382 246c-34 -2.66699 -65 -5.83301 -93 -9.5s-52 -9 -72 -16s-35.5 -16.167 -46.5 -27.5s-16.5 -26 -16.5 -44c0 -39.333 26 -59 78 -59c20 0 39 3 57 9s34 14.333 48 25s25 23.667 33 39s12 32.333 12 51v32zM382 359.001
c0 32 -9.16992 53.667 -27.5029 65s-42.5 17 -72.5 17c-33.333 0 -62 -6 -86 -18s-43 -33 -57 -63l-89 58c24 46 56.667 78.667 98 98s90.333 29 147 29c28.667 0 55.667 -3.5 81 -10.5s47.333 -18 66 -33s33.334 -34 44.001 -57s16 -50.833 16 -83.5v-231
c0 -20.667 6.66699 -33 20 -37s28 -4 44 0h2l-17 -98c-6 -1.33301 -14.833 -2.33301 -26.5 -3s-22.5 -1 -32.5 -1c-30.667 0 -54.167 7.16699 -70.5 21.5s-27.833 33.5 -34.5 57.5c-16 -24 -36.833 -43.167 -62.5 -57.5s-62.167 -21.5 -109.5 -21.5
c-23.333 0 -45.666 2.66699 -66.999 8s-40.166 14 -56.499 26s-29.5 27.5 -39.5 46.5s-15 42.5 -15 70.5c0 34 7.33301 62.5 22 85.5s36.5 41.833 65.5 56.5s65 26 108 34s92.833 14 149.5 18v23z" />
    <glyph glyph-name="acircumflex" unicode="&#xe2;" horiz-adv-x="584" 
d="M382 246c-34 -2.66699 -65 -5.83301 -93 -9.5s-52 -9 -72 -16s-35.5 -16.167 -46.5 -27.5s-16.5 -26 -16.5 -44c0 -39.333 26 -59 78 -59c20 0 39 3 57 9s34 14.333 48 25s25 23.667 33 39s12 32.333 12 51v32zM219 751.001h124l101 -156h-78l-86 78l-87 -78h-75z
M382 359.001c0 32 -9.16992 53.667 -27.5029 65s-42.5 17 -72.5 17c-33.333 0 -62 -6 -86 -18s-43 -33 -57 -63l-89 58c24 46 56.667 78.667 98 98s90.333 29 147 29c28.667 0 55.667 -3.5 81 -10.5s47.333 -18 66 -33s33.334 -34 44.001 -57s16 -50.833 16 -83.5v-231
c0 -20.667 6.66699 -33 20 -37s28 -4 44 0h2l-17 -98c-6 -1.33301 -14.833 -2.33301 -26.5 -3s-22.5 -1 -32.5 -1c-30.667 0 -54.167 7.16699 -70.5 21.5s-27.833 33.5 -34.5 57.5c-16 -24 -36.833 -43.167 -62.5 -57.5s-62.167 -21.5 -109.5 -21.5
c-23.333 0 -45.666 2.66699 -66.999 8s-40.166 14 -56.499 26s-29.5 27.5 -39.5 46.5s-15 42.5 -15 70.5c0 34 7.33301 62.5 22 85.5s36.5 41.833 65.5 56.5s65 26 108 34s92.833 14 149.5 18v23z" />
    <glyph glyph-name="atilde" unicode="&#xe3;" horiz-adv-x="584" 
d="M382 246c-34 -2.66699 -65 -5.83301 -93 -9.5s-52 -9 -72 -16s-35.5 -16.167 -46.5 -27.5s-16.5 -26 -16.5 -44c0 -39.333 26 -59 78 -59c20 0 39 3 57 9s34 14.333 48 25s25 23.667 33 39s12 32.333 12 51v32zM351 595.001c-14.667 0 -27.665 2.33301 -38.998 7
s-21.5 10 -30.5 16s-17.5 11.333 -25.5 16s-16.333 7 -25 7c-11.333 0 -20 -3.83301 -26 -11.5s-10.333 -18.167 -13 -31.5l-79 7c5.33301 41.333 18.166 73 38.499 95s46.166 33 77.499 33c14.667 0 27.5 -2.33301 38.5 -7s21 -10 30 -16s17.5 -11.333 25.5 -16
s16.667 -7 26 -7c12 0 20 3.5 24 10.5s7 17.167 9 30.5l84 -7c-5.33301 -38 -17.833 -68.5 -37.5 -91.5s-45.5 -34.5 -77.5 -34.5zM382.002 359.001c0 32 -9.16992 53.667 -27.5029 65s-42.5 17 -72.5 17c-33.333 0 -62 -6 -86 -18s-43 -33 -57 -63l-89 58
c24 46 56.667 78.667 98 98s90.333 29 147 29c28.667 0 55.667 -3.5 81 -10.5s47.333 -18 66 -33s33.334 -34 44.001 -57s16 -50.833 16 -83.5v-231c0 -20.667 6.66699 -33 20 -37s28 -4 44 0h2l-17 -98c-6 -1.33301 -14.833 -2.33301 -26.5 -3s-22.5 -1 -32.5 -1
c-30.667 0 -54.167 7.16699 -70.5 21.5s-27.833 33.5 -34.5 57.5c-16 -24 -36.833 -43.167 -62.5 -57.5s-62.167 -21.5 -109.5 -21.5c-23.333 0 -45.666 2.66699 -66.999 8s-40.166 14 -56.499 26s-29.5 27.5 -39.5 46.5s-15 42.5 -15 70.5c0 34 7.33301 62.5 22 85.5
s36.5 41.833 65.5 56.5s65 26 108 34s92.833 14 149.5 18v23z" />
    <glyph glyph-name="adieresis" unicode="&#xe4;" horiz-adv-x="584" 
d="M141 711h116v-116h-116v116zM325 711h116v-116h-116v116zM382 246c-34 -2.66699 -65 -5.83301 -93 -9.5s-52 -9 -72 -16s-35.5 -16.167 -46.5 -27.5s-16.5 -26 -16.5 -44c0 -39.333 26 -59 78 -59c20 0 39 3 57 9s34 14.333 48 25s25 23.667 33 39s12 32.333 12 51v32z
M382 359.001c0 32 -9.16992 53.667 -27.5029 65s-42.5 17 -72.5 17c-33.333 0 -62 -6 -86 -18s-43 -33 -57 -63l-89 58c24 46 56.667 78.667 98 98s90.333 29 147 29c28.667 0 55.667 -3.5 81 -10.5s47.333 -18 66 -33s33.334 -34 44.001 -57s16 -50.833 16 -83.5v-231
c0 -20.667 6.66699 -33 20 -37s28 -4 44 0h2l-17 -98c-6 -1.33301 -14.833 -2.33301 -26.5 -3s-22.5 -1 -32.5 -1c-30.667 0 -54.167 7.16699 -70.5 21.5s-27.833 33.5 -34.5 57.5c-16 -24 -36.833 -43.167 -62.5 -57.5s-62.167 -21.5 -109.5 -21.5
c-23.333 0 -45.666 2.66699 -66.999 8s-40.166 14 -56.499 26s-29.5 27.5 -39.5 46.5s-15 42.5 -15 70.5c0 34 7.33301 62.5 22 85.5s36.5 41.833 65.5 56.5s65 26 108 34s92.833 14 149.5 18v23z" />
    <glyph glyph-name="aring" unicode="&#xe5;" horiz-adv-x="584" 
d="M292 636c16 0 28.833 5 38.5 15s14.5 25.333 14.5 46c0 19.333 -4.83301 34.333 -14.5 45s-22.5 16 -38.5 16s-28.833 -5 -38.5 -15s-14.5 -25 -14.5 -45s4.83301 -35.333 14.5 -46s22.5 -16 38.5 -16zM382 246c-34 -2.66699 -65 -5.83301 -93 -9.5s-52 -9 -72 -16
s-35.5 -16.167 -46.5 -27.5s-16.5 -26 -16.5 -44c0 -39.333 26 -59 78 -59c20 0 39 3 57 9s34 14.333 48 25s25 23.667 33 39s12 32.333 12 51v32zM291 577.001c-36.667 0 -66 11.168 -88 33.501s-33 50.5 -33 84.5c0 34.667 11 63.5 33 86.5s51.667 34.5 89 34.5
c18 0 34.5 -3.16699 49.5 -9.5s27.833 -14.833 38.5 -25.5s18.834 -23.167 24.501 -37.5s8.5 -29.833 8.5 -46.5c-0.666992 -34.667 -11.834 -63.334 -33.501 -86.001s-51.167 -34 -88.5 -34zM382 359.002c0 32 -9.16992 53.667 -27.5029 65s-42.5 17 -72.5 17
c-33.333 0 -62 -6 -86 -18s-43 -33 -57 -63l-89 58c24 46 56.667 78.667 98 98s90.333 29 147 29c28.667 0 55.667 -3.5 81 -10.5s47.333 -18 66 -33s33.334 -34 44.001 -57s16 -50.833 16 -83.5v-231c0 -20.667 6.66699 -33 20 -37s28 -4 44 0h2l-17 -98
c-6 -1.33301 -14.833 -2.33301 -26.5 -3s-22.5 -1 -32.5 -1c-30.667 0 -54.167 7.16699 -70.5 21.5s-27.833 33.5 -34.5 57.5c-16 -24 -36.833 -43.167 -62.5 -57.5s-62.167 -21.5 -109.5 -21.5c-23.333 0 -45.666 2.66699 -66.999 8s-40.166 14 -56.499 26
s-29.5 27.5 -39.5 46.5s-15 42.5 -15 70.5c0 34 7.33301 62.5 22 85.5s36.5 41.833 65.5 56.5s65 26 108 34s92.833 14 149.5 18v23z" />
    <glyph glyph-name="ae" unicode="&#xe6;" horiz-adv-x="914" 
d="M744 333c-3.33301 36 -14.332 64 -32.999 84s-46 30 -82 30c-35.333 0 -63.333 -9 -84 -27s-34.334 -47 -41.001 -87h240zM382.001 246c-34 -2.66699 -65 -5.83301 -93 -9.5s-52 -9 -72 -16s-35.5 -16.167 -46.5 -27.5s-16.5 -26 -16.5 -44c0 -39.333 26 -59 78 -59
c20 0 39 3 57 9s34 14.333 48 25s25 23.667 33 39s12 32.333 12 51v32zM382.001 359.001c0 32 -9.16699 53.665 -27.5 64.998s-42.5 17 -72.5 17c-33.333 0 -62 -6 -86 -18s-43 -33 -57 -63l-89 58c24 46 56.667 78.667 98 98s90.333 29 147 29c38.667 0 71.667 -6 99 -18
s48.333 -31.667 63 -59c40 51.333 97.333 77 172 77c35.333 0 67.833 -5.66699 97.5 -17s55.167 -29.166 76.5 -53.499s38 -55.666 50 -93.999s18 -84.833 18 -139.5h-370c3.33301 -49.333 15.333 -86.333 36 -111s54 -37 100 -37c35.333 0 63.166 7.5 83.499 22.5
s35.833 38.167 46.5 69.5l102 -37c-6.66699 -22.667 -15.834 -43.5 -27.501 -62.5s-27 -35.5 -46 -49.5s-41.833 -25 -68.5 -33s-58 -12 -94 -12c-46.667 0 -87 9.66699 -121 29s-60.333 48.333 -79 87c-26 -43.333 -56.167 -73.5 -90.5 -90.5s-76.833 -25.5 -127.5 -25.5
c-23.333 0 -45.666 2.66699 -66.999 8s-40.166 14 -56.499 26s-29.5 27.5 -39.5 46.5s-15 42.5 -15 70.5c0 34 7.33301 62.5 22 85.5s36.5 41.833 65.5 56.5s65 26 108 34s92.833 14 149.5 18v23z" />
    <glyph glyph-name="ccedilla" unicode="&#xe7;" horiz-adv-x="552" 
d="M228 -2c-56.667 14 -102.166 44.6689 -136.499 92.002s-51.5 107.666 -51.5 180.999c0 41.333 6.33301 78.833 19 112.5s30.5 62.5 53.5 86.5s50.333 42.5 82 55.5s66.834 19.5 105.501 19.5c54.667 0 100.667 -12.333 138 -37s63.666 -61 78.999 -109l-101 -52
c-11.333 32.667 -26 57.167 -44 73.5s-43 24.5 -75 24.5c-42 0 -75.167 -13.833 -99.5 -41.5s-36.5 -69.834 -36.5 -126.501c0 -57.333 11 -102.5 33 -135.5s56.333 -49.5 103 -49.5c34.667 0 62 8.16699 82 24.5s35.667 40.5 47 72.5l98 -61
c-19.333 -42 -47 -75.333 -83 -100s-85.667 -37 -149 -37h-1v-47c5.33301 3.33301 11.833 6.33301 19.5 9s16.5 4 26.5 4c14 0 27.167 -2.16699 39.5 -6.5s23.166 -10.5 32.499 -18.5s16.833 -18 22.5 -30s8.5 -25.667 8.5 -41c0 -31.333 -11.833 -54.5 -35.5 -69.5
s-52.5 -22.5 -86.5 -22.5c-56.667 0 -96.667 19.333 -120 58l56 30c5.33301 -9.33301 12.833 -17.166 22.5 -23.499s22.167 -9.5 37.5 -9.5c14 0 25.5 3.16699 34.5 9.5s13.5 16.166 13.5 29.499c0 28 -13 42 -39 42c-11.333 0 -20 -1.66699 -26 -5s-11 -8 -15 -14h-54v112z
" />
    <glyph glyph-name="egrave" unicode="&#xe8;" horiz-adv-x="573" 
d="M106 747h160l67 -152h-81zM403 333c-3.33301 36 -14.332 64 -32.999 84s-46 30 -82 30c-35.333 0 -63.333 -9 -84 -27s-34.334 -47 -41.001 -87h240zM160.001 241c3.33301 -49.333 15.335 -86.335 36.002 -111.002s54 -37 100 -37c35.333 0 63.166 7.5 83.499 22.5
s35.833 38.167 46.5 69.5l102 -37c-6.66699 -22.667 -15.834 -43.5 -27.501 -62.5s-27 -35.5 -46 -49.5s-41.833 -25 -68.5 -33s-58 -12 -94 -12s-69.333 5.83301 -100 17.5s-57.167 29.167 -79.5 52.5s-39.833 52.5 -52.5 87.5s-19 75.833 -19 122.5
c0 42 6.16699 79.833 18.5 113.5s29.333 62.5 51 86.5s47.667 42.333 78 55s63.5 19 99.5 19c35.333 0 67.833 -5.66699 97.5 -17s55.167 -29.166 76.5 -53.499s38 -55.666 50 -93.999s18 -84.833 18 -139.5h-370z" />
    <glyph glyph-name="eacute" unicode="&#xe9;" horiz-adv-x="573" 
d="M297 747h161l-147 -152h-81zM403 333c-3.33301 36 -14.332 64 -32.999 84s-46 30 -82 30c-35.333 0 -63.333 -9 -84 -27s-34.334 -47 -41.001 -87h240zM160.001 241c3.33301 -49.333 15.335 -86.335 36.002 -111.002s54 -37 100 -37c35.333 0 63.166 7.5 83.499 22.5
s35.833 38.167 46.5 69.5l102 -37c-6.66699 -22.667 -15.834 -43.5 -27.501 -62.5s-27 -35.5 -46 -49.5s-41.833 -25 -68.5 -33s-58 -12 -94 -12s-69.333 5.83301 -100 17.5s-57.167 29.167 -79.5 52.5s-39.833 52.5 -52.5 87.5s-19 75.833 -19 122.5
c0 42 6.16699 79.833 18.5 113.5s29.333 62.5 51 86.5s47.667 42.333 78 55s63.5 19 99.5 19c35.333 0 67.833 -5.66699 97.5 -17s55.167 -29.166 76.5 -53.499s38 -55.666 50 -93.999s18 -84.833 18 -139.5h-370z" />
    <glyph glyph-name="ecircumflex" unicode="&#xea;" horiz-adv-x="573" 
d="M403 333c-3.33301 36 -14.332 64 -32.999 84s-46 30 -82 30c-35.333 0 -63.333 -9 -84 -27s-34.334 -47 -41.001 -87h240zM219.001 751h124l101 -156h-78l-86 78l-87 -78h-75zM160.001 241c3.33301 -49.333 15.335 -86.335 36.002 -111.002s54 -37 100 -37
c35.333 0 63.166 7.5 83.499 22.5s35.833 38.167 46.5 69.5l102 -37c-6.66699 -22.667 -15.834 -43.5 -27.501 -62.5s-27 -35.5 -46 -49.5s-41.833 -25 -68.5 -33s-58 -12 -94 -12s-69.333 5.83301 -100 17.5s-57.167 29.167 -79.5 52.5s-39.833 52.5 -52.5 87.5
s-19 75.833 -19 122.5c0 42 6.16699 79.833 18.5 113.5s29.333 62.5 51 86.5s47.667 42.333 78 55s63.5 19 99.5 19c35.333 0 67.833 -5.66699 97.5 -17s55.167 -29.166 76.5 -53.499s38 -55.666 50 -93.999s18 -84.833 18 -139.5h-370z" />
    <glyph glyph-name="edieresis" unicode="&#xeb;" horiz-adv-x="573" 
d="M131 711h116v-116h-116v116zM315 711h116v-116h-116v116zM403 333c-3.33301 36 -14.332 64 -32.999 84s-46 30 -82 30c-35.333 0 -63.333 -9 -84 -27s-34.334 -47 -41.001 -87h240zM160.001 241c3.33301 -49.333 15.335 -86.335 36.002 -111.002s54 -37 100 -37
c35.333 0 63.166 7.5 83.499 22.5s35.833 38.167 46.5 69.5l102 -37c-6.66699 -22.667 -15.834 -43.5 -27.501 -62.5s-27 -35.5 -46 -49.5s-41.833 -25 -68.5 -33s-58 -12 -94 -12s-69.333 5.83301 -100 17.5s-57.167 29.167 -79.5 52.5s-39.833 52.5 -52.5 87.5
s-19 75.833 -19 122.5c0 42 6.16699 79.833 18.5 113.5s29.333 62.5 51 86.5s47.667 42.333 78 55s63.5 19 99.5 19c35.333 0 67.833 -5.66699 97.5 -17s55.167 -29.166 76.5 -53.499s38 -55.666 50 -93.999s18 -84.833 18 -139.5h-370z" />
    <glyph glyph-name="igrave" unicode="&#xec;" horiz-adv-x="278" 
d="M-33 747h160l67 -152h-81zM199 534v-534h-120v534h120z" />
    <glyph glyph-name="iacute" unicode="&#xed;" horiz-adv-x="278" 
d="M155 747h161l-147 -152h-81zM199 534v-534h-120v534h120z" />
    <glyph glyph-name="icircumflex" unicode="&#xee;" horiz-adv-x="278" 
d="M80 751h124l101 -156h-78l-86 78l-87 -78h-75zM199 534v-534h-120v534h120z" />
    <glyph glyph-name="idieresis" unicode="&#xef;" horiz-adv-x="278" 
d="M-8 711h116v-116h-116v116zM176 711h116v-116h-116v116zM199 534v-534h-120v534h120z" />
    <glyph glyph-name="eth" unicode="&#xf0;" horiz-adv-x="573" 
d="M287 83c45.333 0 79.833 15.001 103.5 45.001s35.5 76 35.5 138c0 58 -12 103 -36 135s-58.333 48 -103 48c-46.667 0 -80.667 -16.333 -102 -49s-32 -76.334 -32 -131.001c0 -27.333 2.66699 -52.5 8 -75.5s13.5 -42.667 24.5 -59s25 -29 42 -38
s36.833 -13.5 59.5 -13.5zM241 563.001l-47.001 48.998l7.5 7l16.5 16l16 16l7 7c-10.667 8.66699 -21.334 16.667 -32.001 24l-30 21l62 77c13.333 -7.33301 26.333 -15 39 -23s25 -16.667 37 -26l57 55l47 -49l-51 -49c52.667 -48 95 -105.167 127 -171.5
s48 -142.833 48 -229.5c0 -52.667 -6.16699 -98 -18.5 -136s-29.666 -69.167 -51.999 -93.5s-49.5 -42.166 -81.5 -53.499s-67.667 -17 -107 -17c-38 0 -72.5 6.83301 -103.5 20.5s-57.5 32.834 -79.5 57.501s-39 54 -51 88s-18 71.667 -18 113s5.66699 79 17 113
s27.166 63 47.499 87s44.333 42.5 72 55.5s58.167 19.5 91.5 19.5c24.667 0 45.834 -3.33301 63.501 -10s33.834 -16.667 48.501 -30c-10.667 22 -23 42.333 -37 61s-28.667 35.667 -44 51z" />
    <glyph glyph-name="ntilde" unicode="&#xf1;" 
d="M364 595c-14.667 0 -27.665 2.33301 -38.998 7s-21.5 10 -30.5 16s-17.5 11.333 -25.5 16s-16.333 7 -25 7c-11.333 0 -20 -3.83301 -26 -11.5s-10.333 -18.167 -13 -31.5l-79 7c5.33301 41.333 18.166 73 38.499 95s46.166 33 77.499 33c14.667 0 27.5 -2.33301 38.5 -7
s21 -10 30 -16s17.5 -11.333 25.5 -16s16.667 -7 26 -7c12 0 20 3.5 24 10.5s7 17.167 9 30.5l84 -7c-5.33301 -38 -17.833 -68.5 -37.5 -91.5s-45.5 -34.5 -77.5 -34.5zM195.002 534l-1.99902 -85.999c6 12 13.667 23.667 23 35s20.833 21.666 34.5 30.999
s29.5 16.833 47.5 22.5s38.667 8.5 62 8.5c19.333 0 39.666 -3.5 60.999 -10.5s41 -18.167 59 -33.5s33 -35.333 45 -60s18 -54.667 18 -90v-351h-120v323c0 36 -7.5 64.667 -22.5 86s-39.833 32 -74.5 32c-37.333 0 -68.5 -13 -93.5 -39s-37.5 -66.333 -37.5 -121v-281
h-120v534h120z" />
    <glyph glyph-name="ograve" unicode="&#xf2;" horiz-adv-x="593" 
d="M112 747h160l67 -152h-81zM298 452c-48 0 -83.0029 -16.332 -105.003 -48.999s-33 -75.334 -33 -128.001c0 -27.333 2.33301 -52.666 7 -75.999s12.334 -43.5 23.001 -60.5s24.5 -30.5 41.5 -40.5s38.167 -15 63.5 -15c26.667 0 48.834 4.5 66.501 13.5
s31.834 21.667 42.501 38s18.167 35.666 22.5 57.999s6.5 47.166 6.5 74.499c0 26 -2.5 50.167 -7.5 72.5s-13 41.833 -24 58.5s-25 29.834 -42 39.501s-37.5 14.5 -61.5 14.5zM296.997 547.001c38.667 0 73.667 -6.49805 105 -19.498s58.166 -31.5 80.499 -55.5
s39.5 -53.333 51.5 -88s18 -73.334 18 -116.001c-0.666992 -91.333 -23.334 -161 -68.001 -209s-107 -72 -187 -72c-38.667 0 -73.667 6.66699 -105 20s-58.166 32.166 -80.499 56.499s-39.666 53.5 -51.999 87.5s-18.5 72 -18.5 114c0 44 6.33301 83.5 19 118.5
s30.334 64.667 53.001 89s49.667 42.833 81 55.5s65.666 19 102.999 19z" />
    <glyph glyph-name="oacute" unicode="&#xf3;" horiz-adv-x="593" 
d="M308 747h161l-147 -152h-81zM298 452c-48 0 -83.0029 -16.332 -105.003 -48.999s-33 -75.334 -33 -128.001c0 -27.333 2.33301 -52.666 7 -75.999s12.334 -43.5 23.001 -60.5s24.5 -30.5 41.5 -40.5s38.167 -15 63.5 -15c26.667 0 48.834 4.5 66.501 13.5
s31.834 21.667 42.501 38s18.167 35.666 22.5 57.999s6.5 47.166 6.5 74.499c0 26 -2.5 50.167 -7.5 72.5s-13 41.833 -24 58.5s-25 29.834 -42 39.501s-37.5 14.5 -61.5 14.5zM296.997 547.001c38.667 0 73.667 -6.49805 105 -19.498s58.166 -31.5 80.499 -55.5
s39.5 -53.333 51.5 -88s18 -73.334 18 -116.001c-0.666992 -91.333 -23.334 -161 -68.001 -209s-107 -72 -187 -72c-38.667 0 -73.667 6.66699 -105 20s-58.166 32.166 -80.499 56.499s-39.666 53.5 -51.999 87.5s-18.5 72 -18.5 114c0 44 6.33301 83.5 19 118.5
s30.334 64.667 53.001 89s49.667 42.833 81 55.5s65.666 19 102.999 19z" />
    <glyph glyph-name="ocircumflex" unicode="&#xf4;" horiz-adv-x="593" 
d="M227 751h124l101 -156h-78l-86 78l-87 -78h-75zM298 452c-48 0 -83.0029 -16.332 -105.003 -48.999s-33 -75.334 -33 -128.001c0 -27.333 2.33301 -52.666 7 -75.999s12.334 -43.5 23.001 -60.5s24.5 -30.5 41.5 -40.5s38.167 -15 63.5 -15
c26.667 0 48.834 4.5 66.501 13.5s31.834 21.667 42.501 38s18.167 35.666 22.5 57.999s6.5 47.166 6.5 74.499c0 26 -2.5 50.167 -7.5 72.5s-13 41.833 -24 58.5s-25 29.834 -42 39.501s-37.5 14.5 -61.5 14.5zM296.997 547.001c38.667 0 73.667 -6.49805 105 -19.498
s58.166 -31.5 80.499 -55.5s39.5 -53.333 51.5 -88s18 -73.334 18 -116.001c-0.666992 -91.333 -23.334 -161 -68.001 -209s-107 -72 -187 -72c-38.667 0 -73.667 6.66699 -105 20s-58.166 32.166 -80.499 56.499s-39.666 53.5 -51.999 87.5s-18.5 72 -18.5 114
c0 44 6.33301 83.5 19 118.5s30.334 64.667 53.001 89s49.667 42.833 81 55.5s65.666 19 102.999 19z" />
    <glyph glyph-name="otilde" unicode="&#xf5;" horiz-adv-x="593" 
d="M349 595c-14.667 0 -27.665 2.33301 -38.998 7s-21.5 10 -30.5 16s-17.5 11.333 -25.5 16s-16.333 7 -25 7c-11.333 0 -20 -3.83301 -26 -11.5s-10.333 -18.167 -13 -31.5l-79 7c5.33301 41.333 18.166 73 38.499 95s46.166 33 77.499 33c14.667 0 27.5 -2.33301 38.5 -7
s21 -10 30 -16s17.5 -11.333 25.5 -16s16.667 -7 26 -7c12 0 20 3.5 24 10.5s7 17.167 9 30.5l84 -7c-5.33301 -38 -17.833 -68.5 -37.5 -91.5s-45.5 -34.5 -77.5 -34.5zM298.002 452c-48 0 -83.0029 -16.332 -105.003 -48.999s-33 -75.334 -33 -128.001
c0 -27.333 2.33301 -52.666 7 -75.999s12.334 -43.5 23.001 -60.5s24.5 -30.5 41.5 -40.5s38.167 -15 63.5 -15c26.667 0 48.834 4.5 66.501 13.5s31.834 21.667 42.501 38s18.167 35.666 22.5 57.999s6.5 47.166 6.5 74.499c0 26 -2.5 50.167 -7.5 72.5
s-13 41.833 -24 58.5s-25 29.834 -42 39.501s-37.5 14.5 -61.5 14.5zM296.999 547.001c38.667 0 73.667 -6.49805 105 -19.498s58.166 -31.5 80.499 -55.5s39.5 -53.333 51.5 -88s18 -73.334 18 -116.001c-0.666992 -91.333 -23.334 -161 -68.001 -209s-107 -72 -187 -72
c-38.667 0 -73.667 6.66699 -105 20s-58.166 32.166 -80.499 56.499s-39.666 53.5 -51.999 87.5s-18.5 72 -18.5 114c0 44 6.33301 83.5 19 118.5s30.334 64.667 53.001 89s49.667 42.833 81 55.5s65.666 19 102.999 19z" />
    <glyph glyph-name="odieresis" unicode="&#xf6;" horiz-adv-x="593" 
d="M141 711h116v-116h-116v116zM325 711h116v-116h-116v116zM298 452c-48 0 -83.0029 -16.332 -105.003 -48.999s-33 -75.334 -33 -128.001c0 -27.333 2.33301 -52.666 7 -75.999s12.334 -43.5 23.001 -60.5s24.5 -30.5 41.5 -40.5s38.167 -15 63.5 -15
c26.667 0 48.834 4.5 66.501 13.5s31.834 21.667 42.501 38s18.167 35.666 22.5 57.999s6.5 47.166 6.5 74.499c0 26 -2.5 50.167 -7.5 72.5s-13 41.833 -24 58.5s-25 29.834 -42 39.501s-37.5 14.5 -61.5 14.5zM296.997 547.001c38.667 0 73.667 -6.49805 105 -19.498
s58.166 -31.5 80.499 -55.5s39.5 -53.333 51.5 -88s18 -73.334 18 -116.001c-0.666992 -91.333 -23.334 -161 -68.001 -209s-107 -72 -187 -72c-38.667 0 -73.667 6.66699 -105 20s-58.166 32.166 -80.499 56.499s-39.666 53.5 -51.999 87.5s-18.5 72 -18.5 114
c0 44 6.33301 83.5 19 118.5s30.334 64.667 53.001 89s49.667 42.833 81 55.5s65.666 19 102.999 19z" />
    <glyph glyph-name="divide" unicode="&#xf7;" horiz-adv-x="546" 
d="M207 168h134v-134h-134v134zM207 563h134v-134h-134v134zM65 353h416v-109h-416v109z" />
    <glyph glyph-name="oslash" unicode="&#xf8;" horiz-adv-x="593" 
d="M216 107c20.667 -16.667 47 -25 79 -25c26.667 0 49 4.5 67 13.5s32.333 21.667 43 38s18.167 35.833 22.5 58.5s6.5 47.667 6.5 75c0 28.667 -3 55 -9 79zM377 427c-20.667 17.333 -47 26 -79 26c-48 0 -83.167 -16.167 -105.5 -48.5s-33.5 -75.5 -33.5 -129.5
c0 -33.333 3.33301 -62.333 10 -87zM87 94c-30 47.333 -45.334 104.332 -46.001 170.999c0 44 6.33301 83.5 19 118.5s30.334 64.667 53.001 89s49.667 42.833 81 55.5s65.666 19 102.999 19c28.667 0 55.334 -3.66699 80.001 -11s47.334 -17.666 68.001 -30.999l25 29h118
l-81 -93c30.667 -47.333 45.667 -105 45 -173c-0.666992 -91.333 -23.334 -161 -68.001 -209s-107 -72 -187 -72c-56.667 0 -106 14.333 -148 43l-26 -30h-118z" />
    <glyph glyph-name="ugrave" unicode="&#xf9;" 
d="M131 747h160l67 -152h-81zM418 0l1.99902 85.998c-6 -11.333 -13.667 -22.666 -23 -33.999s-20.833 -21.666 -34.5 -30.999s-29.5 -17 -47.5 -23s-38.667 -9 -62 -9c-19.333 0 -39.666 3.5 -60.999 10.5s-41 18.167 -59 33.5s-33 35.333 -45 60s-18 54.667 -18 90v351
h120v-323c0 -36 7.5 -64.667 22.5 -86s39.833 -32 74.5 -32c37.333 0 68.5 12.833 93.5 38.5s37.5 66.167 37.5 121.5v281h120v-534h-120z" />
    <glyph glyph-name="uacute" unicode="&#xfa;" 
d="M319 747h161l-147 -152h-81zM418 0l1.99902 85.998c-6 -11.333 -13.667 -22.666 -23 -33.999s-20.833 -21.666 -34.5 -30.999s-29.5 -17 -47.5 -23s-38.667 -9 -62 -9c-19.333 0 -39.666 3.5 -60.999 10.5s-41 18.167 -59 33.5s-33 35.333 -45 60s-18 54.667 -18 90v351
h120v-323c0 -36 7.5 -64.667 22.5 -86s39.833 -32 74.5 -32c37.333 0 68.5 12.833 93.5 38.5s37.5 66.167 37.5 121.5v281h120v-534h-120z" />
    <glyph glyph-name="ucircumflex" unicode="&#xfb;" 
d="M244 751h124l101 -156h-78l-86 78l-87 -78h-75zM418 0l1.99902 85.998c-6 -11.333 -13.667 -22.666 -23 -33.999s-20.833 -21.666 -34.5 -30.999s-29.5 -17 -47.5 -23s-38.667 -9 -62 -9c-19.333 0 -39.666 3.5 -60.999 10.5s-41 18.167 -59 33.5s-33 35.333 -45 60
s-18 54.667 -18 90v351h120v-323c0 -36 7.5 -64.667 22.5 -86s39.833 -32 74.5 -32c37.333 0 68.5 12.833 93.5 38.5s37.5 66.167 37.5 121.5v281h120v-534h-120z" />
    <glyph glyph-name="udieresis" unicode="&#xfc;" 
d="M156 711h116v-116h-116v116zM340 711h116v-116h-116v116zM418 0l1.99902 85.998c-6 -11.333 -13.667 -22.666 -23 -33.999s-20.833 -21.666 -34.5 -30.999s-29.5 -17 -47.5 -23s-38.667 -9 -62 -9c-19.333 0 -39.666 3.5 -60.999 10.5s-41 18.167 -59 33.5
s-33 35.333 -45 60s-18 54.667 -18 90v351h120v-323c0 -36 7.5 -64.667 22.5 -86s39.833 -32 74.5 -32c37.333 0 68.5 12.833 93.5 38.5s37.5 66.167 37.5 121.5v281h120v-534h-120z" />
    <glyph glyph-name="yacute" unicode="&#xfd;" horiz-adv-x="532" 
d="M290 747h161l-147 -152h-81zM29 534l127.999 -0.000976562l118 -366l111 366h117l-191 -592c-7.33301 -21.333 -17 -41.666 -29 -60.999s-26.667 -35.666 -44 -48.999c-13.333 -10.667 -29.333 -18.334 -48 -23.001s-37.667 -7 -57 -7
c-41.333 0 -74.666 7.33301 -99.999 22l31 101h2c12 -10.667 29.333 -16 52 -16c16 0 30.667 3.5 44 10.5s24 21.167 32 42.5l18 45z" />
    <glyph glyph-name="thorn" unicode="&#xfe;" horiz-adv-x="618" 
d="M192 272c0 -32.667 3.33301 -60.3311 10 -82.998s16.167 -41 28.5 -55s27.333 -24.167 45 -30.5s37.834 -9.5 60.501 -9.5c46 0 78.667 15.167 98 45.5s29 74.166 29 131.499c0 55.333 -10.833 97.666 -32.5 126.999s-54.834 44 -99.501 44c-40 0 -73.167 -14 -99.5 -42
s-39.5 -70.667 -39.5 -128zM352 -8.99707c-43.333 0 -77.5 7.83496 -102.5 23.502s-43.167 32.5 -54.5 50.5v-247h-120v940h120v-302c16.667 26 37.667 47.333 63 64s60 25 104 25c30 0 58.333 -5.83301 85 -17.5s50 -29 70 -52s35.833 -51.333 47.5 -85
s17.5 -72.834 17.5 -117.501c0 -43.333 -4.66699 -82.333 -14 -117s-23.5 -64.334 -42.5 -89.001s-43 -43.5 -72 -56.5s-62.833 -19.5 -101.5 -19.5z" />
    <glyph glyph-name="ydieresis" unicode="&#xff;" horiz-adv-x="532" 
d="M115 711h116v-116h-116v116zM299 711h116v-116h-116v116zM29 534l127.999 -0.000976562l118 -366l111 366h117l-191 -592c-7.33301 -21.333 -17 -41.666 -29 -60.999s-26.667 -35.666 -44 -48.999c-13.333 -10.667 -29.333 -18.334 -48 -23.001s-37.667 -7 -57 -7
c-41.333 0 -74.666 7.33301 -99.999 22l31 101h2c12 -10.667 29.333 -16 52 -16c16 0 30.667 3.5 44 10.5s24 21.167 32 42.5l18 45z" />
    <glyph glyph-name="OE" unicode="&#x152;" horiz-adv-x="1329" 
d="M438 643c-37.333 0 -70.166 -6.49902 -98.499 -19.499s-52.166 -31 -71.499 -54s-34 -50.833 -44 -83.5s-15 -68.334 -15 -107.001c0 -84 19.667 -149.5 59 -196.5s96.333 -70.5 171 -70.5c77.333 0 134.833 21.5 172.5 64.5s56.5 111.167 56.5 204.5
c0 39.333 -5 75 -15 107s-24.833 59.5 -44.5 82.5s-43.834 40.833 -72.501 53.5s-61.334 19 -98.001 19zM666 753.001l581 -0.000976562v-124h-444v-184h377v-121h-377v-200h463v-124h-600v68c-26 -26 -57.333 -46 -94 -60s-80 -21 -130 -21c-58 0 -110.333 9.66699 -157 29
s-86.5 46.333 -119.5 81s-58.5 75.834 -76.5 123.501s-27 100.167 -27 157.5c0 54 8.83301 104.5 26.5 151.5s42.834 88 75.501 123s72.167 62.667 118.5 83s98.166 30.5 155.499 30.5c49.333 0 92.833 -7.66699 130.5 -23s70.167 -37 97.5 -65v75z" />
    <glyph glyph-name="oe" unicode="&#x153;" horiz-adv-x="963" 
d="M793 333c-3.33301 36 -14.332 64 -32.999 84s-46 30 -82 30c-35.333 0 -63.333 -9 -84 -27s-34.334 -47 -41.001 -87h240zM298.001 452c-48 0 -83.0029 -16.332 -105.003 -48.999s-33 -75.334 -33 -128.001c0 -27.333 2.33301 -52.666 7 -75.999
s12.334 -43.5 23.001 -60.5s24.5 -30.5 41.5 -40.5s38.167 -15 63.5 -15c26.667 0 48.834 4.5 66.501 13.5s31.834 21.667 42.501 38s18.167 35.666 22.5 57.999s6.5 47.166 6.5 74.499c0 26 -2.5 50.167 -7.5 72.5s-13 41.833 -24 58.5s-25 29.834 -42 39.501
s-37.5 14.5 -61.5 14.5zM492.998 88.001c-36 -67.333 -101.333 -101.001 -196 -101.001c-38.667 0 -73.667 6.66699 -105 20s-58.166 32.166 -80.499 56.499s-39.666 53.5 -51.999 87.5s-18.5 72 -18.5 114c0 44 6.33301 83.5 19 118.5s30.334 64.667 53.001 89
s49.667 42.833 81 55.5s65.666 19 102.999 19c91.333 0 156.333 -34.333 195 -103c18.667 32.667 43.5 57.667 74.5 75s68.167 26 111.5 26c35.333 0 67.833 -5.66699 97.5 -17s55.167 -29.166 76.5 -53.499s38 -55.666 50 -93.999s18 -84.833 18 -139.5h-370
c3.33301 -49.333 15.333 -86.333 36 -111s54 -37 100 -37c35.333 0 63.166 7.5 83.499 22.5s35.833 38.167 46.5 69.5l102 -37c-6.66699 -22.667 -15.834 -43.5 -27.501 -62.5s-27 -35.5 -46 -49.5s-41.833 -25 -68.5 -33s-58 -12 -94 -12
c-87.333 0 -150.333 32.333 -189 97z" />
    <glyph glyph-name="Scaron" unicode="&#x160;" horiz-adv-x="738" 
d="M413 803h-124l-101 156h78l86 -78l87 78h75zM353 766c83.333 0 150.669 -14.668 202.002 -44.001s90 -70 116 -122l-114 -73c-18.667 35.333 -44.167 64.166 -76.5 86.499s-75.166 33.5 -128.499 33.5c-56 0 -96 -7.5 -120 -22.5s-36 -38.167 -36 -69.5
c0 -18.667 4 -33.5 12 -44.5s20 -19.833 36 -26.5s36.167 -12.167 60.5 -16.5s53.166 -9.16602 86.499 -14.499c44.667 -7.33301 85.5 -16.166 122.5 -26.499s68.833 -24.666 95.5 -42.999s47.167 -41.833 61.5 -70.5s21.5 -64.667 21.5 -108
c0 -39.333 -7.5 -72.666 -22.5 -99.999s-36.333 -49.833 -64 -67.5s-60.834 -30.5 -99.501 -38.5s-81.334 -12 -128.001 -12c-96 0 -172.333 18 -229 54s-94.334 84 -113.001 144l125 56c9.33301 -20.667 20 -39.167 32 -55.5s26.667 -30.166 44 -41.499s38 -20 62 -26
s52.667 -9 86 -9c54 0 95 7.66699 123 23s42 39.666 42 72.999c0 19.333 -4 35.166 -12 47.499s-20.5 22.666 -37.5 30.999s-38.833 15.333 -65.5 21s-58.667 11.5 -96 17.5s-73 13.333 -107 22s-63.667 21 -89 37s-45.5 37.167 -60.5 63.5s-22.5 60.5 -22.5 102.5
c0 32.667 6.33301 62.5 19 89.5s31.334 50 56.001 69s55.167 33.833 91.5 44.5s78.5 16 126.5 16z" />
    <glyph glyph-name="scaron" unicode="&#x161;" horiz-adv-x="539" 
d="M318 595h-124l-101 156h78l86 -78l87 78h75zM256 545c54.667 0 100.333 -9.49902 137 -28.499s66.667 -46.167 90 -81.5l-86 -65c-30.667 50 -75.667 75 -135 75c-34 0 -58.333 -4.66699 -73 -14s-22 -22.666 -22 -39.999c0 -10.667 2.33301 -19.334 7 -26.001
s12 -12.167 22 -16.5s22.667 -8 38 -11s33.666 -5.83301 54.999 -8.5c26 -3.33301 51.333 -8.16602 76 -14.499s46.667 -15.833 66 -28.5s34.833 -29.334 46.5 -50.001s17.5 -47 17.5 -79c0 -24 -3.83301 -46.333 -11.5 -67s-20 -38.334 -37 -53.001
s-39.167 -26.167 -66.5 -34.5s-60.666 -12.5 -99.999 -12.5c-62.667 0 -114.5 12.167 -155.5 36.5s-71.833 58.833 -92.5 103.5l92 54c15.333 -26.667 34.5 -48.667 57.5 -66s55.167 -26 96.5 -26c28.667 0 52.667 4.5 72 13.5s29 24.5 29 46.5
c0 10.667 -2.33301 19.5 -7 26.5s-12 12.833 -22 17.5s-22.833 8.5 -38.5 11.5l-56.5 10.5c-26.667 4.66699 -52.167 10 -76.5 16s-45.833 15 -64.5 27s-33.5 28.167 -44.5 48.5s-16.5 46.5 -16.5 78.5c0 27.333 5.33301 51 16 71s25.167 36.333 43.5 49s39.833 22 64.5 28
s51 9 79 9z" />
    <glyph glyph-name="Ydieresis" unicode="&#x178;" horiz-adv-x="704" 
d="M209 919h116v-116h-116v116zM393 919h116v-116h-116v116zM18 753h159l183 -328l178 328h148l-258 -463v-290h-137v279z" />
    <glyph glyph-name="florin" unicode="&#x192;" horiz-adv-x="414" 
d="M360 458l-0.000976562 -102h-105l-41 -390c-5.33301 -53.333 -21.333 -92.5 -48 -117.5s-59.667 -37.5 -99 -37.5c-20.667 0 -38.167 2.16699 -52.5 6.5s-25.833 9.5 -34.5 15.5l29 95h3c12.667 -9.33301 26.334 -14 41.001 -14c11.333 0 20.833 2.83301 28.5 8.5
s12.5 17.167 14.5 34.5l42 399h-84v102h95l14 137c6 56 22 97.667 48 125s60 41 102 41c24.667 0 44.667 -2.33301 60 -7s27.666 -11 36.999 -19l-29 -94h-3c-6 6 -13.167 10.333 -21.5 13s-17.166 4 -26.499 4c-12 0 -22.5 -3.5 -31.5 -10.5s-14.833 -21.5 -17.5 -43.5
l-15 -146h94z" />
    <glyph glyph-name="circumflex" unicode="&#x2c6;" horiz-adv-x="500" 
d="M188 751h124l101 -156h-78l-86 78l-87 -78h-75z" />
    <glyph glyph-name="uni02C9" unicode="&#x2c9;" horiz-adv-x="500" 
d="M121 688h258v-99h-258v99z" />
    <glyph glyph-name="tilde" unicode="&#x2dc;" horiz-adv-x="500" 
d="M311 595c-14.667 0 -27.665 2.33301 -38.998 7s-21.5 10 -30.5 16s-17.5 11.333 -25.5 16s-16.333 7 -25 7c-11.333 0 -20 -3.83301 -26 -11.5s-10.333 -18.167 -13 -31.5l-79 7c5.33301 41.333 18.166 73 38.499 95s46.166 33 77.499 33c14.667 0 27.5 -2.33301 38.5 -7
s21 -10 30 -16s17.5 -11.333 25.5 -16s16.667 -7 26 -7c12 0 20 3.5 24 10.5s7 17.167 9 30.5l84 -7c-5.33301 -38 -17.833 -68.5 -37.5 -91.5s-45.5 -34.5 -77.5 -34.5z" />
    <glyph glyph-name="Delta" unicode="&#x394;" horiz-adv-x="726" 
d="M364 598l-153 -481h304zM293 754h145l254 -754h-658z" />
    <glyph glyph-name="uni03BC" unicode="&#x3bc;" horiz-adv-x="618" 
d="M195 534v-323.002c0 -36 7.5 -64.667 22.5 -86s39.833 -32 74.5 -32c37.333 0 68.5 12.833 93.5 38.5s37.5 66.167 37.5 121.5v281h120v-534h-120l2 86c-6 -11.333 -13.5 -22.666 -22.5 -33.999s-20 -21.666 -33 -30.999s-28 -17 -45 -23s-36.833 -9 -59.5 -9
c-13.333 0 -26.333 1.66699 -39 5s-23 8.33301 -31 15v-191h-120v716h120z" />
    <glyph glyph-name="endash" unicode="&#x2013;" horiz-adv-x="632" 
d="M65 354h502v-106h-502v106z" />
    <glyph glyph-name="emdash" unicode="&#x2014;" horiz-adv-x="916" 
d="M65 354h786v-106h-786v106z" />
    <glyph glyph-name="quoteleft" unicode="&#x2018;" horiz-adv-x="258" 
d="M199 700c-18 -4 -33.167 -11 -45.5 -21s-18.5 -27 -18.5 -51h65v-138h-142v124c0 26 3.83301 48.167 11.5 66.5s18 33.5 31 45.5s28 21.167 45 27.5s34.833 10.5 53.5 12.5v-66z" />
    <glyph glyph-name="quoteright" unicode="&#x2019;" horiz-adv-x="258" 
d="M59 543c18 4 33.167 11 45.5 21s18.5 27 18.5 51h-65v138h142v-124c0 -26 -3.83301 -48.167 -11.5 -66.5s-18 -33.5 -31 -45.5s-28 -21.167 -45 -27.5s-34.833 -10.5 -53.5 -12.5v66z" />
    <glyph glyph-name="quotesinglbase" unicode="&#x201a;" horiz-adv-x="258" 
d="M59 -72c18 4 33.167 11 45.5 21s18.5 27 18.5 51h-65v138h142v-124c0 -26 -3.83301 -48.167 -11.5 -66.5s-18 -33.5 -31 -45.5s-28 -21.167 -45 -27.5s-34.833 -10.5 -53.5 -12.5v66z" />
    <glyph glyph-name="quotedblleft" unicode="&#x201c;" horiz-adv-x="478" 
d="M199 700c-18 -4 -33.167 -11 -45.5 -21s-18.5 -27 -18.5 -51h65v-138h-142v124c0 26 3.83301 48.167 11.5 66.5s18 33.5 31 45.5s28 21.167 45 27.5s34.833 10.5 53.5 12.5v-66zM419 700c-18 -4 -33.167 -11 -45.5 -21s-18.5 -27 -18.5 -51h65v-138h-142v124
c0 26 3.83301 48.167 11.5 66.5s18 33.5 31 45.5s28 21.167 45 27.5s34.833 10.5 53.5 12.5v-66z" />
    <glyph glyph-name="quotedblright" unicode="&#x201d;" horiz-adv-x="478" 
d="M59 543c18 4 33.167 11 45.5 21s18.5 27 18.5 51h-65v138h142v-124c0 -26 -3.83301 -48.167 -11.5 -66.5s-18 -33.5 -31 -45.5s-28 -21.167 -45 -27.5s-34.833 -10.5 -53.5 -12.5v66zM279 543c18 4 33.167 11 45.5 21s18.5 27 18.5 51h-65v138h142v-124
c0 -26 -3.83301 -48.167 -11.5 -66.5s-18 -33.5 -31 -45.5s-28 -21.167 -45 -27.5s-34.833 -10.5 -53.5 -12.5v66z" />
    <glyph glyph-name="quotedblbase" unicode="&#x201e;" horiz-adv-x="478" 
d="M59 -72c18 4 33.167 11 45.5 21s18.5 27 18.5 51h-65v138h142v-124c0 -26 -3.83301 -48.167 -11.5 -66.5s-18 -33.5 -31 -45.5s-28 -21.167 -45 -27.5s-34.833 -10.5 -53.5 -12.5v66zM279 -72c18 4 33.167 11 45.5 21s18.5 27 18.5 51h-65v138h142v-124
c0 -26 -3.83301 -48.167 -11.5 -66.5s-18 -33.5 -31 -45.5s-28 -21.167 -45 -27.5s-34.833 -10.5 -53.5 -12.5v66z" />
    <glyph glyph-name="dagger" unicode="&#x2020;" horiz-adv-x="510" 
d="M39 456v103h158v194h116v-194h158v-103h-158v-456h-116v456h-158z" />
    <glyph glyph-name="daggerdbl" unicode="&#x2021;" horiz-adv-x="510" 
d="M39 456v103h158v194h116v-194h158v-103h-158v-158h158v-103h-158v-195h-116v195h-158v103h158v158h-158z" />
    <glyph glyph-name="bullet" unicode="&#x2022;" horiz-adv-x="488" 
d="M244 173c-30 0 -56.834 5.16895 -80.501 15.502s-44 24.166 -61 41.499s-30 37.833 -39 61.5s-13.5 49.167 -13.5 76.5s4.5 53.166 13.5 77.499s21.833 45.5 38.5 63.5s37.167 32.167 61.5 42.5s51.5 15.5 81.5 15.5s57.167 -5.16699 81.5 -15.5s44.833 -24.5 61.5 -42.5
s29.334 -39 38.001 -63s12.667 -49.667 12 -77c0 -27.333 -4.5 -53 -13.5 -77s-21.667 -44.833 -38 -62.5s-36.5 -31.5 -60.5 -41.5s-51.333 -15 -82 -15z" />
    <glyph glyph-name="ellipsis" unicode="&#x2026;" horiz-adv-x="874" 
d="M85 146h148v-146h-148v146zM363 146h148v-146h-148v146zM641 146h148v-146h-148v146z" />
    <glyph glyph-name="perthousand" unicode="&#x2030;" horiz-adv-x="1480" 
d="M799 76c31.333 0 53.999 11.5 67.999 34.5s21 55.167 21 96.5c0 40 -7 71.5 -21 94.5s-37 34.5 -69 34.5c-31.333 0 -53.666 -11.167 -66.999 -33.5s-20 -54.5 -20 -96.5s6.83301 -74.167 20.5 -96.5s36.167 -33.5 67.5 -33.5zM1245 76c31.333 0 53.999 11.5 67.999 34.5
s21 55.167 21 96.5c0 40 -7 71.5 -21 94.5s-37 34.5 -69 34.5c-31.333 0 -53.666 -11.167 -66.999 -33.5s-20 -54.5 -20 -96.5s6.83301 -74.167 20.5 -96.5s36.167 -33.5 67.5 -33.5zM233.998 380c31.333 0 53.999 11.5 67.999 34.5s21 55.167 21 96.5
c0 40 -7 71.5 -21 94.5s-37 34.5 -69 34.5c-31.333 0 -53.666 -11.167 -66.999 -33.5s-20 -54.5 -20 -96.5s6.83301 -74.167 20.5 -96.5s36.167 -33.5 67.5 -33.5zM637.997 716h104l-348 -716h-104zM1244 -13c-31.333 0 -59.0039 5.49805 -83.0039 16.498
s-44.167 26.333 -60.5 46s-28.666 42.667 -36.999 69s-12.5 55.166 -12.5 86.499c0 30.667 4.33301 59.334 13 86.001s21.334 49.834 38.001 69.501s37 35 61 46s51.333 16.5 82 16.5s58.167 -5.33301 82.5 -16s44.833 -25.5 61.5 -44.5s29.334 -41.667 38.001 -68
s13 -55.166 13 -86.499s-4.33301 -60.5 -13 -87.5s-21.167 -50.333 -37.5 -70s-36.666 -35.167 -60.999 -46.5s-52.5 -17 -84.5 -17zM797.993 -13.002c-31.333 0 -59.0039 5.49805 -83.0039 16.498s-44.167 26.333 -60.5 46s-28.666 42.667 -36.999 69
s-12.5 55.166 -12.5 86.499c0 30.667 4.33301 59.334 13 86.001s21.334 49.834 38.001 69.501s37 35 61 46s51.333 16.5 82 16.5s58.167 -5.33301 82.5 -16s44.833 -25.5 61.5 -44.5s29.334 -41.667 38.001 -68s13 -55.166 13 -86.499s-4.33301 -60.5 -13 -87.5
s-21.167 -50.333 -37.5 -70s-36.666 -35.167 -60.999 -46.5s-52.5 -17 -84.5 -17zM232.989 290.996c-31.333 0 -59.0039 5.49805 -83.0039 16.498s-44.167 26.333 -60.5 46s-28.666 42.667 -36.999 69s-12.5 55.166 -12.5 86.499c0 30.667 4.33301 59.334 13 86.001
s21.334 49.834 38.001 69.501s37 35 61 46s51.333 16.5 82 16.5s58.167 -5.33301 82.5 -16s44.833 -25.5 61.5 -44.5s29.334 -41.667 38.001 -68s13 -55.166 13 -86.499s-4.33301 -60.5 -13 -87.5s-21.167 -50.333 -37.5 -70s-36.666 -35.167 -60.999 -46.5
s-52.5 -17 -84.5 -17z" />
    <glyph glyph-name="guilsinglleft" unicode="&#x2039;" horiz-adv-x="338" 
d="M46 241l121 202h119l-120 -202l120 -202h-119z" />
    <glyph glyph-name="guilsinglright" unicode="&#x203a;" horiz-adv-x="339" 
d="M173 241l-121 202h119l122 -202l-122 -202h-119z" />
    <glyph glyph-name="Euro" unicode="&#x20ac;" horiz-adv-x="730" 
d="M229 391c-0.666992 -5.33301 -0.996094 -10.6621 -0.996094 -15.9951v-15v-22c0 -6.66699 0.333008 -13.667 1 -21h234v-81h-225c9.33301 -46 27.5 -80.833 54.5 -104.5s67.167 -35.5 120.5 -35.5c24.667 0 46 3.16699 64 9.5s33.333 15 46 26s23.167 23.5 31.5 37.5
s15.5 29 21.5 45l104 -48c-9.33301 -22.667 -21 -44.834 -35 -66.501s-31.833 -40.834 -53.5 -57.501s-47.5 -30 -77.5 -40s-65.333 -15 -106 -15c-41.333 0 -78.5 6 -111.5 18s-61.833 29 -86.5 51s-45.334 48.167 -62.001 78.5s-29 64.166 -37 101.499h-87v81h75
c-0.666992 6.66699 -1 13.334 -1 20.001v22v16c0 5.33301 0.333008 10.666 1 15.999h-75v81h86c8.66699 37.333 21.5 71.666 38.5 102.999s38.167 58.166 63.5 80.499s54.666 39.833 87.999 52.5s70.666 19 111.999 19c66 0 121.167 -14.833 165.5 -44.5
s78.166 -76.5 101.499 -140.5l-108 -46c-7.33301 21.333 -15.333 39.833 -24 55.5s-19 28.5 -31 38.5s-26.5 17.5 -43.5 22.5s-37.167 7.5 -60.5 7.5c-52 0 -91.667 -12.667 -119 -38s-46 -62 -56 -110h226v-81h-234z" />
    <glyph glyph-name="trademark" unicode="&#x2122;" horiz-adv-x="762" 
d="M134 690h-99v63h270v-63h-96v-249h-75v249zM360 753h95l75 -228l72 228h100v-312h-73v207l-68 -207h-66l-68 207v-207h-67v312z" />
    <glyph glyph-name="uni2206" unicode="&#x2206;" horiz-adv-x="726" 
d="M364 598l-153 -481h304zM293 754h145l254 -754h-658z" />
    <glyph glyph-name="uni2219" unicode="&#x2219;" horiz-adv-x="318" 
d="M85 401h148v-146h-148v146z" />
    <glyph glyph-name="uni2224" unicode="&#x2224;" horiz-adv-x="318" 
d="M85 401h148v-146h-148v146z" />
    <glyph glyph-name="uni2227" unicode="&#x2227;" horiz-adv-x="318" 
d="M85 401h148v-146h-148v146z" />
    <glyph glyph-name="uni22C5" unicode="&#x22c5;" horiz-adv-x="318" 
d="M85 401h148v-146h-148v146z" />
    <glyph glyph-name=".null" horiz-adv-x="0" 
 />
    <glyph glyph-name="nonmarkingreturn" horiz-adv-x="247" 
 />
    </font>
</defs>
</svg>
